M48
;DRILL file {KiCad 5.0.2-bee76a0~70~ubuntu18.04.1} date ned 09 jun 2019 10:31:08 CEST
;FORMAT={-:-/ absolute / metric / decimal}
FMAT,2
METRIC,TZ
T1C0.300
T2C0.600
T3C0.800
T4C0.900
T5C1.000
%
G90
G05
T1
X0.711Y33.731
X0.711Y31.445
X0.711Y19.152
X0.711Y17.424
X0.762Y45.72
X0.762Y40.64
X0.762Y35.56
X0.762Y15.24
X0.762Y10.16
X0.762Y4.826
X1.714Y37.389
X1.803Y39.319
X2.306Y22.809
X2.331Y28.003
X2.946Y35.611
X3.404Y40.5
X4.178Y20.02
X4.223Y25.743
X4.229Y24.562
X4.303Y17.353
X4.604Y26.67
X4.608Y23.622
X4.826Y48.768
X4.826Y2.032
X5.588Y44.45
X6.159Y18.542
X6.337Y33.833
X6.401Y32.017
X6.769Y35.662
X7.556Y27.173
X8.445Y28.575
X8.89Y23.114
X9.906Y48.768
X9.906Y2.032
X10.16Y20.32
X10.668Y23.114
X11.367Y38.341
X11.379Y27.902
X11.443Y37.351
X11.938Y22.098
X12.636Y41.656
X12.636Y39.941
X13.271Y27.813
X13.462Y29.972
X13.716Y22.352
X13.932Y36.589
X14.059Y39.941
X14.478Y32.004
X14.986Y48.768
X14.986Y2.032
X15.57Y37.567
X16.002Y26.67
X16.002Y22.098
X16.573Y19.367
X17.247Y31.191
X17.615Y39.408
X17.78Y17.272
X17.805Y22.593
X19.304Y13.716
X20.066Y48.768
X20.066Y2.032
X20.201Y16.713
X20.828Y8.636
X21.462Y13.082
X21.514Y31.128
X21.526Y35.636
X22.136Y39.078
X22.149Y10.287
X22.15Y11.747
X22.339Y44.133
X22.39Y18.961
X22.631Y33.325
X22.817Y19.964
X22.835Y40.97
X22.987Y27.813
X22.987Y25.4
X22.987Y22.987
X23.233Y13.081
X24.194Y16.713
X24.575Y39.37
X24.638Y15.494
X24.701Y25.705
X25.146Y48.768
X25.146Y2.032
X25.4Y27.813
X25.4Y18.034
X25.777Y30.416
X26.607Y34.29
X26.657Y23.749
X26.924Y6.858
X27.28Y30.416
X27.622Y41.021
X27.749Y25.235
X27.813Y27.813
X27.813Y22.987
X28.003Y32.322
X28.067Y33.337
X28.626Y39.865
X28.638Y42.57
X29.413Y14.618
X29.452Y5.17
X29.527Y10.387
X29.527Y7.833
X29.731Y13.856
X29.972Y16.002
X30.226Y48.768
X30.226Y2.032
X30.366Y10.389
X30.48Y29.337
X30.532Y27.38
X30.924Y20.693
X30.924Y16.715
X31.115Y33.147
X31.293Y26.352
X31.318Y10.387
X31.318Y7.833
X31.463Y13.856
X31.636Y21.171
X31.636Y16.32
X31.737Y14.618
X31.89Y4.966
X32.004Y11.684
X32.042Y22.784
X32.322Y33.084
X32.461Y39.865
X32.511Y29.272
X32.563Y28.473
X32.741Y27.076
X33.02Y36.83
X34.252Y42.723
X34.391Y29.286
X34.417Y28.486
X34.498Y30.637
X34.874Y45.91
X35.217Y5.702
X35.306Y48.768
X35.306Y2.032
X35.56Y27.178
X35.863Y10.046
X36.182Y5.588
X36.322Y43.942
X36.855Y21.777
X36.99Y7.208
X37.071Y45.91
X37.973Y5.448
X38.138Y9.601
X38.163Y41.072
X38.227Y8.445
X38.354Y35.814
X38.499Y11.196
X38.511Y39.05
X38.71Y21.15
X38.913Y30.759
X39.345Y22.746
X39.878Y25.146
X39.959Y45.014
X40.386Y48.768
X40.386Y2.032
X40.78Y44.298
X40.906Y16.716
X40.919Y19.332
X41.046Y4.47
X41.237Y6.058
X41.792Y13.504
X41.91Y19.367
X42.197Y24.44
X42.812Y25.197
X42.887Y13.712
X43.129Y41.453
X43.129Y34.099
X43.142Y18.618
X43.269Y45.91
X43.434Y26.67
X43.523Y12.776
X44.082Y7.01
X44.667Y19.899
X44.729Y18.009
X44.844Y9.766
X45.314Y11.43
X45.377Y15.977
X45.466Y48.768
X45.466Y2.032
X45.467Y19.93
X45.606Y45.834
X46.139Y16.7
X46.164Y13.513
X46.253Y6.096
X46.266Y21.603
X46.279Y19.926
X46.736Y29.718
X46.799Y8.45
X46.799Y7.196
X47.078Y19.888
X47.079Y16.762
X47.638Y12.052
X47.65Y14.973
X47.727Y21.496
X48.174Y16.383
X48.311Y6.934
X48.514Y30.124
X48.578Y21.496
X48.806Y13.411
X49.073Y4.47
X49.136Y9.157
X49.301Y23.419
X49.403Y35.801
X50.109Y3.741
X50.14Y45.847
X50.216Y17.843
X50.317Y30.127
X50.546Y48.768
X50.546Y2.032
X50.635Y16.256
X50.77Y13.452
X50.876Y10.719
X50.906Y17.212
X51.092Y25.87
X51.739Y20.395
X51.841Y22.123
X51.867Y7.823
X51.905Y27.356
X51.942Y4.221
X52.07Y41.021
X52.324Y42.799
X52.375Y38.608
X52.4Y6.769
X52.493Y26.729
X52.578Y31.75
X52.632Y20.388
X52.705Y12.344
X52.705Y5.067
X52.723Y17.841
X52.756Y29.456
X52.984Y18.872
X53.162Y25.857
X53.302Y7.823
X53.311Y22.129
X53.32Y17.214
X54.496Y11.087
X54.635Y18.364
X55.334Y25.845
X55.626Y48.768
X55.626Y2.032
X55.893Y14.287
X56.07Y36.119
X56.083Y5.194
X56.147Y19.85
X56.566Y45.58
X56.578Y41.186
X56.583Y29.452
X56.706Y22.162
X56.744Y43.205
X56.858Y20.295
X57.048Y33.261
X57.155Y14.287
X57.244Y26.192
X57.404Y7.429
X57.45Y18.605
X57.58Y21.214
X57.582Y38.278
X57.808Y11.379
X58.178Y28.983
X58.318Y30.01
X58.356Y22.162
X58.495Y27.444
X58.61Y5.613
X58.649Y13.01
X58.737Y7.429
X58.801Y18.605
X58.864Y43.37
X58.877Y35.725
X58.928Y41.021
X58.983Y21.463
X59.284Y14.938
X59.641Y10.392
X60.681Y43.37
X60.706Y48.768
X60.706Y2.032
X60.744Y41.186
X60.947Y17.209
X60.96Y35.814
X60.96Y32.258
X61.303Y45.822
X61.951Y7.912
X61.976Y5.867
X62.09Y39.814
X62.408Y10.065
X62.827Y18.144
X62.84Y21.125
X63.246Y37.338
X63.309Y15.037
X63.309Y13.594
X63.691Y18.771
X64.008Y5.08
X64.135Y29.654
X64.186Y21.933
X64.186Y7.722
X64.224Y24.689
X64.262Y14.732
X64.656Y32.004
X65.557Y8.649
X65.773Y23.343
X65.786Y48.768
X65.786Y2.032
X65.849Y14.914
X65.849Y13.652
X65.908Y19.261
X66.472Y45.847
X66.675Y16.383
X67.056Y36.576
X67.183Y10.287
X67.437Y28.13
X67.437Y18.034
X68.135Y34.227
X68.135Y32.766
X68.135Y26.091
X68.135Y22.606
X68.135Y14.922
X68.288Y45.847
X68.326Y28.13
X68.326Y18.034
X68.326Y10.287
X69.342Y16.51
X69.596Y34.036
X69.85Y45.72
X70.104Y5.08
X70.358Y27.686
X70.358Y22.86
X70.358Y18.034
X70.866Y48.768
X70.866Y2.032
X71.526Y4.221
X71.628Y38.608
X72.39Y10.16
X72.644Y33.274
X73.152Y2.484
X74.981Y30.074
X74.981Y28.58
X74.981Y22.22
X74.981Y20.726
X75.184Y25.4
X75.438Y35.306
X75.692Y17.78
X77.47Y11.493
X79.756Y11.684
X82.296Y38.862
X82.296Y18.034
X82.296Y10.16
X82.804Y35.56
X82.804Y25.4
X83.248Y48.514
X85.09Y3.2
X87.376Y17.78
X87.63Y30.48
X87.63Y20.32
X87.63Y15.24
X90.424Y45.72
X90.424Y40.64
X90.424Y35.56
X90.424Y30.48
X90.424Y25.4
X90.424Y20.32
X90.424Y15.24
X90.424Y10.16
X90.424Y5.08
T3
X41.819Y40.393
X41.819Y32.773
X44.359Y40.393
X44.359Y32.773
X46.899Y40.393
X46.899Y32.773
X49.439Y40.393
X49.439Y32.773
T4
X30.106Y45.707
X32.646Y45.707
X86.106Y5.08
X88.646Y5.08
X81.026Y45.72
X83.566Y45.72
X86.106Y45.72
X88.646Y45.72
X25.026Y45.707
X27.566Y45.707
X81.026Y5.08
X83.566Y5.08
T5
X77.47Y36.83
X77.47Y34.29
X77.47Y31.75
X77.47Y29.21
X77.47Y26.67
X77.47Y24.13
X77.47Y21.59
X77.47Y19.05
X77.47Y16.51
X77.47Y13.97
X80.01Y36.83
X80.01Y34.29
X80.01Y31.75
X80.01Y29.21
X80.01Y26.67
X80.01Y24.13
X80.01Y21.59
X80.01Y19.05
X80.01Y16.51
X80.01Y13.97
X34.036Y13.462
X36.576Y13.462
X39.116Y13.462
T2
X1.61Y29.72G85X0.81Y29.72
G05
X1.61Y21.08G85X0.81Y21.08
G05
X5.91Y29.72G85X4.81Y29.72
G05
X5.91Y21.08G85X4.81Y21.08
G05
T0
M30
