G04 #@! TF.GenerationSoftware,KiCad,Pcbnew,5.0.2-bee76a0~70~ubuntu18.04.1*
G04 #@! TF.CreationDate,2019-08-12T10:54:45+02:00*
G04 #@! TF.ProjectId,JTAG-SWD-adapter,4a544147-2d53-4574-942d-616461707465,rev?*
G04 #@! TF.SameCoordinates,PX18392c0PY54c81a0*
G04 #@! TF.FileFunction,Other,Fab,Top*
%FSLAX46Y46*%
G04 Gerber Fmt 4.6, Leading zero omitted, Abs format (unit mm)*
G04 Created by KiCad (PCBNEW 5.0.2-bee76a0~70~ubuntu18.04.1) date pon 12 avg 2019 10:54:45 CEST*
%MOMM*%
%LPD*%
G01*
G04 APERTURE LIST*
%ADD10C,0.100000*%
%ADD11C,0.150000*%
%ADD12C,0.075000*%
%ADD13C,0.060000*%
%ADD14C,0.120000*%
%ADD15C,0.080000*%
%ADD16C,0.105000*%
G04 APERTURE END LIST*
D10*
G04 #@! TO.C,U5*
X8036000Y26300000D02*
X11136000Y26300000D01*
X11136000Y26300000D02*
X11136000Y24500000D01*
X8686000Y24500000D02*
X11136000Y24500000D01*
X8036000Y26300000D02*
X8036000Y25150000D01*
X8686000Y24500000D02*
X8036000Y25150000D01*
G04 #@! TO.C,U8*
X57987360Y40070200D02*
X57337360Y40720200D01*
X57337360Y41870200D02*
X57337360Y40720200D01*
X57987360Y40070200D02*
X60437360Y40070200D01*
X60437360Y41870200D02*
X60437360Y40070200D01*
X57337360Y41870200D02*
X60437360Y41870200D01*
G04 #@! TO.C,U7*
X21400000Y28400000D02*
X22400000Y29400000D01*
X21400000Y21400000D02*
X21400000Y28400000D01*
X29400000Y21400000D02*
X21400000Y21400000D01*
X29400000Y29400000D02*
X29400000Y21400000D01*
X22400000Y29400000D02*
X29400000Y29400000D01*
G04 #@! TO.C,D6*
X27796555Y46872776D02*
G75*
G03X27796000Y44541110I-1500555J-1165476D01*
G01*
X27796000Y45707300D02*
G75*
G03X27796000Y45707300I-1500000J0D01*
G01*
X27796000Y44541110D02*
X27796000Y46873490D01*
G04 #@! TO.C,D5*
X32876000Y44541110D02*
X32876000Y46873490D01*
X32876000Y45707300D02*
G75*
G03X32876000Y45707300I-1500000J0D01*
G01*
X32876555Y46872776D02*
G75*
G03X32876000Y44541110I-1500555J-1165476D01*
G01*
G04 #@! TO.C,R32*
X30143400Y41541600D02*
X30143400Y39941600D01*
X29343400Y41541600D02*
X30143400Y41541600D01*
X29343400Y39941600D02*
X29343400Y41541600D01*
X30143400Y39941600D02*
X29343400Y39941600D01*
G04 #@! TO.C,R33*
X31654700Y41541600D02*
X31654700Y39941600D01*
X30854700Y41541600D02*
X31654700Y41541600D01*
X30854700Y39941600D02*
X30854700Y41541600D01*
X31654700Y39941600D02*
X30854700Y39941600D01*
G04 #@! TO.C,R34*
X53644900Y42551400D02*
X53644900Y43351400D01*
X53644900Y43351400D02*
X55244900Y43351400D01*
X55244900Y43351400D02*
X55244900Y42551400D01*
X55244900Y42551400D02*
X53644900Y42551400D01*
G04 #@! TO.C,Q3*
X37267960Y39132280D02*
X37267960Y40532280D01*
X34227960Y40532280D02*
X37267960Y40532280D01*
X34797960Y39132280D02*
X34227960Y39682280D01*
X34227960Y39682280D02*
X34227960Y40532280D01*
X34797960Y39132280D02*
X37247960Y39132280D01*
G04 #@! TO.C,Q2*
X38172200Y32599400D02*
X38172200Y33999400D01*
X35132200Y33999400D02*
X38172200Y33999400D01*
X35702200Y32599400D02*
X35132200Y33149400D01*
X35132200Y33149400D02*
X35132200Y33999400D01*
X35702200Y32599400D02*
X38152200Y32599400D01*
G04 #@! TO.C,R28*
X37350600Y30410200D02*
X35750600Y30410200D01*
X37350600Y31210200D02*
X37350600Y30410200D01*
X35750600Y31210200D02*
X37350600Y31210200D01*
X35750600Y30410200D02*
X35750600Y31210200D01*
G04 #@! TO.C,R29*
X34973360Y37727840D02*
X36573360Y37727840D01*
X34973360Y36927840D02*
X34973360Y37727840D01*
X36573360Y36927840D02*
X34973360Y36927840D01*
X36573360Y37727840D02*
X36573360Y36927840D01*
G04 #@! TO.C,R30*
X36575900Y35414000D02*
X34975900Y35414000D01*
X36575900Y36214000D02*
X36575900Y35414000D01*
X34975900Y36214000D02*
X36575900Y36214000D01*
X34975900Y35414000D02*
X34975900Y36214000D01*
G04 #@! TO.C,R27*
X35872520Y28710840D02*
X37472520Y28710840D01*
X35872520Y27910840D02*
X35872520Y28710840D01*
X37472520Y27910840D02*
X35872520Y27910840D01*
X37472520Y28710840D02*
X37472520Y27910840D01*
G04 #@! TO.C,R31*
X37447120Y41972280D02*
X35847120Y41972280D01*
X37447120Y42772280D02*
X37447120Y41972280D01*
X35847120Y42772280D02*
X37447120Y42772280D01*
X35847120Y41972280D02*
X35847120Y42772280D01*
G04 #@! TO.C,J2*
X39751000Y14732000D02*
X40386000Y14097000D01*
X32766000Y14732000D02*
X39751000Y14732000D01*
X32766000Y12192000D02*
X32766000Y14732000D01*
X40386000Y12192000D02*
X32766000Y12192000D01*
X40386000Y14097000D02*
X40386000Y12192000D01*
G04 #@! TO.C,R26*
X50825500Y9544000D02*
X52425500Y9544000D01*
X50825500Y8744000D02*
X50825500Y9544000D01*
X52425500Y8744000D02*
X50825500Y8744000D01*
X52425500Y9544000D02*
X52425500Y8744000D01*
G04 #@! TO.C,C26*
X27044600Y33059300D02*
X27044600Y31459300D01*
X26244600Y33059300D02*
X27044600Y33059300D01*
X26244600Y31459300D02*
X26244600Y33059300D01*
X27044600Y31459300D02*
X26244600Y31459300D01*
G04 #@! TO.C,R6*
X12712800Y26562000D02*
X14312800Y26562000D01*
X12712800Y25762000D02*
X12712800Y26562000D01*
X14312800Y25762000D02*
X12712800Y25762000D01*
X14312800Y26562000D02*
X14312800Y25762000D01*
G04 #@! TO.C,R5*
X12712800Y25038000D02*
X14312800Y25038000D01*
X12712800Y24238000D02*
X12712800Y25038000D01*
X14312800Y24238000D02*
X12712800Y24238000D01*
X14312800Y25038000D02*
X14312800Y24238000D01*
G04 #@! TO.C,C25*
X14835000Y29864000D02*
X16435000Y29864000D01*
X14835000Y29064000D02*
X14835000Y29864000D01*
X16435000Y29064000D02*
X14835000Y29064000D01*
X16435000Y29864000D02*
X16435000Y29064000D01*
G04 #@! TO.C,R25*
X9993500Y21444000D02*
X8393500Y21444000D01*
X9993500Y22244000D02*
X9993500Y21444000D01*
X8393500Y22244000D02*
X9993500Y22244000D01*
X8393500Y21444000D02*
X8393500Y22244000D01*
G04 #@! TO.C,R24*
X8845500Y31851500D02*
X8845500Y30251500D01*
X8045500Y31851500D02*
X8845500Y31851500D01*
X8045500Y30251500D02*
X8045500Y31851500D01*
X8845500Y30251500D02*
X8045500Y30251500D01*
G04 #@! TO.C,C24*
X70148400Y38505000D02*
X70148400Y36905000D01*
X69348400Y38505000D02*
X70148400Y38505000D01*
X69348400Y36905000D02*
X69348400Y38505000D01*
X70148400Y36905000D02*
X69348400Y36905000D01*
G04 #@! TO.C,RN7*
X26187500Y11862000D02*
X26187500Y15062000D01*
X27787500Y11862000D02*
X26187500Y11862000D01*
X27787500Y15062000D02*
X27787500Y11862000D01*
X26187500Y15062000D02*
X27787500Y15062000D01*
G04 #@! TO.C,RN8*
X34331500Y22403000D02*
X34331500Y25603000D01*
X35931500Y22403000D02*
X34331500Y22403000D01*
X35931500Y25603000D02*
X35931500Y22403000D01*
X34331500Y25603000D02*
X35931500Y25603000D01*
G04 #@! TO.C,SW1*
X42453560Y37260027D02*
X41183560Y37260027D01*
X41253560Y38613360D02*
X41253560Y37260027D01*
X41353560Y38613360D02*
X41353560Y37260027D01*
X41453560Y38613360D02*
X41453560Y37260027D01*
X41553560Y38613360D02*
X41553560Y37260027D01*
X41653560Y38613360D02*
X41653560Y37260027D01*
X41753560Y38613360D02*
X41753560Y37260027D01*
X41853560Y38613360D02*
X41853560Y37260027D01*
X41953560Y38613360D02*
X41953560Y37260027D01*
X42053560Y38613360D02*
X42053560Y37260027D01*
X42153560Y38613360D02*
X42153560Y37260027D01*
X42253560Y38613360D02*
X42253560Y37260027D01*
X42353560Y38613360D02*
X42353560Y37260027D01*
X42453560Y34553360D02*
X42453560Y38613360D01*
X41183560Y34553360D02*
X42453560Y34553360D01*
X41183560Y38613360D02*
X41183560Y34553360D01*
X42453560Y38613360D02*
X41183560Y38613360D01*
X44993560Y37260027D02*
X43723560Y37260027D01*
X43793560Y38613360D02*
X43793560Y37260027D01*
X43893560Y38613360D02*
X43893560Y37260027D01*
X43993560Y38613360D02*
X43993560Y37260027D01*
X44093560Y38613360D02*
X44093560Y37260027D01*
X44193560Y38613360D02*
X44193560Y37260027D01*
X44293560Y38613360D02*
X44293560Y37260027D01*
X44393560Y38613360D02*
X44393560Y37260027D01*
X44493560Y38613360D02*
X44493560Y37260027D01*
X44593560Y38613360D02*
X44593560Y37260027D01*
X44693560Y38613360D02*
X44693560Y37260027D01*
X44793560Y38613360D02*
X44793560Y37260027D01*
X44893560Y38613360D02*
X44893560Y37260027D01*
X44993560Y34553360D02*
X44993560Y38613360D01*
X43723560Y34553360D02*
X44993560Y34553360D01*
X43723560Y38613360D02*
X43723560Y34553360D01*
X44993560Y38613360D02*
X43723560Y38613360D01*
X47533560Y37260027D02*
X46263560Y37260027D01*
X46333560Y38613360D02*
X46333560Y37260027D01*
X46433560Y38613360D02*
X46433560Y37260027D01*
X46533560Y38613360D02*
X46533560Y37260027D01*
X46633560Y38613360D02*
X46633560Y37260027D01*
X46733560Y38613360D02*
X46733560Y37260027D01*
X46833560Y38613360D02*
X46833560Y37260027D01*
X46933560Y38613360D02*
X46933560Y37260027D01*
X47033560Y38613360D02*
X47033560Y37260027D01*
X47133560Y38613360D02*
X47133560Y37260027D01*
X47233560Y38613360D02*
X47233560Y37260027D01*
X47333560Y38613360D02*
X47333560Y37260027D01*
X47433560Y38613360D02*
X47433560Y37260027D01*
X47533560Y34553360D02*
X47533560Y38613360D01*
X46263560Y34553360D02*
X47533560Y34553360D01*
X46263560Y38613360D02*
X46263560Y34553360D01*
X47533560Y38613360D02*
X46263560Y38613360D01*
X50073560Y37260027D02*
X48803560Y37260027D01*
X48873560Y38613360D02*
X48873560Y37260027D01*
X48973560Y38613360D02*
X48973560Y37260027D01*
X49073560Y38613360D02*
X49073560Y37260027D01*
X49173560Y38613360D02*
X49173560Y37260027D01*
X49273560Y38613360D02*
X49273560Y37260027D01*
X49373560Y38613360D02*
X49373560Y37260027D01*
X49473560Y38613360D02*
X49473560Y37260027D01*
X49573560Y38613360D02*
X49573560Y37260027D01*
X49673560Y38613360D02*
X49673560Y37260027D01*
X49773560Y38613360D02*
X49773560Y37260027D01*
X49873560Y38613360D02*
X49873560Y37260027D01*
X49973560Y38613360D02*
X49973560Y37260027D01*
X50073560Y34553360D02*
X50073560Y38613360D01*
X48803560Y34553360D02*
X50073560Y34553360D01*
X48803560Y38613360D02*
X48803560Y34553360D01*
X50073560Y38613360D02*
X48803560Y38613360D01*
X50798560Y41473360D02*
X51798560Y40473360D01*
X39458560Y41473360D02*
X50798560Y41473360D01*
X39458560Y31693360D02*
X39458560Y41473360D01*
X51798560Y31693360D02*
X39458560Y31693360D01*
X51798560Y40473360D02*
X51798560Y31693360D01*
G04 #@! TO.C,D1*
X88876000Y3913810D02*
X88876000Y6246190D01*
X88876000Y5080000D02*
G75*
G03X88876000Y5080000I-1500000J0D01*
G01*
X88876555Y6245476D02*
G75*
G03X88876000Y3913810I-1500555J-1165476D01*
G01*
G04 #@! TO.C,D2*
X83796000Y44553810D02*
X83796000Y46886190D01*
X83796000Y45720000D02*
G75*
G03X83796000Y45720000I-1500000J0D01*
G01*
X83796555Y46885476D02*
G75*
G03X83796000Y44553810I-1500555J-1165476D01*
G01*
G04 #@! TO.C,D3*
X83796000Y3913810D02*
X83796000Y6246190D01*
X83796000Y5080000D02*
G75*
G03X83796000Y5080000I-1500000J0D01*
G01*
X83796555Y6245476D02*
G75*
G03X83796000Y3913810I-1500555J-1165476D01*
G01*
G04 #@! TO.C,D4*
X88876000Y44553810D02*
X88876000Y46886190D01*
X88876000Y45720000D02*
G75*
G03X88876000Y45720000I-1500000J0D01*
G01*
X88876555Y46885476D02*
G75*
G03X88876000Y44553810I-1500555J-1165476D01*
G01*
G04 #@! TO.C,U1*
X66572800Y13600000D02*
X69672800Y13600000D01*
X69672800Y13600000D02*
X69672800Y11800000D01*
X67222800Y11800000D02*
X69672800Y11800000D01*
X66572800Y13600000D02*
X66572800Y12450000D01*
X67222800Y11800000D02*
X66572800Y12450000D01*
G04 #@! TO.C,R23*
X73240800Y36430000D02*
X71640800Y36430000D01*
X73240800Y37230000D02*
X73240800Y36430000D01*
X71640800Y37230000D02*
X73240800Y37230000D01*
X71640800Y36430000D02*
X71640800Y37230000D01*
D11*
G04 #@! TO.C,J1*
X-1390000Y25400000D02*
X-1390000Y20900000D01*
X-1390000Y20900000D02*
X6210000Y20900000D01*
X6210000Y20900000D02*
X6210000Y29900000D01*
X6210000Y29900000D02*
X-1390000Y29900000D01*
X-1390000Y29900000D02*
X-1390000Y25400000D01*
D10*
G04 #@! TO.C,C14*
X57162800Y36722100D02*
X57162800Y37522100D01*
X57162800Y37522100D02*
X58762800Y37522100D01*
X58762800Y37522100D02*
X58762800Y36722100D01*
X58762800Y36722100D02*
X57162800Y36722100D01*
G04 #@! TO.C,C17*
X58013700Y46396860D02*
X59613700Y46396860D01*
X58013700Y45596860D02*
X58013700Y46396860D01*
X59613700Y45596860D02*
X58013700Y45596860D01*
X59613700Y46396860D02*
X59613700Y45596860D01*
G04 #@! TO.C,C18*
X63392000Y46506000D02*
X63392000Y44906000D01*
X62592000Y46506000D02*
X63392000Y46506000D01*
X62592000Y44906000D02*
X62592000Y46506000D01*
X63392000Y44906000D02*
X62592000Y44906000D01*
G04 #@! TO.C,C19*
X64094260Y30374640D02*
X62494260Y30374640D01*
X64094260Y31174640D02*
X64094260Y30374640D01*
X62494260Y31174640D02*
X64094260Y31174640D01*
X62494260Y30374640D02*
X62494260Y31174640D01*
G04 #@! TO.C,C20*
X64092960Y15838220D02*
X62492960Y15838220D01*
X64092960Y16638220D02*
X64092960Y15838220D01*
X62492960Y16638220D02*
X64092960Y16638220D01*
X62492960Y15838220D02*
X62492960Y16638220D01*
G04 #@! TO.C,C21*
X43384400Y9366300D02*
X41784400Y9366300D01*
X43384400Y10166300D02*
X43384400Y9366300D01*
X41784400Y10166300D02*
X43384400Y10166300D01*
X41784400Y9366300D02*
X41784400Y10166300D01*
G04 #@! TO.C,C22*
X64095500Y22993400D02*
X62495500Y22993400D01*
X64095500Y23793400D02*
X64095500Y22993400D01*
X62495500Y23793400D02*
X64095500Y23793400D01*
X62495500Y22993400D02*
X62495500Y23793400D01*
G04 #@! TO.C,C23*
X64092960Y8723680D02*
X62492960Y8723680D01*
X64092960Y9523680D02*
X64092960Y8723680D01*
X62492960Y9523680D02*
X64092960Y9523680D01*
X62492960Y8723680D02*
X62492960Y9523680D01*
G04 #@! TO.C,C11*
X22040800Y34162900D02*
X22040800Y32562900D01*
X21240800Y34162900D02*
X22040800Y34162900D01*
X21240800Y32562900D02*
X21240800Y34162900D01*
X22040800Y32562900D02*
X21240800Y32562900D01*
G04 #@! TO.C,C7*
X21561300Y40306700D02*
X19561300Y40306700D01*
X21561300Y41506700D02*
X21561300Y40306700D01*
X19561300Y41506700D02*
X21561300Y41506700D01*
X19561300Y40306700D02*
X19561300Y41506700D01*
G04 #@! TO.C,C1*
X7962500Y34318500D02*
X9962500Y34318500D01*
X7962500Y33118500D02*
X7962500Y34318500D01*
X9962500Y33118500D02*
X7962500Y33118500D01*
X9962500Y34318500D02*
X9962500Y33118500D01*
G04 #@! TO.C,C3*
X3194700Y38128500D02*
X5194700Y38128500D01*
X3194700Y36928500D02*
X3194700Y38128500D01*
X5194700Y36928500D02*
X3194700Y36928500D01*
X5194700Y38128500D02*
X5194700Y36928500D01*
G04 #@! TO.C,C5*
X11338000Y29683200D02*
X11338000Y31683200D01*
X12538000Y29683200D02*
X11338000Y29683200D01*
X12538000Y31683200D02*
X12538000Y29683200D01*
X11338000Y31683200D02*
X12538000Y31683200D01*
G04 #@! TO.C,C16*
X65560500Y46856000D02*
X65560500Y44856000D01*
X64360500Y46856000D02*
X65560500Y46856000D01*
X64360500Y44856000D02*
X64360500Y46856000D01*
X65560500Y44856000D02*
X64360500Y44856000D01*
G04 #@! TO.C,C13*
X61490300Y43011600D02*
X62690300Y43011600D01*
X62690300Y43011600D02*
X62690300Y41011600D01*
X62690300Y41011600D02*
X61490300Y41011600D01*
X61490300Y41011600D02*
X61490300Y43011600D01*
G04 #@! TO.C,Y1*
X19454000Y34801000D02*
X18454000Y35801000D01*
X16254000Y33301000D02*
X19454000Y33301000D01*
X16254000Y35801000D02*
X16254000Y33301000D01*
X19454000Y35801000D02*
X16254000Y35801000D01*
X19454000Y33301000D02*
X19454000Y35801000D01*
G04 #@! TO.C,FB2*
X9569500Y30251500D02*
X9569500Y31851500D01*
X10369500Y30251500D02*
X9569500Y30251500D01*
X10369500Y31851500D02*
X10369500Y30251500D01*
X9569500Y31851500D02*
X10369500Y31851500D01*
G04 #@! TO.C,FB1*
X12325300Y35255100D02*
X12325300Y33655100D01*
X11525300Y35255100D02*
X12325300Y35255100D01*
X11525300Y33655100D02*
X11525300Y35255100D01*
X12325300Y33655100D02*
X11525300Y33655100D01*
G04 #@! TO.C,FB3*
X15746800Y41306700D02*
X17346800Y41306700D01*
X15746800Y40506700D02*
X15746800Y41306700D01*
X17346800Y40506700D02*
X15746800Y40506700D01*
X17346800Y41306700D02*
X17346800Y40506700D01*
G04 #@! TO.C,U6*
X24229400Y37216800D02*
X23229400Y38216800D01*
X28129400Y37216800D02*
X24229400Y37216800D01*
X28129400Y41116800D02*
X28129400Y37216800D01*
X23229400Y41116800D02*
X28129400Y41116800D01*
X23229400Y38216800D02*
X23229400Y41116800D01*
D11*
G04 #@! TO.C,U9*
X55394500Y30329000D02*
X56394500Y31329000D01*
X55394500Y26329000D02*
X55394500Y30329000D01*
X59794500Y26329000D02*
X55394500Y26329000D01*
X59794500Y31329000D02*
X59794500Y26329000D01*
X56394500Y31329000D02*
X59794500Y31329000D01*
G04 #@! TO.C,U13*
X55360000Y8675500D02*
X56360000Y9675500D01*
X55360000Y4675500D02*
X55360000Y8675500D01*
X59760000Y4675500D02*
X55360000Y4675500D01*
X59760000Y9675500D02*
X59760000Y4675500D01*
X56360000Y9675500D02*
X59760000Y9675500D01*
G04 #@! TO.C,U11*
X55331000Y15787500D02*
X56331000Y16787500D01*
X55331000Y11787500D02*
X55331000Y15787500D01*
X59731000Y11787500D02*
X55331000Y11787500D01*
X59731000Y16787500D02*
X59731000Y11787500D01*
X56331000Y16787500D02*
X59731000Y16787500D01*
G04 #@! TO.C,U12*
X55394500Y22963000D02*
X56394500Y23963000D01*
X55394500Y18963000D02*
X55394500Y22963000D01*
X59794500Y18963000D02*
X55394500Y18963000D01*
X59794500Y23963000D02*
X59794500Y18963000D01*
X56394500Y23963000D02*
X59794500Y23963000D01*
G04 #@! TO.C,U10*
X34459820Y8985380D02*
X35459820Y9985380D01*
X34459820Y4985380D02*
X34459820Y8985380D01*
X38859820Y4985380D02*
X34459820Y4985380D01*
X38859820Y9985380D02*
X38859820Y4985380D01*
X35459820Y9985380D02*
X38859820Y9985380D01*
D10*
G04 #@! TO.C,U4*
X7990000Y36931000D02*
X7990000Y40031000D01*
X7990000Y40031000D02*
X9790000Y40031000D01*
X9790000Y37581000D02*
X9790000Y40031000D01*
X7990000Y36931000D02*
X9140000Y36931000D01*
X9790000Y37581000D02*
X9140000Y36931000D01*
G04 #@! TO.C,U3*
X66572800Y21220000D02*
X69672800Y21220000D01*
X69672800Y21220000D02*
X69672800Y19420000D01*
X67222800Y19420000D02*
X69672800Y19420000D01*
X66572800Y21220000D02*
X66572800Y20070000D01*
X67222800Y19420000D02*
X66572800Y20070000D01*
G04 #@! TO.C,U2*
X66572800Y31380000D02*
X69672800Y31380000D01*
X69672800Y31380000D02*
X69672800Y29580000D01*
X67222800Y29580000D02*
X69672800Y29580000D01*
X66572800Y31380000D02*
X66572800Y30230000D01*
X67222800Y29580000D02*
X66572800Y30230000D01*
G04 #@! TO.C,R21*
X50839500Y15005000D02*
X52439500Y15005000D01*
X50839500Y14205000D02*
X50839500Y15005000D01*
X52439500Y14205000D02*
X50839500Y14205000D01*
X52439500Y15005000D02*
X52439500Y14205000D01*
G04 #@! TO.C,R8*
X55307180Y37342980D02*
X55307180Y35742980D01*
X54507180Y37342980D02*
X55307180Y37342980D01*
X54507180Y35742980D02*
X54507180Y37342980D01*
X55307180Y35742980D02*
X54507180Y35742980D01*
G04 #@! TO.C,R9*
X52947620Y35744220D02*
X52947620Y37344220D01*
X53747620Y35744220D02*
X52947620Y35744220D01*
X53747620Y37344220D02*
X53747620Y35744220D01*
X52947620Y37344220D02*
X53747620Y37344220D01*
G04 #@! TO.C,R10*
X55253760Y45660360D02*
X53653760Y45660360D01*
X55253760Y46460360D02*
X55253760Y45660360D01*
X53653760Y46460360D02*
X55253760Y46460360D01*
X53653760Y45660360D02*
X53653760Y46460360D01*
G04 #@! TO.C,R4*
X14835000Y28390800D02*
X16435000Y28390800D01*
X14835000Y27590800D02*
X14835000Y28390800D01*
X16435000Y27590800D02*
X14835000Y27590800D01*
X16435000Y28390800D02*
X16435000Y27590800D01*
G04 #@! TO.C,R11*
X55252520Y44100800D02*
X53652520Y44100800D01*
X55252520Y44900800D02*
X55252520Y44100800D01*
X53652520Y44900800D02*
X55252520Y44900800D01*
X53652520Y44100800D02*
X53652520Y44900800D01*
G04 #@! TO.C,R1*
X4229000Y18396000D02*
X2629000Y18396000D01*
X4229000Y19196000D02*
X4229000Y18396000D01*
X2629000Y19196000D02*
X4229000Y19196000D01*
X2629000Y18396000D02*
X2629000Y19196000D01*
G04 #@! TO.C,R2*
X29565700Y36874400D02*
X31165700Y36874400D01*
X29565700Y36074400D02*
X29565700Y36874400D01*
X31165700Y36074400D02*
X29565700Y36074400D01*
X31165700Y36874400D02*
X31165700Y36074400D01*
G04 #@! TO.C,R22*
X50903000Y23831500D02*
X52503000Y23831500D01*
X50903000Y23031500D02*
X50903000Y23831500D01*
X52503000Y23031500D02*
X50903000Y23031500D01*
X52503000Y23831500D02*
X52503000Y23031500D01*
G04 #@! TO.C,R19*
X55267760Y39310360D02*
X53667760Y39310360D01*
X55267760Y40110360D02*
X55267760Y39310360D01*
X53667760Y40110360D02*
X55267760Y40110360D01*
X53667760Y39310360D02*
X53667760Y40110360D01*
G04 #@! TO.C,R20*
X58013700Y44816980D02*
X59613700Y44816980D01*
X58013700Y44016980D02*
X58013700Y44816980D01*
X59613700Y44016980D02*
X58013700Y44016980D01*
X59613700Y44816980D02*
X59613700Y44016980D01*
G04 #@! TO.C,R3*
X29564400Y38398400D02*
X31164400Y38398400D01*
X29564400Y37598400D02*
X29564400Y38398400D01*
X31164400Y37598400D02*
X29564400Y37598400D01*
X31164400Y38398400D02*
X31164400Y37598400D01*
G04 #@! TO.C,C12*
X14433500Y35077300D02*
X14433500Y33477300D01*
X13633500Y35077300D02*
X14433500Y35077300D01*
X13633500Y33477300D02*
X13633500Y35077300D01*
X14433500Y33477300D02*
X13633500Y33477300D01*
G04 #@! TO.C,RN6*
X71640800Y11100000D02*
X71640800Y14300000D01*
X73240800Y11100000D02*
X71640800Y11100000D01*
X73240800Y14300000D02*
X73240800Y11100000D01*
X71640800Y14300000D02*
X73240800Y14300000D01*
G04 #@! TO.C,RN5*
X71640800Y18720000D02*
X71640800Y21920000D01*
X73240800Y18720000D02*
X71640800Y18720000D01*
X73240800Y21920000D02*
X73240800Y18720000D01*
X71640800Y21920000D02*
X73240800Y21920000D01*
G04 #@! TO.C,RN4*
X71640800Y28880000D02*
X71640800Y32080000D01*
X73240800Y28880000D02*
X71640800Y28880000D01*
X73240800Y32080000D02*
X73240800Y28880000D01*
X71640800Y32080000D02*
X73240800Y32080000D01*
G04 #@! TO.C,R16*
X70186500Y42138500D02*
X70186500Y40538500D01*
X69386500Y42138500D02*
X70186500Y42138500D01*
X69386500Y40538500D02*
X69386500Y42138500D01*
X70186500Y40538500D02*
X69386500Y40538500D01*
G04 #@! TO.C,R7*
X16662500Y21037500D02*
X18262500Y21037500D01*
X16662500Y20237500D02*
X16662500Y21037500D01*
X18262500Y20237500D02*
X16662500Y20237500D01*
X18262500Y21037500D02*
X18262500Y20237500D01*
G04 #@! TO.C,R18*
X55257600Y40956280D02*
X53657600Y40956280D01*
X55257600Y41756280D02*
X55257600Y40956280D01*
X53657600Y41756280D02*
X55257600Y41756280D01*
X53657600Y40956280D02*
X53657600Y41756280D01*
G04 #@! TO.C,C6*
X18764200Y30187800D02*
X18764200Y28587800D01*
X17964200Y30187800D02*
X18764200Y30187800D01*
X17964200Y28587800D02*
X17964200Y30187800D01*
X18764200Y28587800D02*
X17964200Y28587800D01*
G04 #@! TO.C,R17*
X86031000Y48114000D02*
X84431000Y48114000D01*
X86031000Y48914000D02*
X86031000Y48114000D01*
X84431000Y48914000D02*
X86031000Y48914000D01*
X84431000Y48114000D02*
X84431000Y48914000D01*
G04 #@! TO.C,Q1*
X71896500Y39755000D02*
X73296500Y39755000D01*
X73296500Y42795000D02*
X73296500Y39755000D01*
X71896500Y42225000D02*
X72446500Y42795000D01*
X72446500Y42795000D02*
X73296500Y42795000D01*
X71896500Y42225000D02*
X71896500Y39775000D01*
G04 #@! TO.C,C2*
X8344000Y35896500D02*
X9944000Y35896500D01*
X8344000Y35096500D02*
X8344000Y35896500D01*
X9944000Y35096500D02*
X8344000Y35096500D01*
X9944000Y35896500D02*
X9944000Y35096500D01*
G04 #@! TO.C,C4*
X3544700Y39744600D02*
X5144700Y39744600D01*
X3544700Y38944600D02*
X3544700Y39744600D01*
X5144700Y38944600D02*
X3544700Y38944600D01*
X5144700Y39744600D02*
X5144700Y38944600D01*
G04 #@! TO.C,C10*
X17399100Y38271400D02*
X18999100Y38271400D01*
X17399100Y37471400D02*
X17399100Y38271400D01*
X18999100Y37471400D02*
X17399100Y37471400D01*
X18999100Y38271400D02*
X18999100Y37471400D01*
G04 #@! TO.C,C9*
X16497400Y24085500D02*
X18097400Y24085500D01*
X16497400Y23285500D02*
X16497400Y24085500D01*
X18097400Y23285500D02*
X16497400Y23285500D01*
X18097400Y24085500D02*
X18097400Y23285500D01*
G04 #@! TO.C,C8*
X31492700Y30845200D02*
X29492700Y30845200D01*
X31492700Y32045200D02*
X31492700Y30845200D01*
X29492700Y32045200D02*
X31492700Y32045200D01*
X29492700Y30845200D02*
X29492700Y32045200D01*
G04 #@! TO.C,R15*
X80367000Y2686000D02*
X81967000Y2686000D01*
X80367000Y1886000D02*
X80367000Y2686000D01*
X81967000Y1886000D02*
X80367000Y1886000D01*
X81967000Y2686000D02*
X81967000Y1886000D01*
G04 #@! TO.C,R14*
X69925000Y44278500D02*
X71525000Y44278500D01*
X69925000Y43478500D02*
X69925000Y44278500D01*
X71525000Y43478500D02*
X69925000Y43478500D01*
X71525000Y44278500D02*
X71525000Y43478500D01*
G04 #@! TO.C,R13*
X80353000Y48114000D02*
X80353000Y48914000D01*
X80353000Y48914000D02*
X81953000Y48914000D01*
X81953000Y48914000D02*
X81953000Y48114000D01*
X81953000Y48114000D02*
X80353000Y48114000D01*
G04 #@! TO.C,R12*
X84431000Y2686000D02*
X86031000Y2686000D01*
X84431000Y1886000D02*
X84431000Y2686000D01*
X86031000Y1886000D02*
X84431000Y1886000D01*
X86031000Y2686000D02*
X86031000Y1886000D01*
G04 #@! TD*
G04 #@! TO.C,U5*
D12*
X9205047Y25673810D02*
X9205047Y25269048D01*
X9228857Y25221429D01*
X9252666Y25197620D01*
X9300285Y25173810D01*
X9395523Y25173810D01*
X9443142Y25197620D01*
X9466952Y25221429D01*
X9490761Y25269048D01*
X9490761Y25673810D01*
X9966952Y25673810D02*
X9728857Y25673810D01*
X9705047Y25435715D01*
X9728857Y25459524D01*
X9776476Y25483334D01*
X9895523Y25483334D01*
X9943142Y25459524D01*
X9966952Y25435715D01*
X9990761Y25388096D01*
X9990761Y25269048D01*
X9966952Y25221429D01*
X9943142Y25197620D01*
X9895523Y25173810D01*
X9776476Y25173810D01*
X9728857Y25197620D01*
X9705047Y25221429D01*
G04 #@! TO.C,U8*
X58506407Y41244010D02*
X58506407Y40839248D01*
X58530217Y40791629D01*
X58554026Y40767820D01*
X58601645Y40744010D01*
X58696883Y40744010D01*
X58744502Y40767820D01*
X58768312Y40791629D01*
X58792121Y40839248D01*
X58792121Y41244010D01*
X59101645Y41029724D02*
X59054026Y41053534D01*
X59030217Y41077343D01*
X59006407Y41124962D01*
X59006407Y41148772D01*
X59030217Y41196391D01*
X59054026Y41220200D01*
X59101645Y41244010D01*
X59196883Y41244010D01*
X59244502Y41220200D01*
X59268312Y41196391D01*
X59292121Y41148772D01*
X59292121Y41124962D01*
X59268312Y41077343D01*
X59244502Y41053534D01*
X59196883Y41029724D01*
X59101645Y41029724D01*
X59054026Y41005915D01*
X59030217Y40982105D01*
X59006407Y40934486D01*
X59006407Y40839248D01*
X59030217Y40791629D01*
X59054026Y40767820D01*
X59101645Y40744010D01*
X59196883Y40744010D01*
X59244502Y40767820D01*
X59268312Y40791629D01*
X59292121Y40839248D01*
X59292121Y40934486D01*
X59268312Y40982105D01*
X59244502Y41005915D01*
X59196883Y41029724D01*
G04 #@! TO.C,H4*
D11*
X75738095Y4627620D02*
X75738095Y5627620D01*
X75738095Y5151429D02*
X76309523Y5151429D01*
X76309523Y4627620D02*
X76309523Y5627620D01*
X77214285Y5294286D02*
X77214285Y4627620D01*
X76976190Y5675239D02*
X76738095Y4960953D01*
X77357142Y4960953D01*
G04 #@! TO.C,H3*
X75738095Y45267620D02*
X75738095Y46267620D01*
X75738095Y45791429D02*
X76309523Y45791429D01*
X76309523Y45267620D02*
X76309523Y46267620D01*
X76690476Y46267620D02*
X77309523Y46267620D01*
X76976190Y45886667D01*
X77119047Y45886667D01*
X77214285Y45839048D01*
X77261904Y45791429D01*
X77309523Y45696191D01*
X77309523Y45458096D01*
X77261904Y45362858D01*
X77214285Y45315239D01*
X77119047Y45267620D01*
X76833333Y45267620D01*
X76738095Y45315239D01*
X76690476Y45362858D01*
G04 #@! TO.C,H2*
X13508095Y4627620D02*
X13508095Y5627620D01*
X13508095Y5151429D02*
X14079523Y5151429D01*
X14079523Y4627620D02*
X14079523Y5627620D01*
X14508095Y5532381D02*
X14555714Y5580000D01*
X14650952Y5627620D01*
X14889047Y5627620D01*
X14984285Y5580000D01*
X15031904Y5532381D01*
X15079523Y5437143D01*
X15079523Y5341905D01*
X15031904Y5199048D01*
X14460476Y4627620D01*
X15079523Y4627620D01*
G04 #@! TO.C,H1*
X13508095Y45267620D02*
X13508095Y46267620D01*
X13508095Y45791429D02*
X14079523Y45791429D01*
X14079523Y45267620D02*
X14079523Y46267620D01*
X15079523Y45267620D02*
X14508095Y45267620D01*
X14793809Y45267620D02*
X14793809Y46267620D01*
X14698571Y46124762D01*
X14603333Y46029524D01*
X14508095Y45981905D01*
G04 #@! TO.C,U7*
X24638095Y25947620D02*
X24638095Y25138096D01*
X24685714Y25042858D01*
X24733333Y24995239D01*
X24828571Y24947620D01*
X25019047Y24947620D01*
X25114285Y24995239D01*
X25161904Y25042858D01*
X25209523Y25138096D01*
X25209523Y25947620D01*
X25590476Y25947620D02*
X26257142Y25947620D01*
X25828571Y24947620D01*
G04 #@! TO.C,R32*
D13*
X29924352Y40484458D02*
X29733876Y40351124D01*
X29924352Y40255886D02*
X29524352Y40255886D01*
X29524352Y40408267D01*
X29543400Y40446362D01*
X29562447Y40465410D01*
X29600542Y40484458D01*
X29657685Y40484458D01*
X29695780Y40465410D01*
X29714828Y40446362D01*
X29733876Y40408267D01*
X29733876Y40255886D01*
X29524352Y40617791D02*
X29524352Y40865410D01*
X29676733Y40732077D01*
X29676733Y40789220D01*
X29695780Y40827315D01*
X29714828Y40846362D01*
X29752923Y40865410D01*
X29848161Y40865410D01*
X29886257Y40846362D01*
X29905304Y40827315D01*
X29924352Y40789220D01*
X29924352Y40674934D01*
X29905304Y40636839D01*
X29886257Y40617791D01*
X29562447Y41017791D02*
X29543400Y41036839D01*
X29524352Y41074934D01*
X29524352Y41170172D01*
X29543400Y41208267D01*
X29562447Y41227315D01*
X29600542Y41246362D01*
X29638638Y41246362D01*
X29695780Y41227315D01*
X29924352Y40998743D01*
X29924352Y41246362D01*
G04 #@! TO.C,R33*
X31435652Y40484458D02*
X31245176Y40351124D01*
X31435652Y40255886D02*
X31035652Y40255886D01*
X31035652Y40408267D01*
X31054700Y40446362D01*
X31073747Y40465410D01*
X31111842Y40484458D01*
X31168985Y40484458D01*
X31207080Y40465410D01*
X31226128Y40446362D01*
X31245176Y40408267D01*
X31245176Y40255886D01*
X31035652Y40617791D02*
X31035652Y40865410D01*
X31188033Y40732077D01*
X31188033Y40789220D01*
X31207080Y40827315D01*
X31226128Y40846362D01*
X31264223Y40865410D01*
X31359461Y40865410D01*
X31397557Y40846362D01*
X31416604Y40827315D01*
X31435652Y40789220D01*
X31435652Y40674934D01*
X31416604Y40636839D01*
X31397557Y40617791D01*
X31035652Y40998743D02*
X31035652Y41246362D01*
X31188033Y41113029D01*
X31188033Y41170172D01*
X31207080Y41208267D01*
X31226128Y41227315D01*
X31264223Y41246362D01*
X31359461Y41246362D01*
X31397557Y41227315D01*
X31416604Y41208267D01*
X31435652Y41170172D01*
X31435652Y41055886D01*
X31416604Y41017791D01*
X31397557Y40998743D01*
G04 #@! TO.C,R34*
X54187757Y42770448D02*
X54054423Y42960924D01*
X53959185Y42770448D02*
X53959185Y43170448D01*
X54111566Y43170448D01*
X54149661Y43151400D01*
X54168709Y43132353D01*
X54187757Y43094258D01*
X54187757Y43037115D01*
X54168709Y42999020D01*
X54149661Y42979972D01*
X54111566Y42960924D01*
X53959185Y42960924D01*
X54321090Y43170448D02*
X54568709Y43170448D01*
X54435376Y43018067D01*
X54492519Y43018067D01*
X54530614Y42999020D01*
X54549661Y42979972D01*
X54568709Y42941877D01*
X54568709Y42846639D01*
X54549661Y42808543D01*
X54530614Y42789496D01*
X54492519Y42770448D01*
X54378233Y42770448D01*
X54340138Y42789496D01*
X54321090Y42808543D01*
X54911566Y43037115D02*
X54911566Y42770448D01*
X54816328Y43189496D02*
X54721090Y42903781D01*
X54968709Y42903781D01*
G04 #@! TO.C,Q3*
D12*
X35700340Y39558471D02*
X35652721Y39582280D01*
X35605102Y39629900D01*
X35533674Y39701328D01*
X35486055Y39725138D01*
X35438436Y39725138D01*
X35462245Y39606090D02*
X35414626Y39629900D01*
X35367007Y39677519D01*
X35343198Y39772757D01*
X35343198Y39939423D01*
X35367007Y40034661D01*
X35414626Y40082280D01*
X35462245Y40106090D01*
X35557483Y40106090D01*
X35605102Y40082280D01*
X35652721Y40034661D01*
X35676531Y39939423D01*
X35676531Y39772757D01*
X35652721Y39677519D01*
X35605102Y39629900D01*
X35557483Y39606090D01*
X35462245Y39606090D01*
X35843198Y40106090D02*
X36152721Y40106090D01*
X35986055Y39915614D01*
X36057483Y39915614D01*
X36105102Y39891804D01*
X36128912Y39867995D01*
X36152721Y39820376D01*
X36152721Y39701328D01*
X36128912Y39653709D01*
X36105102Y39629900D01*
X36057483Y39606090D01*
X35914626Y39606090D01*
X35867007Y39629900D01*
X35843198Y39653709D01*
G04 #@! TO.C,Q2*
X36604580Y33025591D02*
X36556961Y33049400D01*
X36509342Y33097020D01*
X36437914Y33168448D01*
X36390295Y33192258D01*
X36342676Y33192258D01*
X36366485Y33073210D02*
X36318866Y33097020D01*
X36271247Y33144639D01*
X36247438Y33239877D01*
X36247438Y33406543D01*
X36271247Y33501781D01*
X36318866Y33549400D01*
X36366485Y33573210D01*
X36461723Y33573210D01*
X36509342Y33549400D01*
X36556961Y33501781D01*
X36580771Y33406543D01*
X36580771Y33239877D01*
X36556961Y33144639D01*
X36509342Y33097020D01*
X36461723Y33073210D01*
X36366485Y33073210D01*
X36771247Y33525591D02*
X36795057Y33549400D01*
X36842676Y33573210D01*
X36961723Y33573210D01*
X37009342Y33549400D01*
X37033152Y33525591D01*
X37056961Y33477972D01*
X37056961Y33430353D01*
X37033152Y33358924D01*
X36747438Y33073210D01*
X37056961Y33073210D01*
G04 #@! TO.C,R28*
D13*
X36293457Y30629248D02*
X36160123Y30819724D01*
X36064885Y30629248D02*
X36064885Y31029248D01*
X36217266Y31029248D01*
X36255361Y31010200D01*
X36274409Y30991153D01*
X36293457Y30953058D01*
X36293457Y30895915D01*
X36274409Y30857820D01*
X36255361Y30838772D01*
X36217266Y30819724D01*
X36064885Y30819724D01*
X36445838Y30991153D02*
X36464885Y31010200D01*
X36502980Y31029248D01*
X36598219Y31029248D01*
X36636314Y31010200D01*
X36655361Y30991153D01*
X36674409Y30953058D01*
X36674409Y30914962D01*
X36655361Y30857820D01*
X36426790Y30629248D01*
X36674409Y30629248D01*
X36902980Y30857820D02*
X36864885Y30876867D01*
X36845838Y30895915D01*
X36826790Y30934010D01*
X36826790Y30953058D01*
X36845838Y30991153D01*
X36864885Y31010200D01*
X36902980Y31029248D01*
X36979171Y31029248D01*
X37017266Y31010200D01*
X37036314Y30991153D01*
X37055361Y30953058D01*
X37055361Y30934010D01*
X37036314Y30895915D01*
X37017266Y30876867D01*
X36979171Y30857820D01*
X36902980Y30857820D01*
X36864885Y30838772D01*
X36845838Y30819724D01*
X36826790Y30781629D01*
X36826790Y30705439D01*
X36845838Y30667343D01*
X36864885Y30648296D01*
X36902980Y30629248D01*
X36979171Y30629248D01*
X37017266Y30648296D01*
X37036314Y30667343D01*
X37055361Y30705439D01*
X37055361Y30781629D01*
X37036314Y30819724D01*
X37017266Y30838772D01*
X36979171Y30857820D01*
G04 #@! TO.C,R29*
X35516217Y37146888D02*
X35382883Y37337364D01*
X35287645Y37146888D02*
X35287645Y37546888D01*
X35440026Y37546888D01*
X35478121Y37527840D01*
X35497169Y37508793D01*
X35516217Y37470698D01*
X35516217Y37413555D01*
X35497169Y37375460D01*
X35478121Y37356412D01*
X35440026Y37337364D01*
X35287645Y37337364D01*
X35668598Y37508793D02*
X35687645Y37527840D01*
X35725740Y37546888D01*
X35820979Y37546888D01*
X35859074Y37527840D01*
X35878121Y37508793D01*
X35897169Y37470698D01*
X35897169Y37432602D01*
X35878121Y37375460D01*
X35649550Y37146888D01*
X35897169Y37146888D01*
X36087645Y37146888D02*
X36163836Y37146888D01*
X36201931Y37165936D01*
X36220979Y37184983D01*
X36259074Y37242126D01*
X36278121Y37318317D01*
X36278121Y37470698D01*
X36259074Y37508793D01*
X36240026Y37527840D01*
X36201931Y37546888D01*
X36125740Y37546888D01*
X36087645Y37527840D01*
X36068598Y37508793D01*
X36049550Y37470698D01*
X36049550Y37375460D01*
X36068598Y37337364D01*
X36087645Y37318317D01*
X36125740Y37299269D01*
X36201931Y37299269D01*
X36240026Y37318317D01*
X36259074Y37337364D01*
X36278121Y37375460D01*
G04 #@! TO.C,R30*
X35518757Y35633048D02*
X35385423Y35823524D01*
X35290185Y35633048D02*
X35290185Y36033048D01*
X35442566Y36033048D01*
X35480661Y36014000D01*
X35499709Y35994953D01*
X35518757Y35956858D01*
X35518757Y35899715D01*
X35499709Y35861620D01*
X35480661Y35842572D01*
X35442566Y35823524D01*
X35290185Y35823524D01*
X35652090Y36033048D02*
X35899709Y36033048D01*
X35766376Y35880667D01*
X35823519Y35880667D01*
X35861614Y35861620D01*
X35880661Y35842572D01*
X35899709Y35804477D01*
X35899709Y35709239D01*
X35880661Y35671143D01*
X35861614Y35652096D01*
X35823519Y35633048D01*
X35709233Y35633048D01*
X35671138Y35652096D01*
X35652090Y35671143D01*
X36147328Y36033048D02*
X36185423Y36033048D01*
X36223519Y36014000D01*
X36242566Y35994953D01*
X36261614Y35956858D01*
X36280661Y35880667D01*
X36280661Y35785429D01*
X36261614Y35709239D01*
X36242566Y35671143D01*
X36223519Y35652096D01*
X36185423Y35633048D01*
X36147328Y35633048D01*
X36109233Y35652096D01*
X36090185Y35671143D01*
X36071138Y35709239D01*
X36052090Y35785429D01*
X36052090Y35880667D01*
X36071138Y35956858D01*
X36090185Y35994953D01*
X36109233Y36014000D01*
X36147328Y36033048D01*
G04 #@! TO.C,R27*
X36415377Y28129888D02*
X36282043Y28320364D01*
X36186805Y28129888D02*
X36186805Y28529888D01*
X36339186Y28529888D01*
X36377281Y28510840D01*
X36396329Y28491793D01*
X36415377Y28453698D01*
X36415377Y28396555D01*
X36396329Y28358460D01*
X36377281Y28339412D01*
X36339186Y28320364D01*
X36186805Y28320364D01*
X36567758Y28491793D02*
X36586805Y28510840D01*
X36624900Y28529888D01*
X36720139Y28529888D01*
X36758234Y28510840D01*
X36777281Y28491793D01*
X36796329Y28453698D01*
X36796329Y28415602D01*
X36777281Y28358460D01*
X36548710Y28129888D01*
X36796329Y28129888D01*
X36929662Y28529888D02*
X37196329Y28529888D01*
X37024900Y28129888D01*
G04 #@! TO.C,R31*
X36389977Y42191328D02*
X36256643Y42381804D01*
X36161405Y42191328D02*
X36161405Y42591328D01*
X36313786Y42591328D01*
X36351881Y42572280D01*
X36370929Y42553233D01*
X36389977Y42515138D01*
X36389977Y42457995D01*
X36370929Y42419900D01*
X36351881Y42400852D01*
X36313786Y42381804D01*
X36161405Y42381804D01*
X36523310Y42591328D02*
X36770929Y42591328D01*
X36637596Y42438947D01*
X36694739Y42438947D01*
X36732834Y42419900D01*
X36751881Y42400852D01*
X36770929Y42362757D01*
X36770929Y42267519D01*
X36751881Y42229423D01*
X36732834Y42210376D01*
X36694739Y42191328D01*
X36580453Y42191328D01*
X36542358Y42210376D01*
X36523310Y42229423D01*
X37151881Y42191328D02*
X36923310Y42191328D01*
X37037596Y42191328D02*
X37037596Y42591328D01*
X36999500Y42534185D01*
X36961405Y42496090D01*
X36923310Y42477042D01*
G04 #@! TO.C,J2*
D11*
X36242666Y14009620D02*
X36242666Y13295334D01*
X36195047Y13152477D01*
X36099809Y13057239D01*
X35956952Y13009620D01*
X35861714Y13009620D01*
X36671238Y13914381D02*
X36718857Y13962000D01*
X36814095Y14009620D01*
X37052190Y14009620D01*
X37147428Y13962000D01*
X37195047Y13914381D01*
X37242666Y13819143D01*
X37242666Y13723905D01*
X37195047Y13581048D01*
X36623619Y13009620D01*
X37242666Y13009620D01*
G04 #@! TO.C,R26*
D13*
X51368357Y8963048D02*
X51235023Y9153524D01*
X51139785Y8963048D02*
X51139785Y9363048D01*
X51292166Y9363048D01*
X51330261Y9344000D01*
X51349309Y9324953D01*
X51368357Y9286858D01*
X51368357Y9229715D01*
X51349309Y9191620D01*
X51330261Y9172572D01*
X51292166Y9153524D01*
X51139785Y9153524D01*
X51520738Y9324953D02*
X51539785Y9344000D01*
X51577880Y9363048D01*
X51673119Y9363048D01*
X51711214Y9344000D01*
X51730261Y9324953D01*
X51749309Y9286858D01*
X51749309Y9248762D01*
X51730261Y9191620D01*
X51501690Y8963048D01*
X51749309Y8963048D01*
X52092166Y9363048D02*
X52015976Y9363048D01*
X51977880Y9344000D01*
X51958833Y9324953D01*
X51920738Y9267810D01*
X51901690Y9191620D01*
X51901690Y9039239D01*
X51920738Y9001143D01*
X51939785Y8982096D01*
X51977880Y8963048D01*
X52054071Y8963048D01*
X52092166Y8982096D01*
X52111214Y9001143D01*
X52130261Y9039239D01*
X52130261Y9134477D01*
X52111214Y9172572D01*
X52092166Y9191620D01*
X52054071Y9210667D01*
X51977880Y9210667D01*
X51939785Y9191620D01*
X51920738Y9172572D01*
X51901690Y9134477D01*
G04 #@! TO.C,C26*
X26787457Y32002158D02*
X26806504Y31983110D01*
X26825552Y31925967D01*
X26825552Y31887872D01*
X26806504Y31830729D01*
X26768409Y31792634D01*
X26730314Y31773586D01*
X26654123Y31754539D01*
X26596980Y31754539D01*
X26520790Y31773586D01*
X26482695Y31792634D01*
X26444600Y31830729D01*
X26425552Y31887872D01*
X26425552Y31925967D01*
X26444600Y31983110D01*
X26463647Y32002158D01*
X26463647Y32154539D02*
X26444600Y32173586D01*
X26425552Y32211681D01*
X26425552Y32306920D01*
X26444600Y32345015D01*
X26463647Y32364062D01*
X26501742Y32383110D01*
X26539838Y32383110D01*
X26596980Y32364062D01*
X26825552Y32135491D01*
X26825552Y32383110D01*
X26425552Y32725967D02*
X26425552Y32649777D01*
X26444600Y32611681D01*
X26463647Y32592634D01*
X26520790Y32554539D01*
X26596980Y32535491D01*
X26749361Y32535491D01*
X26787457Y32554539D01*
X26806504Y32573586D01*
X26825552Y32611681D01*
X26825552Y32687872D01*
X26806504Y32725967D01*
X26787457Y32745015D01*
X26749361Y32764062D01*
X26654123Y32764062D01*
X26616028Y32745015D01*
X26596980Y32725967D01*
X26577933Y32687872D01*
X26577933Y32611681D01*
X26596980Y32573586D01*
X26616028Y32554539D01*
X26654123Y32535491D01*
G04 #@! TO.C,R6*
X13446133Y25981048D02*
X13312800Y26171524D01*
X13217561Y25981048D02*
X13217561Y26381048D01*
X13369942Y26381048D01*
X13408038Y26362000D01*
X13427085Y26342953D01*
X13446133Y26304858D01*
X13446133Y26247715D01*
X13427085Y26209620D01*
X13408038Y26190572D01*
X13369942Y26171524D01*
X13217561Y26171524D01*
X13788990Y26381048D02*
X13712800Y26381048D01*
X13674704Y26362000D01*
X13655657Y26342953D01*
X13617561Y26285810D01*
X13598514Y26209620D01*
X13598514Y26057239D01*
X13617561Y26019143D01*
X13636609Y26000096D01*
X13674704Y25981048D01*
X13750895Y25981048D01*
X13788990Y26000096D01*
X13808038Y26019143D01*
X13827085Y26057239D01*
X13827085Y26152477D01*
X13808038Y26190572D01*
X13788990Y26209620D01*
X13750895Y26228667D01*
X13674704Y26228667D01*
X13636609Y26209620D01*
X13617561Y26190572D01*
X13598514Y26152477D01*
G04 #@! TO.C,R5*
X13446133Y24457048D02*
X13312800Y24647524D01*
X13217561Y24457048D02*
X13217561Y24857048D01*
X13369942Y24857048D01*
X13408038Y24838000D01*
X13427085Y24818953D01*
X13446133Y24780858D01*
X13446133Y24723715D01*
X13427085Y24685620D01*
X13408038Y24666572D01*
X13369942Y24647524D01*
X13217561Y24647524D01*
X13808038Y24857048D02*
X13617561Y24857048D01*
X13598514Y24666572D01*
X13617561Y24685620D01*
X13655657Y24704667D01*
X13750895Y24704667D01*
X13788990Y24685620D01*
X13808038Y24666572D01*
X13827085Y24628477D01*
X13827085Y24533239D01*
X13808038Y24495143D01*
X13788990Y24476096D01*
X13750895Y24457048D01*
X13655657Y24457048D01*
X13617561Y24476096D01*
X13598514Y24495143D01*
G04 #@! TO.C,C25*
X15377857Y29321143D02*
X15358809Y29302096D01*
X15301666Y29283048D01*
X15263571Y29283048D01*
X15206428Y29302096D01*
X15168333Y29340191D01*
X15149285Y29378286D01*
X15130238Y29454477D01*
X15130238Y29511620D01*
X15149285Y29587810D01*
X15168333Y29625905D01*
X15206428Y29664000D01*
X15263571Y29683048D01*
X15301666Y29683048D01*
X15358809Y29664000D01*
X15377857Y29644953D01*
X15530238Y29644953D02*
X15549285Y29664000D01*
X15587380Y29683048D01*
X15682619Y29683048D01*
X15720714Y29664000D01*
X15739761Y29644953D01*
X15758809Y29606858D01*
X15758809Y29568762D01*
X15739761Y29511620D01*
X15511190Y29283048D01*
X15758809Y29283048D01*
X16120714Y29683048D02*
X15930238Y29683048D01*
X15911190Y29492572D01*
X15930238Y29511620D01*
X15968333Y29530667D01*
X16063571Y29530667D01*
X16101666Y29511620D01*
X16120714Y29492572D01*
X16139761Y29454477D01*
X16139761Y29359239D01*
X16120714Y29321143D01*
X16101666Y29302096D01*
X16063571Y29283048D01*
X15968333Y29283048D01*
X15930238Y29302096D01*
X15911190Y29321143D01*
G04 #@! TO.C,R25*
X8936357Y21663048D02*
X8803023Y21853524D01*
X8707785Y21663048D02*
X8707785Y22063048D01*
X8860166Y22063048D01*
X8898261Y22044000D01*
X8917309Y22024953D01*
X8936357Y21986858D01*
X8936357Y21929715D01*
X8917309Y21891620D01*
X8898261Y21872572D01*
X8860166Y21853524D01*
X8707785Y21853524D01*
X9088738Y22024953D02*
X9107785Y22044000D01*
X9145880Y22063048D01*
X9241119Y22063048D01*
X9279214Y22044000D01*
X9298261Y22024953D01*
X9317309Y21986858D01*
X9317309Y21948762D01*
X9298261Y21891620D01*
X9069690Y21663048D01*
X9317309Y21663048D01*
X9679214Y22063048D02*
X9488738Y22063048D01*
X9469690Y21872572D01*
X9488738Y21891620D01*
X9526833Y21910667D01*
X9622071Y21910667D01*
X9660166Y21891620D01*
X9679214Y21872572D01*
X9698261Y21834477D01*
X9698261Y21739239D01*
X9679214Y21701143D01*
X9660166Y21682096D01*
X9622071Y21663048D01*
X9526833Y21663048D01*
X9488738Y21682096D01*
X9469690Y21701143D01*
G04 #@! TO.C,R24*
X8626452Y30794358D02*
X8435976Y30661024D01*
X8626452Y30565786D02*
X8226452Y30565786D01*
X8226452Y30718167D01*
X8245500Y30756262D01*
X8264547Y30775310D01*
X8302642Y30794358D01*
X8359785Y30794358D01*
X8397880Y30775310D01*
X8416928Y30756262D01*
X8435976Y30718167D01*
X8435976Y30565786D01*
X8264547Y30946739D02*
X8245500Y30965786D01*
X8226452Y31003881D01*
X8226452Y31099120D01*
X8245500Y31137215D01*
X8264547Y31156262D01*
X8302642Y31175310D01*
X8340738Y31175310D01*
X8397880Y31156262D01*
X8626452Y30927691D01*
X8626452Y31175310D01*
X8359785Y31518167D02*
X8626452Y31518167D01*
X8207404Y31422929D02*
X8493119Y31327691D01*
X8493119Y31575310D01*
G04 #@! TO.C,C24*
X69891257Y37447858D02*
X69910304Y37428810D01*
X69929352Y37371667D01*
X69929352Y37333572D01*
X69910304Y37276429D01*
X69872209Y37238334D01*
X69834114Y37219286D01*
X69757923Y37200239D01*
X69700780Y37200239D01*
X69624590Y37219286D01*
X69586495Y37238334D01*
X69548400Y37276429D01*
X69529352Y37333572D01*
X69529352Y37371667D01*
X69548400Y37428810D01*
X69567447Y37447858D01*
X69567447Y37600239D02*
X69548400Y37619286D01*
X69529352Y37657381D01*
X69529352Y37752620D01*
X69548400Y37790715D01*
X69567447Y37809762D01*
X69605542Y37828810D01*
X69643638Y37828810D01*
X69700780Y37809762D01*
X69929352Y37581191D01*
X69929352Y37828810D01*
X69662685Y38171667D02*
X69929352Y38171667D01*
X69510304Y38076429D02*
X69796019Y37981191D01*
X69796019Y38228810D01*
G04 #@! TO.C,RN7*
D12*
X27213690Y13116762D02*
X26975595Y12950096D01*
X27213690Y12831048D02*
X26713690Y12831048D01*
X26713690Y13021524D01*
X26737500Y13069143D01*
X26761309Y13092953D01*
X26808928Y13116762D01*
X26880357Y13116762D01*
X26927976Y13092953D01*
X26951785Y13069143D01*
X26975595Y13021524D01*
X26975595Y12831048D01*
X27213690Y13331048D02*
X26713690Y13331048D01*
X27213690Y13616762D01*
X26713690Y13616762D01*
X26713690Y13807239D02*
X26713690Y14140572D01*
X27213690Y13926286D01*
G04 #@! TO.C,RN8*
X35357690Y23657762D02*
X35119595Y23491096D01*
X35357690Y23372048D02*
X34857690Y23372048D01*
X34857690Y23562524D01*
X34881500Y23610143D01*
X34905309Y23633953D01*
X34952928Y23657762D01*
X35024357Y23657762D01*
X35071976Y23633953D01*
X35095785Y23610143D01*
X35119595Y23562524D01*
X35119595Y23372048D01*
X35357690Y23872048D02*
X34857690Y23872048D01*
X35357690Y24157762D01*
X34857690Y24157762D01*
X35071976Y24467286D02*
X35048166Y24419667D01*
X35024357Y24395858D01*
X34976738Y24372048D01*
X34952928Y24372048D01*
X34905309Y24395858D01*
X34881500Y24419667D01*
X34857690Y24467286D01*
X34857690Y24562524D01*
X34881500Y24610143D01*
X34905309Y24633953D01*
X34952928Y24657762D01*
X34976738Y24657762D01*
X35024357Y24633953D01*
X35048166Y24610143D01*
X35071976Y24562524D01*
X35071976Y24467286D01*
X35095785Y24419667D01*
X35119595Y24395858D01*
X35167214Y24372048D01*
X35262452Y24372048D01*
X35310071Y24395858D01*
X35333880Y24419667D01*
X35357690Y24467286D01*
X35357690Y24562524D01*
X35333880Y24610143D01*
X35310071Y24633953D01*
X35262452Y24657762D01*
X35167214Y24657762D01*
X35119595Y24633953D01*
X35095785Y24610143D01*
X35071976Y24562524D01*
G04 #@! TO.C,SW1*
D14*
X51297964Y34609313D02*
X51259869Y34533122D01*
X51221774Y34495027D01*
X51145583Y34456932D01*
X50917012Y34456932D01*
X50840821Y34495027D01*
X50802726Y34533122D01*
X50764631Y34609313D01*
X50764631Y34723599D01*
X50802726Y34799789D01*
X50840821Y34837884D01*
X50917012Y34875980D01*
X51145583Y34875980D01*
X51221774Y34837884D01*
X51259869Y34799789D01*
X51297964Y34723599D01*
X51297964Y34609313D01*
X50764631Y35218837D02*
X51297964Y35218837D01*
X50840821Y35218837D02*
X50802726Y35256932D01*
X50764631Y35333122D01*
X50764631Y35447408D01*
X50802726Y35523599D01*
X50878917Y35561694D01*
X51297964Y35561694D01*
X44561893Y32799551D02*
X44676179Y32761456D01*
X44866655Y32761456D01*
X44942845Y32799551D01*
X44980940Y32837646D01*
X45019036Y32913837D01*
X45019036Y32990027D01*
X44980940Y33066218D01*
X44942845Y33104313D01*
X44866655Y33142408D01*
X44714274Y33180503D01*
X44638083Y33218599D01*
X44599988Y33256694D01*
X44561893Y33332884D01*
X44561893Y33409075D01*
X44599988Y33485265D01*
X44638083Y33523360D01*
X44714274Y33561456D01*
X44904750Y33561456D01*
X45019036Y33523360D01*
X45285702Y33561456D02*
X45476179Y32761456D01*
X45628560Y33332884D01*
X45780940Y32761456D01*
X45971417Y33561456D01*
X46695226Y32761456D02*
X46238083Y32761456D01*
X46466655Y32761456D02*
X46466655Y33561456D01*
X46390464Y33447170D01*
X46314274Y33370980D01*
X46238083Y33332884D01*
G04 #@! TO.C,U1*
D12*
X67741847Y12973810D02*
X67741847Y12569048D01*
X67765657Y12521429D01*
X67789466Y12497620D01*
X67837085Y12473810D01*
X67932323Y12473810D01*
X67979942Y12497620D01*
X68003752Y12521429D01*
X68027561Y12569048D01*
X68027561Y12973810D01*
X68527561Y12473810D02*
X68241847Y12473810D01*
X68384704Y12473810D02*
X68384704Y12973810D01*
X68337085Y12902381D01*
X68289466Y12854762D01*
X68241847Y12830953D01*
G04 #@! TO.C,R23*
D13*
X72183657Y36649048D02*
X72050323Y36839524D01*
X71955085Y36649048D02*
X71955085Y37049048D01*
X72107466Y37049048D01*
X72145561Y37030000D01*
X72164609Y37010953D01*
X72183657Y36972858D01*
X72183657Y36915715D01*
X72164609Y36877620D01*
X72145561Y36858572D01*
X72107466Y36839524D01*
X71955085Y36839524D01*
X72336038Y37010953D02*
X72355085Y37030000D01*
X72393180Y37049048D01*
X72488419Y37049048D01*
X72526514Y37030000D01*
X72545561Y37010953D01*
X72564609Y36972858D01*
X72564609Y36934762D01*
X72545561Y36877620D01*
X72316990Y36649048D01*
X72564609Y36649048D01*
X72697942Y37049048D02*
X72945561Y37049048D01*
X72812228Y36896667D01*
X72869371Y36896667D01*
X72907466Y36877620D01*
X72926514Y36858572D01*
X72945561Y36820477D01*
X72945561Y36725239D01*
X72926514Y36687143D01*
X72907466Y36668096D01*
X72869371Y36649048D01*
X72755085Y36649048D01*
X72716990Y36668096D01*
X72697942Y36687143D01*
G04 #@! TO.C,C14*
X57705657Y36979243D02*
X57686609Y36960196D01*
X57629466Y36941148D01*
X57591371Y36941148D01*
X57534228Y36960196D01*
X57496133Y36998291D01*
X57477085Y37036386D01*
X57458038Y37112577D01*
X57458038Y37169720D01*
X57477085Y37245910D01*
X57496133Y37284005D01*
X57534228Y37322100D01*
X57591371Y37341148D01*
X57629466Y37341148D01*
X57686609Y37322100D01*
X57705657Y37303053D01*
X58086609Y36941148D02*
X57858038Y36941148D01*
X57972323Y36941148D02*
X57972323Y37341148D01*
X57934228Y37284005D01*
X57896133Y37245910D01*
X57858038Y37226862D01*
X58429466Y37207815D02*
X58429466Y36941148D01*
X58334228Y37360196D02*
X58238990Y37074481D01*
X58486609Y37074481D01*
G04 #@! TO.C,C17*
X58556557Y45854003D02*
X58537509Y45834956D01*
X58480366Y45815908D01*
X58442271Y45815908D01*
X58385128Y45834956D01*
X58347033Y45873051D01*
X58327985Y45911146D01*
X58308938Y45987337D01*
X58308938Y46044480D01*
X58327985Y46120670D01*
X58347033Y46158765D01*
X58385128Y46196860D01*
X58442271Y46215908D01*
X58480366Y46215908D01*
X58537509Y46196860D01*
X58556557Y46177813D01*
X58937509Y45815908D02*
X58708938Y45815908D01*
X58823223Y45815908D02*
X58823223Y46215908D01*
X58785128Y46158765D01*
X58747033Y46120670D01*
X58708938Y46101622D01*
X59070842Y46215908D02*
X59337509Y46215908D01*
X59166080Y45815908D01*
G04 #@! TO.C,C18*
X63134857Y45448858D02*
X63153904Y45429810D01*
X63172952Y45372667D01*
X63172952Y45334572D01*
X63153904Y45277429D01*
X63115809Y45239334D01*
X63077714Y45220286D01*
X63001523Y45201239D01*
X62944380Y45201239D01*
X62868190Y45220286D01*
X62830095Y45239334D01*
X62792000Y45277429D01*
X62772952Y45334572D01*
X62772952Y45372667D01*
X62792000Y45429810D01*
X62811047Y45448858D01*
X63172952Y45829810D02*
X63172952Y45601239D01*
X63172952Y45715524D02*
X62772952Y45715524D01*
X62830095Y45677429D01*
X62868190Y45639334D01*
X62887238Y45601239D01*
X62944380Y46058381D02*
X62925333Y46020286D01*
X62906285Y46001239D01*
X62868190Y45982191D01*
X62849142Y45982191D01*
X62811047Y46001239D01*
X62792000Y46020286D01*
X62772952Y46058381D01*
X62772952Y46134572D01*
X62792000Y46172667D01*
X62811047Y46191715D01*
X62849142Y46210762D01*
X62868190Y46210762D01*
X62906285Y46191715D01*
X62925333Y46172667D01*
X62944380Y46134572D01*
X62944380Y46058381D01*
X62963428Y46020286D01*
X62982476Y46001239D01*
X63020571Y45982191D01*
X63096761Y45982191D01*
X63134857Y46001239D01*
X63153904Y46020286D01*
X63172952Y46058381D01*
X63172952Y46134572D01*
X63153904Y46172667D01*
X63134857Y46191715D01*
X63096761Y46210762D01*
X63020571Y46210762D01*
X62982476Y46191715D01*
X62963428Y46172667D01*
X62944380Y46134572D01*
G04 #@! TO.C,C19*
X63037117Y30631783D02*
X63018069Y30612736D01*
X62960926Y30593688D01*
X62922831Y30593688D01*
X62865688Y30612736D01*
X62827593Y30650831D01*
X62808545Y30688926D01*
X62789498Y30765117D01*
X62789498Y30822260D01*
X62808545Y30898450D01*
X62827593Y30936545D01*
X62865688Y30974640D01*
X62922831Y30993688D01*
X62960926Y30993688D01*
X63018069Y30974640D01*
X63037117Y30955593D01*
X63418069Y30593688D02*
X63189498Y30593688D01*
X63303783Y30593688D02*
X63303783Y30993688D01*
X63265688Y30936545D01*
X63227593Y30898450D01*
X63189498Y30879402D01*
X63608545Y30593688D02*
X63684736Y30593688D01*
X63722831Y30612736D01*
X63741879Y30631783D01*
X63779974Y30688926D01*
X63799021Y30765117D01*
X63799021Y30917498D01*
X63779974Y30955593D01*
X63760926Y30974640D01*
X63722831Y30993688D01*
X63646640Y30993688D01*
X63608545Y30974640D01*
X63589498Y30955593D01*
X63570450Y30917498D01*
X63570450Y30822260D01*
X63589498Y30784164D01*
X63608545Y30765117D01*
X63646640Y30746069D01*
X63722831Y30746069D01*
X63760926Y30765117D01*
X63779974Y30784164D01*
X63799021Y30822260D01*
G04 #@! TO.C,C20*
X63035817Y16095363D02*
X63016769Y16076316D01*
X62959626Y16057268D01*
X62921531Y16057268D01*
X62864388Y16076316D01*
X62826293Y16114411D01*
X62807245Y16152506D01*
X62788198Y16228697D01*
X62788198Y16285840D01*
X62807245Y16362030D01*
X62826293Y16400125D01*
X62864388Y16438220D01*
X62921531Y16457268D01*
X62959626Y16457268D01*
X63016769Y16438220D01*
X63035817Y16419173D01*
X63188198Y16419173D02*
X63207245Y16438220D01*
X63245340Y16457268D01*
X63340579Y16457268D01*
X63378674Y16438220D01*
X63397721Y16419173D01*
X63416769Y16381078D01*
X63416769Y16342982D01*
X63397721Y16285840D01*
X63169150Y16057268D01*
X63416769Y16057268D01*
X63664388Y16457268D02*
X63702483Y16457268D01*
X63740579Y16438220D01*
X63759626Y16419173D01*
X63778674Y16381078D01*
X63797721Y16304887D01*
X63797721Y16209649D01*
X63778674Y16133459D01*
X63759626Y16095363D01*
X63740579Y16076316D01*
X63702483Y16057268D01*
X63664388Y16057268D01*
X63626293Y16076316D01*
X63607245Y16095363D01*
X63588198Y16133459D01*
X63569150Y16209649D01*
X63569150Y16304887D01*
X63588198Y16381078D01*
X63607245Y16419173D01*
X63626293Y16438220D01*
X63664388Y16457268D01*
G04 #@! TO.C,C21*
X42327257Y9623443D02*
X42308209Y9604396D01*
X42251066Y9585348D01*
X42212971Y9585348D01*
X42155828Y9604396D01*
X42117733Y9642491D01*
X42098685Y9680586D01*
X42079638Y9756777D01*
X42079638Y9813920D01*
X42098685Y9890110D01*
X42117733Y9928205D01*
X42155828Y9966300D01*
X42212971Y9985348D01*
X42251066Y9985348D01*
X42308209Y9966300D01*
X42327257Y9947253D01*
X42479638Y9947253D02*
X42498685Y9966300D01*
X42536780Y9985348D01*
X42632019Y9985348D01*
X42670114Y9966300D01*
X42689161Y9947253D01*
X42708209Y9909158D01*
X42708209Y9871062D01*
X42689161Y9813920D01*
X42460590Y9585348D01*
X42708209Y9585348D01*
X43089161Y9585348D02*
X42860590Y9585348D01*
X42974876Y9585348D02*
X42974876Y9985348D01*
X42936780Y9928205D01*
X42898685Y9890110D01*
X42860590Y9871062D01*
G04 #@! TO.C,C22*
X63038357Y23250543D02*
X63019309Y23231496D01*
X62962166Y23212448D01*
X62924071Y23212448D01*
X62866928Y23231496D01*
X62828833Y23269591D01*
X62809785Y23307686D01*
X62790738Y23383877D01*
X62790738Y23441020D01*
X62809785Y23517210D01*
X62828833Y23555305D01*
X62866928Y23593400D01*
X62924071Y23612448D01*
X62962166Y23612448D01*
X63019309Y23593400D01*
X63038357Y23574353D01*
X63190738Y23574353D02*
X63209785Y23593400D01*
X63247880Y23612448D01*
X63343119Y23612448D01*
X63381214Y23593400D01*
X63400261Y23574353D01*
X63419309Y23536258D01*
X63419309Y23498162D01*
X63400261Y23441020D01*
X63171690Y23212448D01*
X63419309Y23212448D01*
X63571690Y23574353D02*
X63590738Y23593400D01*
X63628833Y23612448D01*
X63724071Y23612448D01*
X63762166Y23593400D01*
X63781214Y23574353D01*
X63800261Y23536258D01*
X63800261Y23498162D01*
X63781214Y23441020D01*
X63552642Y23212448D01*
X63800261Y23212448D01*
G04 #@! TO.C,C23*
X63035817Y8980823D02*
X63016769Y8961776D01*
X62959626Y8942728D01*
X62921531Y8942728D01*
X62864388Y8961776D01*
X62826293Y8999871D01*
X62807245Y9037966D01*
X62788198Y9114157D01*
X62788198Y9171300D01*
X62807245Y9247490D01*
X62826293Y9285585D01*
X62864388Y9323680D01*
X62921531Y9342728D01*
X62959626Y9342728D01*
X63016769Y9323680D01*
X63035817Y9304633D01*
X63188198Y9304633D02*
X63207245Y9323680D01*
X63245340Y9342728D01*
X63340579Y9342728D01*
X63378674Y9323680D01*
X63397721Y9304633D01*
X63416769Y9266538D01*
X63416769Y9228442D01*
X63397721Y9171300D01*
X63169150Y8942728D01*
X63416769Y8942728D01*
X63550102Y9342728D02*
X63797721Y9342728D01*
X63664388Y9190347D01*
X63721531Y9190347D01*
X63759626Y9171300D01*
X63778674Y9152252D01*
X63797721Y9114157D01*
X63797721Y9018919D01*
X63778674Y8980823D01*
X63759626Y8961776D01*
X63721531Y8942728D01*
X63607245Y8942728D01*
X63569150Y8961776D01*
X63550102Y8980823D01*
G04 #@! TO.C,C11*
X21783657Y33105758D02*
X21802704Y33086710D01*
X21821752Y33029567D01*
X21821752Y32991472D01*
X21802704Y32934329D01*
X21764609Y32896234D01*
X21726514Y32877186D01*
X21650323Y32858139D01*
X21593180Y32858139D01*
X21516990Y32877186D01*
X21478895Y32896234D01*
X21440800Y32934329D01*
X21421752Y32991472D01*
X21421752Y33029567D01*
X21440800Y33086710D01*
X21459847Y33105758D01*
X21821752Y33486710D02*
X21821752Y33258139D01*
X21821752Y33372424D02*
X21421752Y33372424D01*
X21478895Y33334329D01*
X21516990Y33296234D01*
X21536038Y33258139D01*
X21821752Y33867662D02*
X21821752Y33639091D01*
X21821752Y33753377D02*
X21421752Y33753377D01*
X21478895Y33715281D01*
X21516990Y33677186D01*
X21536038Y33639091D01*
G04 #@! TO.C,C7*
D15*
X20477966Y40728129D02*
X20454157Y40704320D01*
X20382728Y40680510D01*
X20335109Y40680510D01*
X20263680Y40704320D01*
X20216061Y40751939D01*
X20192252Y40799558D01*
X20168442Y40894796D01*
X20168442Y40966224D01*
X20192252Y41061462D01*
X20216061Y41109081D01*
X20263680Y41156700D01*
X20335109Y41180510D01*
X20382728Y41180510D01*
X20454157Y41156700D01*
X20477966Y41132891D01*
X20644633Y41180510D02*
X20977966Y41180510D01*
X20763680Y40680510D01*
G04 #@! TO.C,C1*
X8879166Y33539929D02*
X8855357Y33516120D01*
X8783928Y33492310D01*
X8736309Y33492310D01*
X8664880Y33516120D01*
X8617261Y33563739D01*
X8593452Y33611358D01*
X8569642Y33706596D01*
X8569642Y33778024D01*
X8593452Y33873262D01*
X8617261Y33920881D01*
X8664880Y33968500D01*
X8736309Y33992310D01*
X8783928Y33992310D01*
X8855357Y33968500D01*
X8879166Y33944691D01*
X9355357Y33492310D02*
X9069642Y33492310D01*
X9212500Y33492310D02*
X9212500Y33992310D01*
X9164880Y33920881D01*
X9117261Y33873262D01*
X9069642Y33849453D01*
G04 #@! TO.C,C3*
X4111366Y37349929D02*
X4087557Y37326120D01*
X4016128Y37302310D01*
X3968509Y37302310D01*
X3897080Y37326120D01*
X3849461Y37373739D01*
X3825652Y37421358D01*
X3801842Y37516596D01*
X3801842Y37588024D01*
X3825652Y37683262D01*
X3849461Y37730881D01*
X3897080Y37778500D01*
X3968509Y37802310D01*
X4016128Y37802310D01*
X4087557Y37778500D01*
X4111366Y37754691D01*
X4278033Y37802310D02*
X4587557Y37802310D01*
X4420890Y37611834D01*
X4492319Y37611834D01*
X4539938Y37588024D01*
X4563747Y37564215D01*
X4587557Y37516596D01*
X4587557Y37397548D01*
X4563747Y37349929D01*
X4539938Y37326120D01*
X4492319Y37302310D01*
X4349461Y37302310D01*
X4301842Y37326120D01*
X4278033Y37349929D01*
G04 #@! TO.C,C5*
X12116571Y30599867D02*
X12140380Y30576058D01*
X12164190Y30504629D01*
X12164190Y30457010D01*
X12140380Y30385581D01*
X12092761Y30337962D01*
X12045142Y30314153D01*
X11949904Y30290343D01*
X11878476Y30290343D01*
X11783238Y30314153D01*
X11735619Y30337962D01*
X11688000Y30385581D01*
X11664190Y30457010D01*
X11664190Y30504629D01*
X11688000Y30576058D01*
X11711809Y30599867D01*
X11664190Y31052248D02*
X11664190Y30814153D01*
X11902285Y30790343D01*
X11878476Y30814153D01*
X11854666Y30861772D01*
X11854666Y30980820D01*
X11878476Y31028439D01*
X11902285Y31052248D01*
X11949904Y31076058D01*
X12068952Y31076058D01*
X12116571Y31052248D01*
X12140380Y31028439D01*
X12164190Y30980820D01*
X12164190Y30861772D01*
X12140380Y30814153D01*
X12116571Y30790343D01*
G04 #@! TO.C,C16*
X65139071Y45534572D02*
X65162880Y45510762D01*
X65186690Y45439334D01*
X65186690Y45391715D01*
X65162880Y45320286D01*
X65115261Y45272667D01*
X65067642Y45248858D01*
X64972404Y45225048D01*
X64900976Y45225048D01*
X64805738Y45248858D01*
X64758119Y45272667D01*
X64710500Y45320286D01*
X64686690Y45391715D01*
X64686690Y45439334D01*
X64710500Y45510762D01*
X64734309Y45534572D01*
X65186690Y46010762D02*
X65186690Y45725048D01*
X65186690Y45867905D02*
X64686690Y45867905D01*
X64758119Y45820286D01*
X64805738Y45772667D01*
X64829547Y45725048D01*
X64686690Y46439334D02*
X64686690Y46344096D01*
X64710500Y46296477D01*
X64734309Y46272667D01*
X64805738Y46225048D01*
X64900976Y46201239D01*
X65091452Y46201239D01*
X65139071Y46225048D01*
X65162880Y46248858D01*
X65186690Y46296477D01*
X65186690Y46391715D01*
X65162880Y46439334D01*
X65139071Y46463143D01*
X65091452Y46486953D01*
X64972404Y46486953D01*
X64924785Y46463143D01*
X64900976Y46439334D01*
X64877166Y46391715D01*
X64877166Y46296477D01*
X64900976Y46248858D01*
X64924785Y46225048D01*
X64972404Y46201239D01*
G04 #@! TO.C,C13*
X62268871Y41690172D02*
X62292680Y41666362D01*
X62316490Y41594934D01*
X62316490Y41547315D01*
X62292680Y41475886D01*
X62245061Y41428267D01*
X62197442Y41404458D01*
X62102204Y41380648D01*
X62030776Y41380648D01*
X61935538Y41404458D01*
X61887919Y41428267D01*
X61840300Y41475886D01*
X61816490Y41547315D01*
X61816490Y41594934D01*
X61840300Y41666362D01*
X61864109Y41690172D01*
X62316490Y42166362D02*
X62316490Y41880648D01*
X62316490Y42023505D02*
X61816490Y42023505D01*
X61887919Y41975886D01*
X61935538Y41928267D01*
X61959347Y41880648D01*
X61816490Y42333029D02*
X61816490Y42642553D01*
X62006966Y42475886D01*
X62006966Y42547315D01*
X62030776Y42594934D01*
X62054585Y42618743D01*
X62102204Y42642553D01*
X62221252Y42642553D01*
X62268871Y42618743D01*
X62292680Y42594934D01*
X62316490Y42547315D01*
X62316490Y42404458D01*
X62292680Y42356839D01*
X62268871Y42333029D01*
G04 #@! TO.C,Y1*
D16*
X17520666Y34567667D02*
X17520666Y34234334D01*
X17287333Y34934334D02*
X17520666Y34567667D01*
X17754000Y34934334D01*
X18354000Y34234334D02*
X17954000Y34234334D01*
X18154000Y34234334D02*
X18154000Y34934334D01*
X18087333Y34834334D01*
X18020666Y34767667D01*
X17954000Y34734334D01*
G04 #@! TO.C,FB2*
D13*
X9940928Y30718167D02*
X9940928Y30584834D01*
X10150452Y30584834D02*
X9750452Y30584834D01*
X9750452Y30775310D01*
X9940928Y31061024D02*
X9959976Y31118167D01*
X9979023Y31137215D01*
X10017119Y31156262D01*
X10074261Y31156262D01*
X10112357Y31137215D01*
X10131404Y31118167D01*
X10150452Y31080072D01*
X10150452Y30927691D01*
X9750452Y30927691D01*
X9750452Y31061024D01*
X9769500Y31099120D01*
X9788547Y31118167D01*
X9826642Y31137215D01*
X9864738Y31137215D01*
X9902833Y31118167D01*
X9921880Y31099120D01*
X9940928Y31061024D01*
X9940928Y30927691D01*
X9788547Y31308643D02*
X9769500Y31327691D01*
X9750452Y31365786D01*
X9750452Y31461024D01*
X9769500Y31499120D01*
X9788547Y31518167D01*
X9826642Y31537215D01*
X9864738Y31537215D01*
X9921880Y31518167D01*
X10150452Y31289596D01*
X10150452Y31537215D01*
G04 #@! TO.C,FB1*
X11896728Y34121767D02*
X11896728Y33988434D01*
X12106252Y33988434D02*
X11706252Y33988434D01*
X11706252Y34178910D01*
X11896728Y34464624D02*
X11915776Y34521767D01*
X11934823Y34540815D01*
X11972919Y34559862D01*
X12030061Y34559862D01*
X12068157Y34540815D01*
X12087204Y34521767D01*
X12106252Y34483672D01*
X12106252Y34331291D01*
X11706252Y34331291D01*
X11706252Y34464624D01*
X11725300Y34502720D01*
X11744347Y34521767D01*
X11782442Y34540815D01*
X11820538Y34540815D01*
X11858633Y34521767D01*
X11877680Y34502720D01*
X11896728Y34464624D01*
X11896728Y34331291D01*
X12106252Y34940815D02*
X12106252Y34712243D01*
X12106252Y34826529D02*
X11706252Y34826529D01*
X11763395Y34788434D01*
X11801490Y34750339D01*
X11820538Y34712243D01*
G04 #@! TO.C,FB3*
X16213466Y40935272D02*
X16080133Y40935272D01*
X16080133Y40725748D02*
X16080133Y41125748D01*
X16270609Y41125748D01*
X16556323Y40935272D02*
X16613466Y40916224D01*
X16632514Y40897177D01*
X16651561Y40859081D01*
X16651561Y40801939D01*
X16632514Y40763843D01*
X16613466Y40744796D01*
X16575371Y40725748D01*
X16422990Y40725748D01*
X16422990Y41125748D01*
X16556323Y41125748D01*
X16594419Y41106700D01*
X16613466Y41087653D01*
X16632514Y41049558D01*
X16632514Y41011462D01*
X16613466Y40973367D01*
X16594419Y40954320D01*
X16556323Y40935272D01*
X16422990Y40935272D01*
X16784895Y41125748D02*
X17032514Y41125748D01*
X16899180Y40973367D01*
X16956323Y40973367D01*
X16994419Y40954320D01*
X17013466Y40935272D01*
X17032514Y40897177D01*
X17032514Y40801939D01*
X17013466Y40763843D01*
X16994419Y40744796D01*
X16956323Y40725748D01*
X16842038Y40725748D01*
X16803942Y40744796D01*
X16784895Y40763843D01*
G04 #@! TO.C,U6*
D11*
X25131780Y38404896D02*
X25941304Y38404896D01*
X26036542Y38452515D01*
X26084161Y38500134D01*
X26131780Y38595372D01*
X26131780Y38785848D01*
X26084161Y38881086D01*
X26036542Y38928705D01*
X25941304Y38976324D01*
X25131780Y38976324D01*
X25131780Y39881086D02*
X25131780Y39690610D01*
X25179400Y39595372D01*
X25227019Y39547753D01*
X25369876Y39452515D01*
X25560352Y39404896D01*
X25941304Y39404896D01*
X26036542Y39452515D01*
X26084161Y39500134D01*
X26131780Y39595372D01*
X26131780Y39785848D01*
X26084161Y39881086D01*
X26036542Y39928705D01*
X25941304Y39976324D01*
X25703209Y39976324D01*
X25607971Y39928705D01*
X25560352Y39881086D01*
X25512733Y39785848D01*
X25512733Y39595372D01*
X25560352Y39500134D01*
X25607971Y39452515D01*
X25703209Y39404896D01*
G04 #@! TO.C,U9*
X56984976Y29267096D02*
X56984976Y28619477D01*
X57023071Y28543286D01*
X57061166Y28505191D01*
X57137357Y28467096D01*
X57289738Y28467096D01*
X57365928Y28505191D01*
X57404023Y28543286D01*
X57442119Y28619477D01*
X57442119Y29267096D01*
X57861166Y28467096D02*
X58013547Y28467096D01*
X58089738Y28505191D01*
X58127833Y28543286D01*
X58204023Y28657572D01*
X58242119Y28809953D01*
X58242119Y29114715D01*
X58204023Y29190905D01*
X58165928Y29229000D01*
X58089738Y29267096D01*
X57937357Y29267096D01*
X57861166Y29229000D01*
X57823071Y29190905D01*
X57784976Y29114715D01*
X57784976Y28924239D01*
X57823071Y28848048D01*
X57861166Y28809953D01*
X57937357Y28771858D01*
X58089738Y28771858D01*
X58165928Y28809953D01*
X58204023Y28848048D01*
X58242119Y28924239D01*
G04 #@! TO.C,U13*
X56569523Y7613596D02*
X56569523Y6965977D01*
X56607619Y6889786D01*
X56645714Y6851691D01*
X56721904Y6813596D01*
X56874285Y6813596D01*
X56950476Y6851691D01*
X56988571Y6889786D01*
X57026666Y6965977D01*
X57026666Y7613596D01*
X57826666Y6813596D02*
X57369523Y6813596D01*
X57598095Y6813596D02*
X57598095Y7613596D01*
X57521904Y7499310D01*
X57445714Y7423120D01*
X57369523Y7385024D01*
X58093333Y7613596D02*
X58588571Y7613596D01*
X58321904Y7308834D01*
X58436190Y7308834D01*
X58512380Y7270739D01*
X58550476Y7232643D01*
X58588571Y7156453D01*
X58588571Y6965977D01*
X58550476Y6889786D01*
X58512380Y6851691D01*
X58436190Y6813596D01*
X58207619Y6813596D01*
X58131428Y6851691D01*
X58093333Y6889786D01*
G04 #@! TO.C,U11*
X56540523Y14725596D02*
X56540523Y14077977D01*
X56578619Y14001786D01*
X56616714Y13963691D01*
X56692904Y13925596D01*
X56845285Y13925596D01*
X56921476Y13963691D01*
X56959571Y14001786D01*
X56997666Y14077977D01*
X56997666Y14725596D01*
X57797666Y13925596D02*
X57340523Y13925596D01*
X57569095Y13925596D02*
X57569095Y14725596D01*
X57492904Y14611310D01*
X57416714Y14535120D01*
X57340523Y14497024D01*
X58559571Y13925596D02*
X58102428Y13925596D01*
X58331000Y13925596D02*
X58331000Y14725596D01*
X58254809Y14611310D01*
X58178619Y14535120D01*
X58102428Y14497024D01*
G04 #@! TO.C,U12*
X56604023Y21901096D02*
X56604023Y21253477D01*
X56642119Y21177286D01*
X56680214Y21139191D01*
X56756404Y21101096D01*
X56908785Y21101096D01*
X56984976Y21139191D01*
X57023071Y21177286D01*
X57061166Y21253477D01*
X57061166Y21901096D01*
X57861166Y21101096D02*
X57404023Y21101096D01*
X57632595Y21101096D02*
X57632595Y21901096D01*
X57556404Y21786810D01*
X57480214Y21710620D01*
X57404023Y21672524D01*
X58165928Y21824905D02*
X58204023Y21863000D01*
X58280214Y21901096D01*
X58470690Y21901096D01*
X58546880Y21863000D01*
X58584976Y21824905D01*
X58623071Y21748715D01*
X58623071Y21672524D01*
X58584976Y21558239D01*
X58127833Y21101096D01*
X58623071Y21101096D01*
G04 #@! TO.C,U10*
X35669343Y7923476D02*
X35669343Y7275857D01*
X35707439Y7199666D01*
X35745534Y7161571D01*
X35821724Y7123476D01*
X35974105Y7123476D01*
X36050296Y7161571D01*
X36088391Y7199666D01*
X36126486Y7275857D01*
X36126486Y7923476D01*
X36926486Y7123476D02*
X36469343Y7123476D01*
X36697915Y7123476D02*
X36697915Y7923476D01*
X36621724Y7809190D01*
X36545534Y7733000D01*
X36469343Y7694904D01*
X37421724Y7923476D02*
X37497915Y7923476D01*
X37574105Y7885380D01*
X37612200Y7847285D01*
X37650296Y7771095D01*
X37688391Y7618714D01*
X37688391Y7428238D01*
X37650296Y7275857D01*
X37612200Y7199666D01*
X37574105Y7161571D01*
X37497915Y7123476D01*
X37421724Y7123476D01*
X37345534Y7161571D01*
X37307439Y7199666D01*
X37269343Y7275857D01*
X37231248Y7428238D01*
X37231248Y7618714D01*
X37269343Y7771095D01*
X37307439Y7847285D01*
X37345534Y7885380D01*
X37421724Y7923476D01*
G04 #@! TO.C,U4*
D12*
X8616190Y38100048D02*
X9020952Y38100048D01*
X9068571Y38123858D01*
X9092380Y38147667D01*
X9116190Y38195286D01*
X9116190Y38290524D01*
X9092380Y38338143D01*
X9068571Y38361953D01*
X9020952Y38385762D01*
X8616190Y38385762D01*
X8782857Y38838143D02*
X9116190Y38838143D01*
X8592380Y38719096D02*
X8949523Y38600048D01*
X8949523Y38909572D01*
G04 #@! TO.C,U3*
X67741847Y20593810D02*
X67741847Y20189048D01*
X67765657Y20141429D01*
X67789466Y20117620D01*
X67837085Y20093810D01*
X67932323Y20093810D01*
X67979942Y20117620D01*
X68003752Y20141429D01*
X68027561Y20189048D01*
X68027561Y20593810D01*
X68218038Y20593810D02*
X68527561Y20593810D01*
X68360895Y20403334D01*
X68432323Y20403334D01*
X68479942Y20379524D01*
X68503752Y20355715D01*
X68527561Y20308096D01*
X68527561Y20189048D01*
X68503752Y20141429D01*
X68479942Y20117620D01*
X68432323Y20093810D01*
X68289466Y20093810D01*
X68241847Y20117620D01*
X68218038Y20141429D01*
G04 #@! TO.C,U2*
X67741847Y30753810D02*
X67741847Y30349048D01*
X67765657Y30301429D01*
X67789466Y30277620D01*
X67837085Y30253810D01*
X67932323Y30253810D01*
X67979942Y30277620D01*
X68003752Y30301429D01*
X68027561Y30349048D01*
X68027561Y30753810D01*
X68241847Y30706191D02*
X68265657Y30730000D01*
X68313276Y30753810D01*
X68432323Y30753810D01*
X68479942Y30730000D01*
X68503752Y30706191D01*
X68527561Y30658572D01*
X68527561Y30610953D01*
X68503752Y30539524D01*
X68218038Y30253810D01*
X68527561Y30253810D01*
G04 #@! TO.C,R21*
D13*
X51382357Y14424048D02*
X51249023Y14614524D01*
X51153785Y14424048D02*
X51153785Y14824048D01*
X51306166Y14824048D01*
X51344261Y14805000D01*
X51363309Y14785953D01*
X51382357Y14747858D01*
X51382357Y14690715D01*
X51363309Y14652620D01*
X51344261Y14633572D01*
X51306166Y14614524D01*
X51153785Y14614524D01*
X51534738Y14785953D02*
X51553785Y14805000D01*
X51591880Y14824048D01*
X51687119Y14824048D01*
X51725214Y14805000D01*
X51744261Y14785953D01*
X51763309Y14747858D01*
X51763309Y14709762D01*
X51744261Y14652620D01*
X51515690Y14424048D01*
X51763309Y14424048D01*
X52144261Y14424048D02*
X51915690Y14424048D01*
X52029976Y14424048D02*
X52029976Y14824048D01*
X51991880Y14766905D01*
X51953785Y14728810D01*
X51915690Y14709762D01*
G04 #@! TO.C,R8*
X55088132Y36476314D02*
X54897656Y36342980D01*
X55088132Y36247742D02*
X54688132Y36247742D01*
X54688132Y36400123D01*
X54707180Y36438219D01*
X54726227Y36457266D01*
X54764322Y36476314D01*
X54821465Y36476314D01*
X54859560Y36457266D01*
X54878608Y36438219D01*
X54897656Y36400123D01*
X54897656Y36247742D01*
X54859560Y36704885D02*
X54840513Y36666790D01*
X54821465Y36647742D01*
X54783370Y36628695D01*
X54764322Y36628695D01*
X54726227Y36647742D01*
X54707180Y36666790D01*
X54688132Y36704885D01*
X54688132Y36781076D01*
X54707180Y36819171D01*
X54726227Y36838219D01*
X54764322Y36857266D01*
X54783370Y36857266D01*
X54821465Y36838219D01*
X54840513Y36819171D01*
X54859560Y36781076D01*
X54859560Y36704885D01*
X54878608Y36666790D01*
X54897656Y36647742D01*
X54935751Y36628695D01*
X55011941Y36628695D01*
X55050037Y36647742D01*
X55069084Y36666790D01*
X55088132Y36704885D01*
X55088132Y36781076D01*
X55069084Y36819171D01*
X55050037Y36838219D01*
X55011941Y36857266D01*
X54935751Y36857266D01*
X54897656Y36838219D01*
X54878608Y36819171D01*
X54859560Y36781076D01*
G04 #@! TO.C,R9*
X53528572Y36477554D02*
X53338096Y36344220D01*
X53528572Y36248982D02*
X53128572Y36248982D01*
X53128572Y36401363D01*
X53147620Y36439459D01*
X53166667Y36458506D01*
X53204762Y36477554D01*
X53261905Y36477554D01*
X53300000Y36458506D01*
X53319048Y36439459D01*
X53338096Y36401363D01*
X53338096Y36248982D01*
X53528572Y36668030D02*
X53528572Y36744220D01*
X53509524Y36782316D01*
X53490477Y36801363D01*
X53433334Y36839459D01*
X53357143Y36858506D01*
X53204762Y36858506D01*
X53166667Y36839459D01*
X53147620Y36820411D01*
X53128572Y36782316D01*
X53128572Y36706125D01*
X53147620Y36668030D01*
X53166667Y36648982D01*
X53204762Y36629935D01*
X53300000Y36629935D01*
X53338096Y36648982D01*
X53357143Y36668030D01*
X53376191Y36706125D01*
X53376191Y36782316D01*
X53357143Y36820411D01*
X53338096Y36839459D01*
X53300000Y36858506D01*
G04 #@! TO.C,R10*
X54196617Y45879408D02*
X54063283Y46069884D01*
X53968045Y45879408D02*
X53968045Y46279408D01*
X54120426Y46279408D01*
X54158521Y46260360D01*
X54177569Y46241313D01*
X54196617Y46203218D01*
X54196617Y46146075D01*
X54177569Y46107980D01*
X54158521Y46088932D01*
X54120426Y46069884D01*
X53968045Y46069884D01*
X54577569Y45879408D02*
X54348998Y45879408D01*
X54463283Y45879408D02*
X54463283Y46279408D01*
X54425188Y46222265D01*
X54387093Y46184170D01*
X54348998Y46165122D01*
X54825188Y46279408D02*
X54863283Y46279408D01*
X54901379Y46260360D01*
X54920426Y46241313D01*
X54939474Y46203218D01*
X54958521Y46127027D01*
X54958521Y46031789D01*
X54939474Y45955599D01*
X54920426Y45917503D01*
X54901379Y45898456D01*
X54863283Y45879408D01*
X54825188Y45879408D01*
X54787093Y45898456D01*
X54768045Y45917503D01*
X54748998Y45955599D01*
X54729950Y46031789D01*
X54729950Y46127027D01*
X54748998Y46203218D01*
X54768045Y46241313D01*
X54787093Y46260360D01*
X54825188Y46279408D01*
G04 #@! TO.C,R4*
X15568333Y27809848D02*
X15435000Y28000324D01*
X15339761Y27809848D02*
X15339761Y28209848D01*
X15492142Y28209848D01*
X15530238Y28190800D01*
X15549285Y28171753D01*
X15568333Y28133658D01*
X15568333Y28076515D01*
X15549285Y28038420D01*
X15530238Y28019372D01*
X15492142Y28000324D01*
X15339761Y28000324D01*
X15911190Y28076515D02*
X15911190Y27809848D01*
X15815952Y28228896D02*
X15720714Y27943181D01*
X15968333Y27943181D01*
G04 #@! TO.C,R11*
X54195377Y44319848D02*
X54062043Y44510324D01*
X53966805Y44319848D02*
X53966805Y44719848D01*
X54119186Y44719848D01*
X54157281Y44700800D01*
X54176329Y44681753D01*
X54195377Y44643658D01*
X54195377Y44586515D01*
X54176329Y44548420D01*
X54157281Y44529372D01*
X54119186Y44510324D01*
X53966805Y44510324D01*
X54576329Y44319848D02*
X54347758Y44319848D01*
X54462043Y44319848D02*
X54462043Y44719848D01*
X54423948Y44662705D01*
X54385853Y44624610D01*
X54347758Y44605562D01*
X54957281Y44319848D02*
X54728710Y44319848D01*
X54842996Y44319848D02*
X54842996Y44719848D01*
X54804900Y44662705D01*
X54766805Y44624610D01*
X54728710Y44605562D01*
G04 #@! TO.C,R1*
X3362333Y18615048D02*
X3229000Y18805524D01*
X3133761Y18615048D02*
X3133761Y19015048D01*
X3286142Y19015048D01*
X3324238Y18996000D01*
X3343285Y18976953D01*
X3362333Y18938858D01*
X3362333Y18881715D01*
X3343285Y18843620D01*
X3324238Y18824572D01*
X3286142Y18805524D01*
X3133761Y18805524D01*
X3743285Y18615048D02*
X3514714Y18615048D01*
X3629000Y18615048D02*
X3629000Y19015048D01*
X3590904Y18957905D01*
X3552809Y18919810D01*
X3514714Y18900762D01*
G04 #@! TO.C,R2*
X30299033Y36293448D02*
X30165700Y36483924D01*
X30070461Y36293448D02*
X30070461Y36693448D01*
X30222842Y36693448D01*
X30260938Y36674400D01*
X30279985Y36655353D01*
X30299033Y36617258D01*
X30299033Y36560115D01*
X30279985Y36522020D01*
X30260938Y36502972D01*
X30222842Y36483924D01*
X30070461Y36483924D01*
X30451414Y36655353D02*
X30470461Y36674400D01*
X30508557Y36693448D01*
X30603795Y36693448D01*
X30641890Y36674400D01*
X30660938Y36655353D01*
X30679985Y36617258D01*
X30679985Y36579162D01*
X30660938Y36522020D01*
X30432366Y36293448D01*
X30679985Y36293448D01*
G04 #@! TO.C,R22*
X51445857Y23250548D02*
X51312523Y23441024D01*
X51217285Y23250548D02*
X51217285Y23650548D01*
X51369666Y23650548D01*
X51407761Y23631500D01*
X51426809Y23612453D01*
X51445857Y23574358D01*
X51445857Y23517215D01*
X51426809Y23479120D01*
X51407761Y23460072D01*
X51369666Y23441024D01*
X51217285Y23441024D01*
X51598238Y23612453D02*
X51617285Y23631500D01*
X51655380Y23650548D01*
X51750619Y23650548D01*
X51788714Y23631500D01*
X51807761Y23612453D01*
X51826809Y23574358D01*
X51826809Y23536262D01*
X51807761Y23479120D01*
X51579190Y23250548D01*
X51826809Y23250548D01*
X51979190Y23612453D02*
X51998238Y23631500D01*
X52036333Y23650548D01*
X52131571Y23650548D01*
X52169666Y23631500D01*
X52188714Y23612453D01*
X52207761Y23574358D01*
X52207761Y23536262D01*
X52188714Y23479120D01*
X51960142Y23250548D01*
X52207761Y23250548D01*
G04 #@! TO.C,R19*
X54210617Y39529408D02*
X54077283Y39719884D01*
X53982045Y39529408D02*
X53982045Y39929408D01*
X54134426Y39929408D01*
X54172521Y39910360D01*
X54191569Y39891313D01*
X54210617Y39853218D01*
X54210617Y39796075D01*
X54191569Y39757980D01*
X54172521Y39738932D01*
X54134426Y39719884D01*
X53982045Y39719884D01*
X54591569Y39529408D02*
X54362998Y39529408D01*
X54477283Y39529408D02*
X54477283Y39929408D01*
X54439188Y39872265D01*
X54401093Y39834170D01*
X54362998Y39815122D01*
X54782045Y39529408D02*
X54858236Y39529408D01*
X54896331Y39548456D01*
X54915379Y39567503D01*
X54953474Y39624646D01*
X54972521Y39700837D01*
X54972521Y39853218D01*
X54953474Y39891313D01*
X54934426Y39910360D01*
X54896331Y39929408D01*
X54820140Y39929408D01*
X54782045Y39910360D01*
X54762998Y39891313D01*
X54743950Y39853218D01*
X54743950Y39757980D01*
X54762998Y39719884D01*
X54782045Y39700837D01*
X54820140Y39681789D01*
X54896331Y39681789D01*
X54934426Y39700837D01*
X54953474Y39719884D01*
X54972521Y39757980D01*
G04 #@! TO.C,R20*
X58556557Y44236028D02*
X58423223Y44426504D01*
X58327985Y44236028D02*
X58327985Y44636028D01*
X58480366Y44636028D01*
X58518461Y44616980D01*
X58537509Y44597933D01*
X58556557Y44559838D01*
X58556557Y44502695D01*
X58537509Y44464600D01*
X58518461Y44445552D01*
X58480366Y44426504D01*
X58327985Y44426504D01*
X58708938Y44597933D02*
X58727985Y44616980D01*
X58766080Y44636028D01*
X58861319Y44636028D01*
X58899414Y44616980D01*
X58918461Y44597933D01*
X58937509Y44559838D01*
X58937509Y44521742D01*
X58918461Y44464600D01*
X58689890Y44236028D01*
X58937509Y44236028D01*
X59185128Y44636028D02*
X59223223Y44636028D01*
X59261319Y44616980D01*
X59280366Y44597933D01*
X59299414Y44559838D01*
X59318461Y44483647D01*
X59318461Y44388409D01*
X59299414Y44312219D01*
X59280366Y44274123D01*
X59261319Y44255076D01*
X59223223Y44236028D01*
X59185128Y44236028D01*
X59147033Y44255076D01*
X59127985Y44274123D01*
X59108938Y44312219D01*
X59089890Y44388409D01*
X59089890Y44483647D01*
X59108938Y44559838D01*
X59127985Y44597933D01*
X59147033Y44616980D01*
X59185128Y44636028D01*
G04 #@! TO.C,R3*
X30297733Y37817448D02*
X30164400Y38007924D01*
X30069161Y37817448D02*
X30069161Y38217448D01*
X30221542Y38217448D01*
X30259638Y38198400D01*
X30278685Y38179353D01*
X30297733Y38141258D01*
X30297733Y38084115D01*
X30278685Y38046020D01*
X30259638Y38026972D01*
X30221542Y38007924D01*
X30069161Y38007924D01*
X30431066Y38217448D02*
X30678685Y38217448D01*
X30545352Y38065067D01*
X30602495Y38065067D01*
X30640590Y38046020D01*
X30659638Y38026972D01*
X30678685Y37988877D01*
X30678685Y37893639D01*
X30659638Y37855543D01*
X30640590Y37836496D01*
X30602495Y37817448D01*
X30488209Y37817448D01*
X30450114Y37836496D01*
X30431066Y37855543D01*
G04 #@! TO.C,C12*
X14176357Y34020158D02*
X14195404Y34001110D01*
X14214452Y33943967D01*
X14214452Y33905872D01*
X14195404Y33848729D01*
X14157309Y33810634D01*
X14119214Y33791586D01*
X14043023Y33772539D01*
X13985880Y33772539D01*
X13909690Y33791586D01*
X13871595Y33810634D01*
X13833500Y33848729D01*
X13814452Y33905872D01*
X13814452Y33943967D01*
X13833500Y34001110D01*
X13852547Y34020158D01*
X14214452Y34401110D02*
X14214452Y34172539D01*
X14214452Y34286824D02*
X13814452Y34286824D01*
X13871595Y34248729D01*
X13909690Y34210634D01*
X13928738Y34172539D01*
X13852547Y34553491D02*
X13833500Y34572539D01*
X13814452Y34610634D01*
X13814452Y34705872D01*
X13833500Y34743967D01*
X13852547Y34763015D01*
X13890642Y34782062D01*
X13928738Y34782062D01*
X13985880Y34763015D01*
X14214452Y34534443D01*
X14214452Y34782062D01*
G04 #@! TO.C,RN6*
D12*
X72666990Y12354762D02*
X72428895Y12188096D01*
X72666990Y12069048D02*
X72166990Y12069048D01*
X72166990Y12259524D01*
X72190800Y12307143D01*
X72214609Y12330953D01*
X72262228Y12354762D01*
X72333657Y12354762D01*
X72381276Y12330953D01*
X72405085Y12307143D01*
X72428895Y12259524D01*
X72428895Y12069048D01*
X72666990Y12569048D02*
X72166990Y12569048D01*
X72666990Y12854762D01*
X72166990Y12854762D01*
X72166990Y13307143D02*
X72166990Y13211905D01*
X72190800Y13164286D01*
X72214609Y13140477D01*
X72286038Y13092858D01*
X72381276Y13069048D01*
X72571752Y13069048D01*
X72619371Y13092858D01*
X72643180Y13116667D01*
X72666990Y13164286D01*
X72666990Y13259524D01*
X72643180Y13307143D01*
X72619371Y13330953D01*
X72571752Y13354762D01*
X72452704Y13354762D01*
X72405085Y13330953D01*
X72381276Y13307143D01*
X72357466Y13259524D01*
X72357466Y13164286D01*
X72381276Y13116667D01*
X72405085Y13092858D01*
X72452704Y13069048D01*
G04 #@! TO.C,RN5*
X72666990Y19974762D02*
X72428895Y19808096D01*
X72666990Y19689048D02*
X72166990Y19689048D01*
X72166990Y19879524D01*
X72190800Y19927143D01*
X72214609Y19950953D01*
X72262228Y19974762D01*
X72333657Y19974762D01*
X72381276Y19950953D01*
X72405085Y19927143D01*
X72428895Y19879524D01*
X72428895Y19689048D01*
X72666990Y20189048D02*
X72166990Y20189048D01*
X72666990Y20474762D01*
X72166990Y20474762D01*
X72166990Y20950953D02*
X72166990Y20712858D01*
X72405085Y20689048D01*
X72381276Y20712858D01*
X72357466Y20760477D01*
X72357466Y20879524D01*
X72381276Y20927143D01*
X72405085Y20950953D01*
X72452704Y20974762D01*
X72571752Y20974762D01*
X72619371Y20950953D01*
X72643180Y20927143D01*
X72666990Y20879524D01*
X72666990Y20760477D01*
X72643180Y20712858D01*
X72619371Y20689048D01*
G04 #@! TO.C,RN4*
X72666990Y30134762D02*
X72428895Y29968096D01*
X72666990Y29849048D02*
X72166990Y29849048D01*
X72166990Y30039524D01*
X72190800Y30087143D01*
X72214609Y30110953D01*
X72262228Y30134762D01*
X72333657Y30134762D01*
X72381276Y30110953D01*
X72405085Y30087143D01*
X72428895Y30039524D01*
X72428895Y29849048D01*
X72666990Y30349048D02*
X72166990Y30349048D01*
X72666990Y30634762D01*
X72166990Y30634762D01*
X72333657Y31087143D02*
X72666990Y31087143D01*
X72143180Y30968096D02*
X72500323Y30849048D01*
X72500323Y31158572D01*
G04 #@! TO.C,J4*
D11*
X78192380Y25066667D02*
X78906666Y25066667D01*
X79049523Y25019048D01*
X79144761Y24923810D01*
X79192380Y24780953D01*
X79192380Y24685715D01*
X78525714Y25971429D02*
X79192380Y25971429D01*
X78144761Y25733334D02*
X78859047Y25495239D01*
X78859047Y26114286D01*
G04 #@! TO.C,R16*
D13*
X69967452Y41081358D02*
X69776976Y40948024D01*
X69967452Y40852786D02*
X69567452Y40852786D01*
X69567452Y41005167D01*
X69586500Y41043262D01*
X69605547Y41062310D01*
X69643642Y41081358D01*
X69700785Y41081358D01*
X69738880Y41062310D01*
X69757928Y41043262D01*
X69776976Y41005167D01*
X69776976Y40852786D01*
X69967452Y41462310D02*
X69967452Y41233739D01*
X69967452Y41348024D02*
X69567452Y41348024D01*
X69624595Y41309929D01*
X69662690Y41271834D01*
X69681738Y41233739D01*
X69567452Y41805167D02*
X69567452Y41728977D01*
X69586500Y41690881D01*
X69605547Y41671834D01*
X69662690Y41633739D01*
X69738880Y41614691D01*
X69891261Y41614691D01*
X69929357Y41633739D01*
X69948404Y41652786D01*
X69967452Y41690881D01*
X69967452Y41767072D01*
X69948404Y41805167D01*
X69929357Y41824215D01*
X69891261Y41843262D01*
X69796023Y41843262D01*
X69757928Y41824215D01*
X69738880Y41805167D01*
X69719833Y41767072D01*
X69719833Y41690881D01*
X69738880Y41652786D01*
X69757928Y41633739D01*
X69796023Y41614691D01*
G04 #@! TO.C,R7*
X17395833Y20456548D02*
X17262500Y20647024D01*
X17167261Y20456548D02*
X17167261Y20856548D01*
X17319642Y20856548D01*
X17357738Y20837500D01*
X17376785Y20818453D01*
X17395833Y20780358D01*
X17395833Y20723215D01*
X17376785Y20685120D01*
X17357738Y20666072D01*
X17319642Y20647024D01*
X17167261Y20647024D01*
X17529166Y20856548D02*
X17795833Y20856548D01*
X17624404Y20456548D01*
G04 #@! TO.C,R18*
X54200457Y41175328D02*
X54067123Y41365804D01*
X53971885Y41175328D02*
X53971885Y41575328D01*
X54124266Y41575328D01*
X54162361Y41556280D01*
X54181409Y41537233D01*
X54200457Y41499138D01*
X54200457Y41441995D01*
X54181409Y41403900D01*
X54162361Y41384852D01*
X54124266Y41365804D01*
X53971885Y41365804D01*
X54581409Y41175328D02*
X54352838Y41175328D01*
X54467123Y41175328D02*
X54467123Y41575328D01*
X54429028Y41518185D01*
X54390933Y41480090D01*
X54352838Y41461042D01*
X54809980Y41403900D02*
X54771885Y41422947D01*
X54752838Y41441995D01*
X54733790Y41480090D01*
X54733790Y41499138D01*
X54752838Y41537233D01*
X54771885Y41556280D01*
X54809980Y41575328D01*
X54886171Y41575328D01*
X54924266Y41556280D01*
X54943314Y41537233D01*
X54962361Y41499138D01*
X54962361Y41480090D01*
X54943314Y41441995D01*
X54924266Y41422947D01*
X54886171Y41403900D01*
X54809980Y41403900D01*
X54771885Y41384852D01*
X54752838Y41365804D01*
X54733790Y41327709D01*
X54733790Y41251519D01*
X54752838Y41213423D01*
X54771885Y41194376D01*
X54809980Y41175328D01*
X54886171Y41175328D01*
X54924266Y41194376D01*
X54943314Y41213423D01*
X54962361Y41251519D01*
X54962361Y41327709D01*
X54943314Y41365804D01*
X54924266Y41384852D01*
X54886171Y41403900D01*
G04 #@! TO.C,C6*
X18507057Y29321134D02*
X18526104Y29302086D01*
X18545152Y29244943D01*
X18545152Y29206848D01*
X18526104Y29149705D01*
X18488009Y29111610D01*
X18449914Y29092562D01*
X18373723Y29073515D01*
X18316580Y29073515D01*
X18240390Y29092562D01*
X18202295Y29111610D01*
X18164200Y29149705D01*
X18145152Y29206848D01*
X18145152Y29244943D01*
X18164200Y29302086D01*
X18183247Y29321134D01*
X18145152Y29663991D02*
X18145152Y29587800D01*
X18164200Y29549705D01*
X18183247Y29530658D01*
X18240390Y29492562D01*
X18316580Y29473515D01*
X18468961Y29473515D01*
X18507057Y29492562D01*
X18526104Y29511610D01*
X18545152Y29549705D01*
X18545152Y29625896D01*
X18526104Y29663991D01*
X18507057Y29683039D01*
X18468961Y29702086D01*
X18373723Y29702086D01*
X18335628Y29683039D01*
X18316580Y29663991D01*
X18297533Y29625896D01*
X18297533Y29549705D01*
X18316580Y29511610D01*
X18335628Y29492562D01*
X18373723Y29473515D01*
G04 #@! TO.C,R17*
X84973857Y48333048D02*
X84840523Y48523524D01*
X84745285Y48333048D02*
X84745285Y48733048D01*
X84897666Y48733048D01*
X84935761Y48714000D01*
X84954809Y48694953D01*
X84973857Y48656858D01*
X84973857Y48599715D01*
X84954809Y48561620D01*
X84935761Y48542572D01*
X84897666Y48523524D01*
X84745285Y48523524D01*
X85354809Y48333048D02*
X85126238Y48333048D01*
X85240523Y48333048D02*
X85240523Y48733048D01*
X85202428Y48675905D01*
X85164333Y48637810D01*
X85126238Y48618762D01*
X85488142Y48733048D02*
X85754809Y48733048D01*
X85583380Y48333048D01*
G04 #@! TO.C,Q1*
D12*
X72870309Y41227381D02*
X72846500Y41179762D01*
X72798880Y41132143D01*
X72727452Y41060715D01*
X72703642Y41013096D01*
X72703642Y40965477D01*
X72822690Y40989286D02*
X72798880Y40941667D01*
X72751261Y40894048D01*
X72656023Y40870239D01*
X72489357Y40870239D01*
X72394119Y40894048D01*
X72346500Y40941667D01*
X72322690Y40989286D01*
X72322690Y41084524D01*
X72346500Y41132143D01*
X72394119Y41179762D01*
X72489357Y41203572D01*
X72656023Y41203572D01*
X72751261Y41179762D01*
X72798880Y41132143D01*
X72822690Y41084524D01*
X72822690Y40989286D01*
X72822690Y41679762D02*
X72822690Y41394048D01*
X72822690Y41536905D02*
X72322690Y41536905D01*
X72394119Y41489286D01*
X72441738Y41441667D01*
X72465547Y41394048D01*
G04 #@! TO.C,C2*
D13*
X9077333Y35353643D02*
X9058285Y35334596D01*
X9001142Y35315548D01*
X8963047Y35315548D01*
X8905904Y35334596D01*
X8867809Y35372691D01*
X8848761Y35410786D01*
X8829714Y35486977D01*
X8829714Y35544120D01*
X8848761Y35620310D01*
X8867809Y35658405D01*
X8905904Y35696500D01*
X8963047Y35715548D01*
X9001142Y35715548D01*
X9058285Y35696500D01*
X9077333Y35677453D01*
X9229714Y35677453D02*
X9248761Y35696500D01*
X9286857Y35715548D01*
X9382095Y35715548D01*
X9420190Y35696500D01*
X9439238Y35677453D01*
X9458285Y35639358D01*
X9458285Y35601262D01*
X9439238Y35544120D01*
X9210666Y35315548D01*
X9458285Y35315548D01*
G04 #@! TO.C,C4*
X4278033Y39201743D02*
X4258985Y39182696D01*
X4201842Y39163648D01*
X4163747Y39163648D01*
X4106604Y39182696D01*
X4068509Y39220791D01*
X4049461Y39258886D01*
X4030414Y39335077D01*
X4030414Y39392220D01*
X4049461Y39468410D01*
X4068509Y39506505D01*
X4106604Y39544600D01*
X4163747Y39563648D01*
X4201842Y39563648D01*
X4258985Y39544600D01*
X4278033Y39525553D01*
X4620890Y39430315D02*
X4620890Y39163648D01*
X4525652Y39582696D02*
X4430414Y39296981D01*
X4678033Y39296981D01*
G04 #@! TO.C,C10*
X17941957Y37728543D02*
X17922909Y37709496D01*
X17865766Y37690448D01*
X17827671Y37690448D01*
X17770528Y37709496D01*
X17732433Y37747591D01*
X17713385Y37785686D01*
X17694338Y37861877D01*
X17694338Y37919020D01*
X17713385Y37995210D01*
X17732433Y38033305D01*
X17770528Y38071400D01*
X17827671Y38090448D01*
X17865766Y38090448D01*
X17922909Y38071400D01*
X17941957Y38052353D01*
X18322909Y37690448D02*
X18094338Y37690448D01*
X18208623Y37690448D02*
X18208623Y38090448D01*
X18170528Y38033305D01*
X18132433Y37995210D01*
X18094338Y37976162D01*
X18570528Y38090448D02*
X18608623Y38090448D01*
X18646719Y38071400D01*
X18665766Y38052353D01*
X18684814Y38014258D01*
X18703861Y37938067D01*
X18703861Y37842829D01*
X18684814Y37766639D01*
X18665766Y37728543D01*
X18646719Y37709496D01*
X18608623Y37690448D01*
X18570528Y37690448D01*
X18532433Y37709496D01*
X18513385Y37728543D01*
X18494338Y37766639D01*
X18475290Y37842829D01*
X18475290Y37938067D01*
X18494338Y38014258D01*
X18513385Y38052353D01*
X18532433Y38071400D01*
X18570528Y38090448D01*
G04 #@! TO.C,C9*
X17230733Y23542643D02*
X17211685Y23523596D01*
X17154542Y23504548D01*
X17116447Y23504548D01*
X17059304Y23523596D01*
X17021209Y23561691D01*
X17002161Y23599786D01*
X16983114Y23675977D01*
X16983114Y23733120D01*
X17002161Y23809310D01*
X17021209Y23847405D01*
X17059304Y23885500D01*
X17116447Y23904548D01*
X17154542Y23904548D01*
X17211685Y23885500D01*
X17230733Y23866453D01*
X17421209Y23504548D02*
X17497400Y23504548D01*
X17535495Y23523596D01*
X17554542Y23542643D01*
X17592638Y23599786D01*
X17611685Y23675977D01*
X17611685Y23828358D01*
X17592638Y23866453D01*
X17573590Y23885500D01*
X17535495Y23904548D01*
X17459304Y23904548D01*
X17421209Y23885500D01*
X17402161Y23866453D01*
X17383114Y23828358D01*
X17383114Y23733120D01*
X17402161Y23695024D01*
X17421209Y23675977D01*
X17459304Y23656929D01*
X17535495Y23656929D01*
X17573590Y23675977D01*
X17592638Y23695024D01*
X17611685Y23733120D01*
G04 #@! TO.C,C8*
D15*
X30409366Y31266629D02*
X30385557Y31242820D01*
X30314128Y31219010D01*
X30266509Y31219010D01*
X30195080Y31242820D01*
X30147461Y31290439D01*
X30123652Y31338058D01*
X30099842Y31433296D01*
X30099842Y31504724D01*
X30123652Y31599962D01*
X30147461Y31647581D01*
X30195080Y31695200D01*
X30266509Y31719010D01*
X30314128Y31719010D01*
X30385557Y31695200D01*
X30409366Y31671391D01*
X30695080Y31504724D02*
X30647461Y31528534D01*
X30623652Y31552343D01*
X30599842Y31599962D01*
X30599842Y31623772D01*
X30623652Y31671391D01*
X30647461Y31695200D01*
X30695080Y31719010D01*
X30790319Y31719010D01*
X30837938Y31695200D01*
X30861747Y31671391D01*
X30885557Y31623772D01*
X30885557Y31599962D01*
X30861747Y31552343D01*
X30837938Y31528534D01*
X30790319Y31504724D01*
X30695080Y31504724D01*
X30647461Y31480915D01*
X30623652Y31457105D01*
X30599842Y31409486D01*
X30599842Y31314248D01*
X30623652Y31266629D01*
X30647461Y31242820D01*
X30695080Y31219010D01*
X30790319Y31219010D01*
X30837938Y31242820D01*
X30861747Y31266629D01*
X30885557Y31314248D01*
X30885557Y31409486D01*
X30861747Y31457105D01*
X30837938Y31480915D01*
X30790319Y31504724D01*
G04 #@! TO.C,R15*
D13*
X80909857Y2105048D02*
X80776523Y2295524D01*
X80681285Y2105048D02*
X80681285Y2505048D01*
X80833666Y2505048D01*
X80871761Y2486000D01*
X80890809Y2466953D01*
X80909857Y2428858D01*
X80909857Y2371715D01*
X80890809Y2333620D01*
X80871761Y2314572D01*
X80833666Y2295524D01*
X80681285Y2295524D01*
X81290809Y2105048D02*
X81062238Y2105048D01*
X81176523Y2105048D02*
X81176523Y2505048D01*
X81138428Y2447905D01*
X81100333Y2409810D01*
X81062238Y2390762D01*
X81652714Y2505048D02*
X81462238Y2505048D01*
X81443190Y2314572D01*
X81462238Y2333620D01*
X81500333Y2352667D01*
X81595571Y2352667D01*
X81633666Y2333620D01*
X81652714Y2314572D01*
X81671761Y2276477D01*
X81671761Y2181239D01*
X81652714Y2143143D01*
X81633666Y2124096D01*
X81595571Y2105048D01*
X81500333Y2105048D01*
X81462238Y2124096D01*
X81443190Y2143143D01*
G04 #@! TO.C,R14*
X70467857Y43697548D02*
X70334523Y43888024D01*
X70239285Y43697548D02*
X70239285Y44097548D01*
X70391666Y44097548D01*
X70429761Y44078500D01*
X70448809Y44059453D01*
X70467857Y44021358D01*
X70467857Y43964215D01*
X70448809Y43926120D01*
X70429761Y43907072D01*
X70391666Y43888024D01*
X70239285Y43888024D01*
X70848809Y43697548D02*
X70620238Y43697548D01*
X70734523Y43697548D02*
X70734523Y44097548D01*
X70696428Y44040405D01*
X70658333Y44002310D01*
X70620238Y43983262D01*
X71191666Y43964215D02*
X71191666Y43697548D01*
X71096428Y44116596D02*
X71001190Y43830881D01*
X71248809Y43830881D01*
G04 #@! TO.C,R13*
X80895857Y48333048D02*
X80762523Y48523524D01*
X80667285Y48333048D02*
X80667285Y48733048D01*
X80819666Y48733048D01*
X80857761Y48714000D01*
X80876809Y48694953D01*
X80895857Y48656858D01*
X80895857Y48599715D01*
X80876809Y48561620D01*
X80857761Y48542572D01*
X80819666Y48523524D01*
X80667285Y48523524D01*
X81276809Y48333048D02*
X81048238Y48333048D01*
X81162523Y48333048D02*
X81162523Y48733048D01*
X81124428Y48675905D01*
X81086333Y48637810D01*
X81048238Y48618762D01*
X81410142Y48733048D02*
X81657761Y48733048D01*
X81524428Y48580667D01*
X81581571Y48580667D01*
X81619666Y48561620D01*
X81638714Y48542572D01*
X81657761Y48504477D01*
X81657761Y48409239D01*
X81638714Y48371143D01*
X81619666Y48352096D01*
X81581571Y48333048D01*
X81467285Y48333048D01*
X81429190Y48352096D01*
X81410142Y48371143D01*
G04 #@! TO.C,R12*
X84973857Y2105048D02*
X84840523Y2295524D01*
X84745285Y2105048D02*
X84745285Y2505048D01*
X84897666Y2505048D01*
X84935761Y2486000D01*
X84954809Y2466953D01*
X84973857Y2428858D01*
X84973857Y2371715D01*
X84954809Y2333620D01*
X84935761Y2314572D01*
X84897666Y2295524D01*
X84745285Y2295524D01*
X85354809Y2105048D02*
X85126238Y2105048D01*
X85240523Y2105048D02*
X85240523Y2505048D01*
X85202428Y2447905D01*
X85164333Y2409810D01*
X85126238Y2390762D01*
X85507190Y2466953D02*
X85526238Y2486000D01*
X85564333Y2505048D01*
X85659571Y2505048D01*
X85697666Y2486000D01*
X85716714Y2466953D01*
X85735761Y2428858D01*
X85735761Y2390762D01*
X85716714Y2333620D01*
X85488142Y2105048D01*
X85735761Y2105048D01*
G04 #@! TD*
M02*
