G04 #@! TF.GenerationSoftware,KiCad,Pcbnew,5.0.2-bee76a0~70~ubuntu18.04.1*
G04 #@! TF.CreationDate,2019-06-09T10:31:05+02:00*
G04 #@! TF.ProjectId,JTAG-SWD-adapter,4b744c69-6e6b-4416-9461-707465722e6b,rev?*
G04 #@! TF.SameCoordinates,PX18392c0PY54c81a0*
G04 #@! TF.FileFunction,Legend,Bot*
G04 #@! TF.FilePolarity,Positive*
%FSLAX46Y46*%
G04 Gerber Fmt 4.6, Leading zero omitted, Abs format (unit mm)*
G04 Created by KiCad (PCBNEW 5.0.2-bee76a0~70~ubuntu18.04.1) date ned 09 jun 2019 10:31:05 CEST*
%MOMM*%
%LPD*%
G01*
G04 APERTURE LIST*
%ADD10C,0.300000*%
%ADD11C,0.120000*%
%ADD12C,0.150000*%
G04 APERTURE END LIST*
D10*
X30118357Y29996929D02*
X30118357Y31496929D01*
X29261214Y29996929D02*
X29904071Y30854072D01*
X29261214Y31496929D02*
X30118357Y30639786D01*
X28832642Y31496929D02*
X27975500Y31496929D01*
X28404071Y29996929D02*
X28404071Y31496929D01*
X27475500Y30568358D02*
X26332642Y30568358D01*
X24904071Y29996929D02*
X25618357Y29996929D01*
X25618357Y31496929D01*
X24404071Y29996929D02*
X24404071Y30996929D01*
X24404071Y31496929D02*
X24475500Y31425500D01*
X24404071Y31354072D01*
X24332642Y31425500D01*
X24404071Y31496929D01*
X24404071Y31354072D01*
X23689785Y30996929D02*
X23689785Y29996929D01*
X23689785Y30854072D02*
X23618357Y30925500D01*
X23475500Y30996929D01*
X23261214Y30996929D01*
X23118357Y30925500D01*
X23046928Y30782643D01*
X23046928Y29996929D01*
X22332642Y29996929D02*
X22332642Y31496929D01*
X22189785Y30568358D02*
X21761214Y29996929D01*
X21761214Y30996929D02*
X22332642Y30425500D01*
X19332642Y30068358D02*
X19475500Y29996929D01*
X19761214Y29996929D01*
X19904071Y30068358D01*
X19975500Y30139786D01*
X20046928Y30282643D01*
X20046928Y30711215D01*
X19975500Y30854072D01*
X19904071Y30925500D01*
X19761214Y30996929D01*
X19475500Y30996929D01*
X19332642Y30925500D01*
X18475500Y29996929D02*
X18618357Y30068358D01*
X18689785Y30139786D01*
X18761214Y30282643D01*
X18761214Y30711215D01*
X18689785Y30854072D01*
X18618357Y30925500D01*
X18475500Y30996929D01*
X18261214Y30996929D01*
X18118357Y30925500D01*
X18046928Y30854072D01*
X17975500Y30711215D01*
X17975500Y30282643D01*
X18046928Y30139786D01*
X18118357Y30068358D01*
X18261214Y29996929D01*
X18475500Y29996929D01*
X17332642Y29996929D02*
X17332642Y30996929D01*
X17332642Y30854072D02*
X17261214Y30925500D01*
X17118357Y30996929D01*
X16904071Y30996929D01*
X16761214Y30925500D01*
X16689785Y30782643D01*
X16689785Y29996929D01*
X16689785Y30782643D02*
X16618357Y30925500D01*
X16475500Y30996929D01*
X16261214Y30996929D01*
X16118357Y30925500D01*
X16046928Y30782643D01*
X16046928Y29996929D01*
X15332642Y30996929D02*
X15332642Y29496929D01*
X15332642Y30925500D02*
X15189785Y30996929D01*
X14904071Y30996929D01*
X14761214Y30925500D01*
X14689785Y30854072D01*
X14618357Y30711215D01*
X14618357Y30282643D01*
X14689785Y30139786D01*
X14761214Y30068358D01*
X14904071Y29996929D01*
X15189785Y29996929D01*
X15332642Y30068358D01*
X13332642Y29996929D02*
X13332642Y30782643D01*
X13404071Y30925500D01*
X13546928Y30996929D01*
X13832642Y30996929D01*
X13975500Y30925500D01*
X13332642Y30068358D02*
X13475500Y29996929D01*
X13832642Y29996929D01*
X13975500Y30068358D01*
X14046928Y30211215D01*
X14046928Y30354072D01*
X13975500Y30496929D01*
X13832642Y30568358D01*
X13475500Y30568358D01*
X13332642Y30639786D01*
X12832642Y30996929D02*
X12261214Y30996929D01*
X12618357Y31496929D02*
X12618357Y30211215D01*
X12546928Y30068358D01*
X12404071Y29996929D01*
X12261214Y29996929D01*
X11761214Y29996929D02*
X11761214Y30996929D01*
X11761214Y31496929D02*
X11832642Y31425500D01*
X11761214Y31354072D01*
X11689785Y31425500D01*
X11761214Y31496929D01*
X11761214Y31354072D01*
X11046928Y29996929D02*
X11046928Y31496929D01*
X11046928Y30925500D02*
X10904071Y30996929D01*
X10618357Y30996929D01*
X10475500Y30925500D01*
X10404071Y30854072D01*
X10332642Y30711215D01*
X10332642Y30282643D01*
X10404071Y30139786D01*
X10475500Y30068358D01*
X10618357Y29996929D01*
X10904071Y29996929D01*
X11046928Y30068358D01*
X9475500Y29996929D02*
X9618357Y30068358D01*
X9689785Y30211215D01*
X9689785Y31496929D01*
X8332642Y30068358D02*
X8475500Y29996929D01*
X8761214Y29996929D01*
X8904071Y30068358D01*
X8975500Y30211215D01*
X8975500Y30782643D01*
X8904071Y30925500D01*
X8761214Y30996929D01*
X8475500Y30996929D01*
X8332642Y30925500D01*
X8261214Y30782643D01*
X8261214Y30639786D01*
X8975500Y30496929D01*
X29618357Y28232643D02*
X30118357Y28232643D01*
X30118357Y27446929D02*
X30118357Y28946929D01*
X29404071Y28946929D01*
X29046928Y28946929D02*
X28189785Y28946929D01*
X28618357Y27446929D02*
X28618357Y28946929D01*
X27761214Y28804072D02*
X27689785Y28875500D01*
X27546928Y28946929D01*
X27189785Y28946929D01*
X27046928Y28875500D01*
X26975500Y28804072D01*
X26904071Y28661215D01*
X26904071Y28518358D01*
X26975500Y28304072D01*
X27832642Y27446929D01*
X26904071Y27446929D01*
X26332642Y28804072D02*
X26261214Y28875500D01*
X26118357Y28946929D01*
X25761214Y28946929D01*
X25618357Y28875500D01*
X25546928Y28804072D01*
X25475500Y28661215D01*
X25475500Y28518358D01*
X25546928Y28304072D01*
X26404071Y27446929D01*
X25475500Y27446929D01*
X24975500Y28946929D02*
X24046928Y28946929D01*
X24546928Y28375500D01*
X24332642Y28375500D01*
X24189785Y28304072D01*
X24118357Y28232643D01*
X24046928Y28089786D01*
X24046928Y27732643D01*
X24118357Y27589786D01*
X24189785Y27518358D01*
X24332642Y27446929D01*
X24761214Y27446929D01*
X24904071Y27518358D01*
X24975500Y27589786D01*
X23475500Y28804072D02*
X23404071Y28875500D01*
X23261214Y28946929D01*
X22904071Y28946929D01*
X22761214Y28875500D01*
X22689785Y28804072D01*
X22618357Y28661215D01*
X22618357Y28518358D01*
X22689785Y28304072D01*
X23546928Y27446929D01*
X22618357Y27446929D01*
X21975500Y27446929D02*
X21975500Y28946929D01*
X21975500Y28232643D02*
X21118357Y28232643D01*
X21118357Y27446929D02*
X21118357Y28946929D01*
X19261214Y28446929D02*
X19261214Y26946929D01*
X19261214Y28375500D02*
X19118357Y28446929D01*
X18832642Y28446929D01*
X18689785Y28375500D01*
X18618357Y28304072D01*
X18546928Y28161215D01*
X18546928Y27732643D01*
X18618357Y27589786D01*
X18689785Y27518358D01*
X18832642Y27446929D01*
X19118357Y27446929D01*
X19261214Y27518358D01*
X17904071Y27446929D02*
X17904071Y28446929D01*
X17904071Y28161215D02*
X17832642Y28304072D01*
X17761214Y28375500D01*
X17618357Y28446929D01*
X17475500Y28446929D01*
X16761214Y27446929D02*
X16904071Y27518358D01*
X16975500Y27589786D01*
X17046928Y27732643D01*
X17046928Y28161215D01*
X16975500Y28304072D01*
X16904071Y28375500D01*
X16761214Y28446929D01*
X16546928Y28446929D01*
X16404071Y28375500D01*
X16332642Y28304072D01*
X16261214Y28161215D01*
X16261214Y27732643D01*
X16332642Y27589786D01*
X16404071Y27518358D01*
X16546928Y27446929D01*
X16761214Y27446929D01*
X14975500Y28446929D02*
X14975500Y27232643D01*
X15046928Y27089786D01*
X15118357Y27018358D01*
X15261214Y26946929D01*
X15475500Y26946929D01*
X15618357Y27018358D01*
X14975500Y27518358D02*
X15118357Y27446929D01*
X15404071Y27446929D01*
X15546928Y27518358D01*
X15618357Y27589786D01*
X15689785Y27732643D01*
X15689785Y28161215D01*
X15618357Y28304072D01*
X15546928Y28375500D01*
X15404071Y28446929D01*
X15118357Y28446929D01*
X14975500Y28375500D01*
X14261214Y27446929D02*
X14261214Y28446929D01*
X14261214Y28161215D02*
X14189785Y28304072D01*
X14118357Y28375500D01*
X13975500Y28446929D01*
X13832642Y28446929D01*
X12689785Y27446929D02*
X12689785Y28232643D01*
X12761214Y28375500D01*
X12904071Y28446929D01*
X13189785Y28446929D01*
X13332642Y28375500D01*
X12689785Y27518358D02*
X12832642Y27446929D01*
X13189785Y27446929D01*
X13332642Y27518358D01*
X13404071Y27661215D01*
X13404071Y27804072D01*
X13332642Y27946929D01*
X13189785Y28018358D01*
X12832642Y28018358D01*
X12689785Y28089786D01*
X11975500Y27446929D02*
X11975500Y28446929D01*
X11975500Y28304072D02*
X11904071Y28375500D01*
X11761214Y28446929D01*
X11546928Y28446929D01*
X11404071Y28375500D01*
X11332642Y28232643D01*
X11332642Y27446929D01*
X11332642Y28232643D02*
X11261214Y28375500D01*
X11118357Y28446929D01*
X10904071Y28446929D01*
X10761214Y28375500D01*
X10689785Y28232643D01*
X10689785Y27446929D01*
X9975500Y27446929D02*
X9975500Y28446929D01*
X9975500Y28304072D02*
X9904071Y28375500D01*
X9761214Y28446929D01*
X9546928Y28446929D01*
X9404071Y28375500D01*
X9332642Y28232643D01*
X9332642Y27446929D01*
X9332642Y28232643D02*
X9261214Y28375500D01*
X9118357Y28446929D01*
X8904071Y28446929D01*
X8761214Y28375500D01*
X8689785Y28232643D01*
X8689785Y27446929D01*
X7404071Y27518358D02*
X7546928Y27446929D01*
X7832642Y27446929D01*
X7975500Y27518358D01*
X8046928Y27661215D01*
X8046928Y28232643D01*
X7975500Y28375500D01*
X7832642Y28446929D01*
X7546928Y28446929D01*
X7404071Y28375500D01*
X7332642Y28232643D01*
X7332642Y28089786D01*
X8046928Y27946929D01*
X6689785Y27446929D02*
X6689785Y28446929D01*
X6689785Y28161215D02*
X6618357Y28304072D01*
X6546928Y28375500D01*
X6404071Y28446929D01*
X6261214Y28446929D01*
X75481142Y37696429D02*
X74981142Y36196429D01*
X74481142Y37696429D01*
X74195428Y37196429D02*
X73624000Y37196429D01*
X73981142Y37696429D02*
X73981142Y36410715D01*
X73909714Y36267858D01*
X73766857Y36196429D01*
X73624000Y36196429D01*
X72481142Y36196429D02*
X72481142Y36982143D01*
X72552571Y37125000D01*
X72695428Y37196429D01*
X72981142Y37196429D01*
X73124000Y37125000D01*
X72481142Y36267858D02*
X72624000Y36196429D01*
X72981142Y36196429D01*
X73124000Y36267858D01*
X73195428Y36410715D01*
X73195428Y36553572D01*
X73124000Y36696429D01*
X72981142Y36767858D01*
X72624000Y36767858D01*
X72481142Y36839286D01*
X71766857Y36196429D02*
X71766857Y37196429D01*
X71766857Y36910715D02*
X71695428Y37053572D01*
X71624000Y37125000D01*
X71481142Y37196429D01*
X71338285Y37196429D01*
X70195428Y37196429D02*
X70195428Y35982143D01*
X70266857Y35839286D01*
X70338285Y35767858D01*
X70481142Y35696429D01*
X70695428Y35696429D01*
X70838285Y35767858D01*
X70195428Y36267858D02*
X70338285Y36196429D01*
X70624000Y36196429D01*
X70766857Y36267858D01*
X70838285Y36339286D01*
X70909714Y36482143D01*
X70909714Y36910715D01*
X70838285Y37053572D01*
X70766857Y37125000D01*
X70624000Y37196429D01*
X70338285Y37196429D01*
X70195428Y37125000D01*
X68909714Y36267858D02*
X69052571Y36196429D01*
X69338285Y36196429D01*
X69481142Y36267858D01*
X69552571Y36410715D01*
X69552571Y36982143D01*
X69481142Y37125000D01*
X69338285Y37196429D01*
X69052571Y37196429D01*
X68909714Y37125000D01*
X68838285Y36982143D01*
X68838285Y36839286D01*
X69552571Y36696429D01*
X68409714Y37196429D02*
X67838285Y37196429D01*
X68195428Y37696429D02*
X68195428Y36410715D01*
X68124000Y36267858D01*
X67981142Y36196429D01*
X67838285Y36196429D01*
X74481142Y35075000D02*
X74624000Y35146429D01*
X74838285Y35146429D01*
X75052571Y35075000D01*
X75195428Y34932143D01*
X75266857Y34789286D01*
X75338285Y34503572D01*
X75338285Y34289286D01*
X75266857Y34003572D01*
X75195428Y33860715D01*
X75052571Y33717858D01*
X74838285Y33646429D01*
X74695428Y33646429D01*
X74481142Y33717858D01*
X74409714Y33789286D01*
X74409714Y34289286D01*
X74695428Y34289286D01*
X73766857Y33646429D02*
X73766857Y35146429D01*
X72909714Y33646429D01*
X72909714Y35146429D01*
X72195428Y33646429D02*
X72195428Y35146429D01*
X71838285Y35146429D01*
X71624000Y35075000D01*
X71481142Y34932143D01*
X71409714Y34789286D01*
X71338285Y34503572D01*
X71338285Y34289286D01*
X71409714Y34003572D01*
X71481142Y33860715D01*
X71624000Y33717858D01*
X71838285Y33646429D01*
X72195428Y33646429D01*
X70338285Y33146429D02*
X70338285Y35289286D01*
X69624000Y35795000D02*
X68266857Y35795000D01*
X69266857Y34646429D02*
X69266857Y33646429D01*
X69266857Y34503572D02*
X69195428Y34575000D01*
X69052571Y34646429D01*
X68838285Y34646429D01*
X68695428Y34575000D01*
X68624000Y34432143D01*
X68624000Y33646429D01*
X68266857Y35795000D02*
X67124000Y35795000D01*
X68124000Y35146429D02*
X67266857Y35146429D01*
X67695428Y33646429D02*
X67695428Y35146429D01*
X67124000Y35795000D02*
X65624000Y35795000D01*
X65909714Y33646429D02*
X66409714Y34360715D01*
X66766857Y33646429D02*
X66766857Y35146429D01*
X66195428Y35146429D01*
X66052571Y35075000D01*
X65981142Y35003572D01*
X65909714Y34860715D01*
X65909714Y34646429D01*
X65981142Y34503572D01*
X66052571Y34432143D01*
X66195428Y34360715D01*
X66766857Y34360715D01*
X65624000Y35795000D02*
X64195428Y35795000D01*
X65338285Y33717858D02*
X65124000Y33646429D01*
X64766857Y33646429D01*
X64624000Y33717858D01*
X64552571Y33789286D01*
X64481142Y33932143D01*
X64481142Y34075000D01*
X64552571Y34217858D01*
X64624000Y34289286D01*
X64766857Y34360715D01*
X65052571Y34432143D01*
X65195428Y34503572D01*
X65266857Y34575000D01*
X65338285Y34717858D01*
X65338285Y34860715D01*
X65266857Y35003572D01*
X65195428Y35075000D01*
X65052571Y35146429D01*
X64695428Y35146429D01*
X64481142Y35075000D01*
X64195428Y35795000D02*
X63052571Y35795000D01*
X64052571Y35146429D02*
X63195428Y35146429D01*
X63624000Y33646429D02*
X63624000Y35146429D01*
X74481142Y32525000D02*
X74624000Y32596429D01*
X74838285Y32596429D01*
X75052571Y32525000D01*
X75195428Y32382143D01*
X75266857Y32239286D01*
X75338285Y31953572D01*
X75338285Y31739286D01*
X75266857Y31453572D01*
X75195428Y31310715D01*
X75052571Y31167858D01*
X74838285Y31096429D01*
X74695428Y31096429D01*
X74481142Y31167858D01*
X74409714Y31239286D01*
X74409714Y31739286D01*
X74695428Y31739286D01*
X73766857Y31096429D02*
X73766857Y32596429D01*
X72909714Y31096429D01*
X72909714Y32596429D01*
X72195428Y31096429D02*
X72195428Y32596429D01*
X71838285Y32596429D01*
X71624000Y32525000D01*
X71481142Y32382143D01*
X71409714Y32239286D01*
X71338285Y31953572D01*
X71338285Y31739286D01*
X71409714Y31453572D01*
X71481142Y31310715D01*
X71624000Y31167858D01*
X71838285Y31096429D01*
X72195428Y31096429D01*
X70338285Y30596429D02*
X70338285Y32739286D01*
X69481142Y32596429D02*
X68624000Y32596429D01*
X69052571Y31096429D02*
X69052571Y32596429D01*
X68124000Y31096429D02*
X68124000Y32596429D01*
X67766857Y32596429D01*
X67552571Y32525000D01*
X67409714Y32382143D01*
X67338285Y32239286D01*
X67266857Y31953572D01*
X67266857Y31739286D01*
X67338285Y31453572D01*
X67409714Y31310715D01*
X67552571Y31167858D01*
X67766857Y31096429D01*
X68124000Y31096429D01*
X66624000Y31096429D02*
X66624000Y32596429D01*
X74481142Y29975000D02*
X74624000Y30046429D01*
X74838285Y30046429D01*
X75052571Y29975000D01*
X75195428Y29832143D01*
X75266857Y29689286D01*
X75338285Y29403572D01*
X75338285Y29189286D01*
X75266857Y28903572D01*
X75195428Y28760715D01*
X75052571Y28617858D01*
X74838285Y28546429D01*
X74695428Y28546429D01*
X74481142Y28617858D01*
X74409714Y28689286D01*
X74409714Y29189286D01*
X74695428Y29189286D01*
X73766857Y28546429D02*
X73766857Y30046429D01*
X72909714Y28546429D01*
X72909714Y30046429D01*
X72195428Y28546429D02*
X72195428Y30046429D01*
X71838285Y30046429D01*
X71624000Y29975000D01*
X71481142Y29832143D01*
X71409714Y29689286D01*
X71338285Y29403572D01*
X71338285Y29189286D01*
X71409714Y28903572D01*
X71481142Y28760715D01*
X71624000Y28617858D01*
X71838285Y28546429D01*
X72195428Y28546429D01*
X70338285Y28046429D02*
X70338285Y30189286D01*
X69481142Y30046429D02*
X68624000Y30046429D01*
X69052571Y28546429D02*
X69052571Y30046429D01*
X68124000Y28546429D02*
X68124000Y30046429D01*
X67624000Y28975000D01*
X67124000Y30046429D01*
X67124000Y28546429D01*
X66481142Y28617858D02*
X66266857Y28546429D01*
X65909714Y28546429D01*
X65766857Y28617858D01*
X65695428Y28689286D01*
X65624000Y28832143D01*
X65624000Y28975000D01*
X65695428Y29117858D01*
X65766857Y29189286D01*
X65909714Y29260715D01*
X66195428Y29332143D01*
X66338285Y29403572D01*
X66409714Y29475000D01*
X66481142Y29617858D01*
X66481142Y29760715D01*
X66409714Y29903572D01*
X66338285Y29975000D01*
X66195428Y30046429D01*
X65838285Y30046429D01*
X65624000Y29975000D01*
X63909714Y30117858D02*
X65195428Y28189286D01*
X63481142Y28617858D02*
X63266857Y28546429D01*
X62909714Y28546429D01*
X62766857Y28617858D01*
X62695428Y28689286D01*
X62624000Y28832143D01*
X62624000Y28975000D01*
X62695428Y29117858D01*
X62766857Y29189286D01*
X62909714Y29260715D01*
X63195428Y29332143D01*
X63338285Y29403572D01*
X63409714Y29475000D01*
X63481142Y29617858D01*
X63481142Y29760715D01*
X63409714Y29903572D01*
X63338285Y29975000D01*
X63195428Y30046429D01*
X62838285Y30046429D01*
X62624000Y29975000D01*
X62124000Y30046429D02*
X61766857Y28546429D01*
X61481142Y29617858D01*
X61195428Y28546429D01*
X60838285Y30046429D01*
X60266857Y28546429D02*
X60266857Y30046429D01*
X59909714Y30046429D01*
X59695428Y29975000D01*
X59552571Y29832143D01*
X59481142Y29689286D01*
X59409714Y29403572D01*
X59409714Y29189286D01*
X59481142Y28903572D01*
X59552571Y28760715D01*
X59695428Y28617858D01*
X59909714Y28546429D01*
X60266857Y28546429D01*
X58766857Y28546429D02*
X58766857Y30046429D01*
X57766857Y30046429D02*
X57481142Y30046429D01*
X57338285Y29975000D01*
X57195428Y29832143D01*
X57124000Y29546429D01*
X57124000Y29046429D01*
X57195428Y28760715D01*
X57338285Y28617858D01*
X57481142Y28546429D01*
X57766857Y28546429D01*
X57909714Y28617858D01*
X58052571Y28760715D01*
X58124000Y29046429D01*
X58124000Y29546429D01*
X58052571Y29832143D01*
X57909714Y29975000D01*
X57766857Y30046429D01*
X74481142Y27425000D02*
X74624000Y27496429D01*
X74838285Y27496429D01*
X75052571Y27425000D01*
X75195428Y27282143D01*
X75266857Y27139286D01*
X75338285Y26853572D01*
X75338285Y26639286D01*
X75266857Y26353572D01*
X75195428Y26210715D01*
X75052571Y26067858D01*
X74838285Y25996429D01*
X74695428Y25996429D01*
X74481142Y26067858D01*
X74409714Y26139286D01*
X74409714Y26639286D01*
X74695428Y26639286D01*
X73766857Y25996429D02*
X73766857Y27496429D01*
X72909714Y25996429D01*
X72909714Y27496429D01*
X72195428Y25996429D02*
X72195428Y27496429D01*
X71838285Y27496429D01*
X71624000Y27425000D01*
X71481142Y27282143D01*
X71409714Y27139286D01*
X71338285Y26853572D01*
X71338285Y26639286D01*
X71409714Y26353572D01*
X71481142Y26210715D01*
X71624000Y26067858D01*
X71838285Y25996429D01*
X72195428Y25996429D01*
X70338285Y25496429D02*
X70338285Y27639286D01*
X68409714Y26139286D02*
X68481142Y26067858D01*
X68695428Y25996429D01*
X68838285Y25996429D01*
X69052571Y26067858D01*
X69195428Y26210715D01*
X69266857Y26353572D01*
X69338285Y26639286D01*
X69338285Y26853572D01*
X69266857Y27139286D01*
X69195428Y27282143D01*
X69052571Y27425000D01*
X68838285Y27496429D01*
X68695428Y27496429D01*
X68481142Y27425000D01*
X68409714Y27353572D01*
X67052571Y25996429D02*
X67766857Y25996429D01*
X67766857Y27496429D01*
X66552571Y25996429D02*
X66552571Y27496429D01*
X65695428Y25996429D02*
X66338285Y26853572D01*
X65695428Y27496429D02*
X66552571Y26639286D01*
X63981142Y27567858D02*
X65266857Y25639286D01*
X63552571Y26067858D02*
X63338285Y25996429D01*
X62981142Y25996429D01*
X62838285Y26067858D01*
X62766857Y26139286D01*
X62695428Y26282143D01*
X62695428Y26425000D01*
X62766857Y26567858D01*
X62838285Y26639286D01*
X62981142Y26710715D01*
X63266857Y26782143D01*
X63409714Y26853572D01*
X63481142Y26925000D01*
X63552571Y27067858D01*
X63552571Y27210715D01*
X63481142Y27353572D01*
X63409714Y27425000D01*
X63266857Y27496429D01*
X62909714Y27496429D01*
X62695428Y27425000D01*
X62195428Y27496429D02*
X61838285Y25996429D01*
X61552571Y27067858D01*
X61266857Y25996429D01*
X60909714Y27496429D01*
X59481142Y26139286D02*
X59552571Y26067858D01*
X59766857Y25996429D01*
X59909714Y25996429D01*
X60124000Y26067858D01*
X60266857Y26210715D01*
X60338285Y26353572D01*
X60409714Y26639286D01*
X60409714Y26853572D01*
X60338285Y27139286D01*
X60266857Y27282143D01*
X60124000Y27425000D01*
X59909714Y27496429D01*
X59766857Y27496429D01*
X59552571Y27425000D01*
X59481142Y27353572D01*
X58124000Y25996429D02*
X58838285Y25996429D01*
X58838285Y27496429D01*
X57624000Y25996429D02*
X57624000Y27496429D01*
X56766857Y25996429D02*
X57409714Y26853572D01*
X56766857Y27496429D02*
X57624000Y26639286D01*
X74481142Y24875000D02*
X74624000Y24946429D01*
X74838285Y24946429D01*
X75052571Y24875000D01*
X75195428Y24732143D01*
X75266857Y24589286D01*
X75338285Y24303572D01*
X75338285Y24089286D01*
X75266857Y23803572D01*
X75195428Y23660715D01*
X75052571Y23517858D01*
X74838285Y23446429D01*
X74695428Y23446429D01*
X74481142Y23517858D01*
X74409714Y23589286D01*
X74409714Y24089286D01*
X74695428Y24089286D01*
X73766857Y23446429D02*
X73766857Y24946429D01*
X72909714Y23446429D01*
X72909714Y24946429D01*
X72195428Y23446429D02*
X72195428Y24946429D01*
X71838285Y24946429D01*
X71624000Y24875000D01*
X71481142Y24732143D01*
X71409714Y24589286D01*
X71338285Y24303572D01*
X71338285Y24089286D01*
X71409714Y23803572D01*
X71481142Y23660715D01*
X71624000Y23517858D01*
X71838285Y23446429D01*
X72195428Y23446429D01*
X70338285Y22946429D02*
X70338285Y25089286D01*
X68409714Y23446429D02*
X68909714Y24160715D01*
X69266857Y23446429D02*
X69266857Y24946429D01*
X68695428Y24946429D01*
X68552571Y24875000D01*
X68481142Y24803572D01*
X68409714Y24660715D01*
X68409714Y24446429D01*
X68481142Y24303572D01*
X68552571Y24232143D01*
X68695428Y24160715D01*
X69266857Y24160715D01*
X67981142Y24946429D02*
X67124000Y24946429D01*
X67552571Y23446429D02*
X67552571Y24946429D01*
X65766857Y23589286D02*
X65838285Y23517858D01*
X66052571Y23446429D01*
X66195428Y23446429D01*
X66409714Y23517858D01*
X66552571Y23660715D01*
X66624000Y23803572D01*
X66695428Y24089286D01*
X66695428Y24303572D01*
X66624000Y24589286D01*
X66552571Y24732143D01*
X66409714Y24875000D01*
X66195428Y24946429D01*
X66052571Y24946429D01*
X65838285Y24875000D01*
X65766857Y24803572D01*
X65124000Y23446429D02*
X65124000Y24946429D01*
X64266857Y23446429D02*
X64909714Y24303572D01*
X64266857Y24946429D02*
X65124000Y24089286D01*
X74481142Y22325000D02*
X74624000Y22396429D01*
X74838285Y22396429D01*
X75052571Y22325000D01*
X75195428Y22182143D01*
X75266857Y22039286D01*
X75338285Y21753572D01*
X75338285Y21539286D01*
X75266857Y21253572D01*
X75195428Y21110715D01*
X75052571Y20967858D01*
X74838285Y20896429D01*
X74695428Y20896429D01*
X74481142Y20967858D01*
X74409714Y21039286D01*
X74409714Y21539286D01*
X74695428Y21539286D01*
X73766857Y20896429D02*
X73766857Y22396429D01*
X72909714Y20896429D01*
X72909714Y22396429D01*
X72195428Y20896429D02*
X72195428Y22396429D01*
X71838285Y22396429D01*
X71624000Y22325000D01*
X71481142Y22182143D01*
X71409714Y22039286D01*
X71338285Y21753572D01*
X71338285Y21539286D01*
X71409714Y21253572D01*
X71481142Y21110715D01*
X71624000Y20967858D01*
X71838285Y20896429D01*
X72195428Y20896429D01*
X70338285Y20396429D02*
X70338285Y22539286D01*
X69481142Y22396429D02*
X68624000Y22396429D01*
X69052571Y20896429D02*
X69052571Y22396429D01*
X68124000Y20896429D02*
X68124000Y22396429D01*
X67766857Y22396429D01*
X67552571Y22325000D01*
X67409714Y22182143D01*
X67338285Y22039286D01*
X67266857Y21753572D01*
X67266857Y21539286D01*
X67338285Y21253572D01*
X67409714Y21110715D01*
X67552571Y20967858D01*
X67766857Y20896429D01*
X68124000Y20896429D01*
X66338285Y22396429D02*
X66052571Y22396429D01*
X65909714Y22325000D01*
X65766857Y22182143D01*
X65695428Y21896429D01*
X65695428Y21396429D01*
X65766857Y21110715D01*
X65909714Y20967858D01*
X66052571Y20896429D01*
X66338285Y20896429D01*
X66481142Y20967858D01*
X66624000Y21110715D01*
X66695428Y21396429D01*
X66695428Y21896429D01*
X66624000Y22182143D01*
X66481142Y22325000D01*
X66338285Y22396429D01*
X63981142Y22467858D02*
X65266857Y20539286D01*
X63552571Y20967858D02*
X63338285Y20896429D01*
X62981142Y20896429D01*
X62838285Y20967858D01*
X62766857Y21039286D01*
X62695428Y21182143D01*
X62695428Y21325000D01*
X62766857Y21467858D01*
X62838285Y21539286D01*
X62981142Y21610715D01*
X63266857Y21682143D01*
X63409714Y21753572D01*
X63481142Y21825000D01*
X63552571Y21967858D01*
X63552571Y22110715D01*
X63481142Y22253572D01*
X63409714Y22325000D01*
X63266857Y22396429D01*
X62909714Y22396429D01*
X62695428Y22325000D01*
X62195428Y22396429D02*
X61838285Y20896429D01*
X61552571Y21967858D01*
X61266857Y20896429D01*
X60909714Y22396429D01*
X60052571Y22396429D02*
X59766857Y22396429D01*
X59624000Y22325000D01*
X59481142Y22182143D01*
X59409714Y21896429D01*
X59409714Y21396429D01*
X59481142Y21110715D01*
X59624000Y20967858D01*
X59766857Y20896429D01*
X60052571Y20896429D01*
X60195428Y20967858D01*
X60338285Y21110715D01*
X60409714Y21396429D01*
X60409714Y21896429D01*
X60338285Y22182143D01*
X60195428Y22325000D01*
X60052571Y22396429D01*
X74409714Y18346429D02*
X74909714Y19060715D01*
X75266857Y18346429D02*
X75266857Y19846429D01*
X74695428Y19846429D01*
X74552571Y19775000D01*
X74481142Y19703572D01*
X74409714Y19560715D01*
X74409714Y19346429D01*
X74481142Y19203572D01*
X74552571Y19132143D01*
X74695428Y19060715D01*
X75266857Y19060715D01*
X73981142Y19846429D02*
X73124000Y19846429D01*
X73552571Y18346429D02*
X73552571Y19846429D01*
X72695428Y18417858D02*
X72481142Y18346429D01*
X72124000Y18346429D01*
X71981142Y18417858D01*
X71909714Y18489286D01*
X71838285Y18632143D01*
X71838285Y18775000D01*
X71909714Y18917858D01*
X71981142Y18989286D01*
X72124000Y19060715D01*
X72409714Y19132143D01*
X72552571Y19203572D01*
X72624000Y19275000D01*
X72695428Y19417858D01*
X72695428Y19560715D01*
X72624000Y19703572D01*
X72552571Y19775000D01*
X72409714Y19846429D01*
X72052571Y19846429D01*
X71838285Y19775000D01*
X70838285Y17846429D02*
X70838285Y19989286D01*
X70124000Y20495000D02*
X68909714Y20495000D01*
X69838285Y18417858D02*
X69695428Y18346429D01*
X69409714Y18346429D01*
X69266857Y18417858D01*
X69195428Y18560715D01*
X69195428Y18632143D01*
X69266857Y18775000D01*
X69409714Y18846429D01*
X69624000Y18846429D01*
X69766857Y18917858D01*
X69838285Y19060715D01*
X69838285Y19132143D01*
X69766857Y19275000D01*
X69624000Y19346429D01*
X69409714Y19346429D01*
X69266857Y19275000D01*
X68909714Y20495000D02*
X67409714Y20495000D01*
X67695428Y18346429D02*
X68195428Y19060715D01*
X68552571Y18346429D02*
X68552571Y19846429D01*
X67981142Y19846429D01*
X67838285Y19775000D01*
X67766857Y19703572D01*
X67695428Y19560715D01*
X67695428Y19346429D01*
X67766857Y19203572D01*
X67838285Y19132143D01*
X67981142Y19060715D01*
X68552571Y19060715D01*
X67409714Y20495000D02*
X65981142Y20495000D01*
X67124000Y18417858D02*
X66909714Y18346429D01*
X66552571Y18346429D01*
X66409714Y18417858D01*
X66338285Y18489286D01*
X66266857Y18632143D01*
X66266857Y18775000D01*
X66338285Y18917858D01*
X66409714Y18989286D01*
X66552571Y19060715D01*
X66838285Y19132143D01*
X66981142Y19203572D01*
X67052571Y19275000D01*
X67124000Y19417858D01*
X67124000Y19560715D01*
X67052571Y19703572D01*
X66981142Y19775000D01*
X66838285Y19846429D01*
X66481142Y19846429D01*
X66266857Y19775000D01*
X65981142Y20495000D02*
X64838285Y20495000D01*
X65838285Y19846429D02*
X64981142Y19846429D01*
X65409714Y18346429D02*
X65409714Y19846429D01*
X75266857Y15796429D02*
X75266857Y17296429D01*
X74909714Y17296429D01*
X74695428Y17225000D01*
X74552571Y17082143D01*
X74481142Y16939286D01*
X74409714Y16653572D01*
X74409714Y16439286D01*
X74481142Y16153572D01*
X74552571Y16010715D01*
X74695428Y15867858D01*
X74909714Y15796429D01*
X75266857Y15796429D01*
X73981142Y17296429D02*
X73124000Y17296429D01*
X73552571Y15796429D02*
X73552571Y17296429D01*
X71766857Y15796429D02*
X72266857Y16510715D01*
X72624000Y15796429D02*
X72624000Y17296429D01*
X72052571Y17296429D01*
X71909714Y17225000D01*
X71838285Y17153572D01*
X71766857Y17010715D01*
X71766857Y16796429D01*
X71838285Y16653572D01*
X71909714Y16582143D01*
X72052571Y16510715D01*
X72624000Y16510715D01*
X70766857Y15296429D02*
X70766857Y17439286D01*
X68838285Y15796429D02*
X69338285Y16510715D01*
X69695428Y15796429D02*
X69695428Y17296429D01*
X69124000Y17296429D01*
X68981142Y17225000D01*
X68909714Y17153572D01*
X68838285Y17010715D01*
X68838285Y16796429D01*
X68909714Y16653572D01*
X68981142Y16582143D01*
X69124000Y16510715D01*
X69695428Y16510715D01*
X68338285Y17296429D02*
X67338285Y15796429D01*
X67338285Y17296429D02*
X68338285Y15796429D01*
X74409714Y13389286D02*
X74481142Y13317858D01*
X74695428Y13246429D01*
X74838285Y13246429D01*
X75052571Y13317858D01*
X75195428Y13460715D01*
X75266857Y13603572D01*
X75338285Y13889286D01*
X75338285Y14103572D01*
X75266857Y14389286D01*
X75195428Y14532143D01*
X75052571Y14675000D01*
X74838285Y14746429D01*
X74695428Y14746429D01*
X74481142Y14675000D01*
X74409714Y14603572D01*
X73981142Y14746429D02*
X73124000Y14746429D01*
X73552571Y13246429D02*
X73552571Y14746429D01*
X72695428Y13317858D02*
X72481142Y13246429D01*
X72124000Y13246429D01*
X71981142Y13317858D01*
X71909714Y13389286D01*
X71838285Y13532143D01*
X71838285Y13675000D01*
X71909714Y13817858D01*
X71981142Y13889286D01*
X72124000Y13960715D01*
X72409714Y14032143D01*
X72552571Y14103572D01*
X72624000Y14175000D01*
X72695428Y14317858D01*
X72695428Y14460715D01*
X72624000Y14603572D01*
X72552571Y14675000D01*
X72409714Y14746429D01*
X72052571Y14746429D01*
X71838285Y14675000D01*
X70838285Y12746429D02*
X70838285Y14889286D01*
X69981142Y14746429D02*
X69124000Y14746429D01*
X69552571Y13246429D02*
X69552571Y14746429D01*
X68766857Y14746429D02*
X67766857Y13246429D01*
X67766857Y14746429D02*
X68766857Y13246429D01*
X22295928Y23197429D02*
X22295928Y24697429D01*
X21438785Y23197429D01*
X21438785Y24697429D01*
X20153071Y23268858D02*
X20295928Y23197429D01*
X20581642Y23197429D01*
X20724500Y23268858D01*
X20795928Y23411715D01*
X20795928Y23983143D01*
X20724500Y24126000D01*
X20581642Y24197429D01*
X20295928Y24197429D01*
X20153071Y24126000D01*
X20081642Y23983143D01*
X20081642Y23840286D01*
X20795928Y23697429D01*
X19224500Y23197429D02*
X19367357Y23268858D01*
X19438785Y23340286D01*
X19510214Y23483143D01*
X19510214Y23911715D01*
X19438785Y24054572D01*
X19367357Y24126000D01*
X19224500Y24197429D01*
X19010214Y24197429D01*
X18867357Y24126000D01*
X18795928Y24054572D01*
X18724500Y23911715D01*
X18724500Y23483143D01*
X18795928Y23340286D01*
X18867357Y23268858D01*
X19010214Y23197429D01*
X19224500Y23197429D01*
X18295928Y24197429D02*
X17724500Y24197429D01*
X18081642Y23197429D02*
X18081642Y24483143D01*
X18010214Y24626000D01*
X17867357Y24697429D01*
X17724500Y24697429D01*
X17010214Y23197429D02*
X17153071Y23268858D01*
X17224500Y23340286D01*
X17295928Y23483143D01*
X17295928Y23911715D01*
X17224500Y24054572D01*
X17153071Y24126000D01*
X17010214Y24197429D01*
X16795928Y24197429D01*
X16653071Y24126000D01*
X16581642Y24054572D01*
X16510214Y23911715D01*
X16510214Y23483143D01*
X16581642Y23340286D01*
X16653071Y23268858D01*
X16795928Y23197429D01*
X17010214Y23197429D01*
X16010214Y23197429D02*
X15224500Y24197429D01*
X16010214Y24197429D02*
X15224500Y23197429D01*
X14795928Y23197429D02*
X14010214Y24197429D01*
X14795928Y24197429D02*
X14010214Y23197429D01*
D11*
G04 #@! TO.C,RN3*
X85590000Y13560000D02*
X84590000Y13560000D01*
X85590000Y16920000D02*
X84590000Y16920000D01*
G04 #@! TO.C,RN1*
X85590000Y28800000D02*
X84590000Y28800000D01*
X85590000Y32160000D02*
X84590000Y32160000D01*
G04 #@! TO.C,RN2*
X85590000Y18640000D02*
X84590000Y18640000D01*
X85590000Y22000000D02*
X84590000Y22000000D01*
G04 #@! TO.C,RN3*
D12*
X85780476Y11987620D02*
X86113809Y12463810D01*
X86351904Y11987620D02*
X86351904Y12987620D01*
X85970952Y12987620D01*
X85875714Y12940000D01*
X85828095Y12892381D01*
X85780476Y12797143D01*
X85780476Y12654286D01*
X85828095Y12559048D01*
X85875714Y12511429D01*
X85970952Y12463810D01*
X86351904Y12463810D01*
X85351904Y11987620D02*
X85351904Y12987620D01*
X84780476Y11987620D01*
X84780476Y12987620D01*
X84399523Y12987620D02*
X83780476Y12987620D01*
X84113809Y12606667D01*
X83970952Y12606667D01*
X83875714Y12559048D01*
X83828095Y12511429D01*
X83780476Y12416191D01*
X83780476Y12178096D01*
X83828095Y12082858D01*
X83875714Y12035239D01*
X83970952Y11987620D01*
X84256666Y11987620D01*
X84351904Y12035239D01*
X84399523Y12082858D01*
G04 #@! TO.C,RN1*
X85780476Y27227620D02*
X86113809Y27703810D01*
X86351904Y27227620D02*
X86351904Y28227620D01*
X85970952Y28227620D01*
X85875714Y28180000D01*
X85828095Y28132381D01*
X85780476Y28037143D01*
X85780476Y27894286D01*
X85828095Y27799048D01*
X85875714Y27751429D01*
X85970952Y27703810D01*
X86351904Y27703810D01*
X85351904Y27227620D02*
X85351904Y28227620D01*
X84780476Y27227620D01*
X84780476Y28227620D01*
X83780476Y27227620D02*
X84351904Y27227620D01*
X84066190Y27227620D02*
X84066190Y28227620D01*
X84161428Y28084762D01*
X84256666Y27989524D01*
X84351904Y27941905D01*
G04 #@! TO.C,RN2*
X85780476Y17067620D02*
X86113809Y17543810D01*
X86351904Y17067620D02*
X86351904Y18067620D01*
X85970952Y18067620D01*
X85875714Y18020000D01*
X85828095Y17972381D01*
X85780476Y17877143D01*
X85780476Y17734286D01*
X85828095Y17639048D01*
X85875714Y17591429D01*
X85970952Y17543810D01*
X86351904Y17543810D01*
X85351904Y17067620D02*
X85351904Y18067620D01*
X84780476Y17067620D01*
X84780476Y18067620D01*
X84351904Y17972381D02*
X84304285Y18020000D01*
X84209047Y18067620D01*
X83970952Y18067620D01*
X83875714Y18020000D01*
X83828095Y17972381D01*
X83780476Y17877143D01*
X83780476Y17781905D01*
X83828095Y17639048D01*
X84399523Y17067620D01*
X83780476Y17067620D01*
G04 #@! TD*
M02*
