G04 #@! TF.GenerationSoftware,KiCad,Pcbnew,5.0.2-bee76a0~70~ubuntu18.04.1*
G04 #@! TF.CreationDate,2019-06-09T10:31:05+02:00*
G04 #@! TF.ProjectId,JTAG-SWD-adapter,4b744c69-6e6b-4416-9461-707465722e6b,rev?*
G04 #@! TF.SameCoordinates,PX18392c0PY54c81a0*
G04 #@! TF.FileFunction,Legend,Top*
G04 #@! TF.FilePolarity,Positive*
%FSLAX46Y46*%
G04 Gerber Fmt 4.6, Leading zero omitted, Abs format (unit mm)*
G04 Created by KiCad (PCBNEW 5.0.2-bee76a0~70~ubuntu18.04.1) date ned 09 jun 2019 10:31:05 CEST*
%MOMM*%
%LPD*%
G01*
G04 APERTURE LIST*
%ADD10C,0.300000*%
%ADD11C,0.250000*%
%ADD12C,0.200000*%
%ADD13C,0.120000*%
%ADD14C,0.150000*%
G04 APERTURE END LIST*
D10*
X34339500Y15847715D02*
X34339500Y16562000D01*
X34768071Y15704858D02*
X33268071Y16204858D01*
X34768071Y16704858D01*
X33268071Y17204858D02*
X34482357Y17204858D01*
X34625214Y17276286D01*
X34696642Y17347715D01*
X34768071Y17490572D01*
X34768071Y17776286D01*
X34696642Y17919143D01*
X34625214Y17990572D01*
X34482357Y18062000D01*
X33268071Y18062000D01*
X33268071Y18562000D02*
X33268071Y19419143D01*
X34768071Y18990572D02*
X33268071Y18990572D01*
X33268071Y20204858D02*
X33268071Y20490572D01*
X33339500Y20633429D01*
X33482357Y20776286D01*
X33768071Y20847715D01*
X34268071Y20847715D01*
X34553785Y20776286D01*
X34696642Y20633429D01*
X34768071Y20490572D01*
X34768071Y20204858D01*
X34696642Y20062000D01*
X34553785Y19919143D01*
X34268071Y19847715D01*
X33768071Y19847715D01*
X33482357Y19919143D01*
X33339500Y20062000D01*
X33268071Y20204858D01*
X39868071Y16776286D02*
X39153785Y16276286D01*
X39868071Y15919143D02*
X38368071Y15919143D01*
X38368071Y16490572D01*
X38439500Y16633429D01*
X38510928Y16704858D01*
X38653785Y16776286D01*
X38868071Y16776286D01*
X39010928Y16704858D01*
X39082357Y16633429D01*
X39153785Y16490572D01*
X39153785Y15919143D01*
X38368071Y17276286D02*
X39868071Y18276286D01*
X38368071Y18276286D02*
X39868071Y17276286D01*
D11*
X39973771Y30235020D02*
X40069009Y30235020D01*
X40164247Y30187400D01*
X40211866Y30139781D01*
X40259485Y30044543D01*
X40307104Y29854067D01*
X40307104Y29615972D01*
X40259485Y29425496D01*
X40211866Y29330258D01*
X40164247Y29282639D01*
X40069009Y29235020D01*
X39973771Y29235020D01*
X39878533Y29282639D01*
X39830914Y29330258D01*
X39783295Y29425496D01*
X39735676Y29615972D01*
X39735676Y29854067D01*
X39783295Y30044543D01*
X39830914Y30139781D01*
X39878533Y30187400D01*
X39973771Y30235020D01*
X41688057Y30235020D02*
X41783295Y30235020D01*
X41878533Y30187400D01*
X41926152Y30139781D01*
X41973771Y30044543D01*
X42021390Y29854067D01*
X42021390Y29615972D01*
X41973771Y29425496D01*
X41926152Y29330258D01*
X41878533Y29282639D01*
X41783295Y29235020D01*
X41688057Y29235020D01*
X41592819Y29282639D01*
X41545200Y29330258D01*
X41497580Y29425496D01*
X41449961Y29615972D01*
X41449961Y29854067D01*
X41497580Y30044543D01*
X41545200Y30139781D01*
X41592819Y30187400D01*
X41688057Y30235020D01*
X43402342Y30235020D02*
X43497580Y30235020D01*
X43592819Y30187400D01*
X43640438Y30139781D01*
X43688057Y30044543D01*
X43735676Y29854067D01*
X43735676Y29615972D01*
X43688057Y29425496D01*
X43640438Y29330258D01*
X43592819Y29282639D01*
X43497580Y29235020D01*
X43402342Y29235020D01*
X43307104Y29282639D01*
X43259485Y29330258D01*
X43211866Y29425496D01*
X43164247Y29615972D01*
X43164247Y29854067D01*
X43211866Y30044543D01*
X43259485Y30139781D01*
X43307104Y30187400D01*
X43402342Y30235020D01*
X45116628Y30235020D02*
X45211866Y30235020D01*
X45307104Y30187400D01*
X45354723Y30139781D01*
X45402342Y30044543D01*
X45449961Y29854067D01*
X45449961Y29615972D01*
X45402342Y29425496D01*
X45354723Y29330258D01*
X45307104Y29282639D01*
X45211866Y29235020D01*
X45116628Y29235020D01*
X45021390Y29282639D01*
X44973771Y29330258D01*
X44926152Y29425496D01*
X44878533Y29615972D01*
X44878533Y29854067D01*
X44926152Y30044543D01*
X44973771Y30139781D01*
X45021390Y30187400D01*
X45116628Y30235020D01*
X46830914Y30235020D02*
X47021390Y30235020D01*
X47116628Y30187400D01*
X47211866Y30092162D01*
X47259485Y29901686D01*
X47259485Y29568353D01*
X47211866Y29377877D01*
X47116628Y29282639D01*
X47021390Y29235020D01*
X46830914Y29235020D01*
X46735676Y29282639D01*
X46640438Y29377877D01*
X46592819Y29568353D01*
X46592819Y29901686D01*
X46640438Y30092162D01*
X46735676Y30187400D01*
X46830914Y30235020D01*
X48021390Y29758829D02*
X47688057Y29758829D01*
X47688057Y29235020D02*
X47688057Y30235020D01*
X48164247Y30235020D01*
X48878533Y29758829D02*
X48545200Y29758829D01*
X48545200Y29235020D02*
X48545200Y30235020D01*
X49021390Y30235020D01*
X40307104Y27485020D02*
X39735676Y27485020D01*
X40021390Y27485020D02*
X40021390Y28485020D01*
X39926152Y28342162D01*
X39830914Y28246924D01*
X39735676Y28199305D01*
X41688057Y28485020D02*
X41783295Y28485020D01*
X41878533Y28437400D01*
X41926152Y28389781D01*
X41973771Y28294543D01*
X42021390Y28104067D01*
X42021390Y27865972D01*
X41973771Y27675496D01*
X41926152Y27580258D01*
X41878533Y27532639D01*
X41783295Y27485020D01*
X41688057Y27485020D01*
X41592819Y27532639D01*
X41545200Y27580258D01*
X41497580Y27675496D01*
X41449961Y27865972D01*
X41449961Y28104067D01*
X41497580Y28294543D01*
X41545200Y28389781D01*
X41592819Y28437400D01*
X41688057Y28485020D01*
X43402342Y28485020D02*
X43497580Y28485020D01*
X43592819Y28437400D01*
X43640438Y28389781D01*
X43688057Y28294543D01*
X43735676Y28104067D01*
X43735676Y27865972D01*
X43688057Y27675496D01*
X43640438Y27580258D01*
X43592819Y27532639D01*
X43497580Y27485020D01*
X43402342Y27485020D01*
X43307104Y27532639D01*
X43259485Y27580258D01*
X43211866Y27675496D01*
X43164247Y27865972D01*
X43164247Y28104067D01*
X43211866Y28294543D01*
X43259485Y28389781D01*
X43307104Y28437400D01*
X43402342Y28485020D01*
X45116628Y28485020D02*
X45211866Y28485020D01*
X45307104Y28437400D01*
X45354723Y28389781D01*
X45402342Y28294543D01*
X45449961Y28104067D01*
X45449961Y27865972D01*
X45402342Y27675496D01*
X45354723Y27580258D01*
X45307104Y27532639D01*
X45211866Y27485020D01*
X45116628Y27485020D01*
X45021390Y27532639D01*
X44973771Y27580258D01*
X44926152Y27675496D01*
X44878533Y27865972D01*
X44878533Y28104067D01*
X44926152Y28294543D01*
X44973771Y28389781D01*
X45021390Y28437400D01*
X45116628Y28485020D01*
X47116628Y28485020D02*
X46640438Y28485020D01*
X46592819Y28008829D01*
X46640438Y28056448D01*
X46735676Y28104067D01*
X46973771Y28104067D01*
X47069009Y28056448D01*
X47116628Y28008829D01*
X47164247Y27913591D01*
X47164247Y27675496D01*
X47116628Y27580258D01*
X47069009Y27532639D01*
X46973771Y27485020D01*
X46735676Y27485020D01*
X46640438Y27532639D01*
X46592819Y27580258D01*
X47449961Y28485020D02*
X47783295Y27485020D01*
X48116628Y28485020D01*
X39973771Y26735020D02*
X40069009Y26735020D01*
X40164247Y26687400D01*
X40211866Y26639781D01*
X40259485Y26544543D01*
X40307104Y26354067D01*
X40307104Y26115972D01*
X40259485Y25925496D01*
X40211866Y25830258D01*
X40164247Y25782639D01*
X40069009Y25735020D01*
X39973771Y25735020D01*
X39878533Y25782639D01*
X39830914Y25830258D01*
X39783295Y25925496D01*
X39735676Y26115972D01*
X39735676Y26354067D01*
X39783295Y26544543D01*
X39830914Y26639781D01*
X39878533Y26687400D01*
X39973771Y26735020D01*
X42021390Y25735020D02*
X41449961Y25735020D01*
X41735676Y25735020D02*
X41735676Y26735020D01*
X41640438Y26592162D01*
X41545200Y26496924D01*
X41449961Y26449305D01*
X43402342Y26735020D02*
X43497580Y26735020D01*
X43592819Y26687400D01*
X43640438Y26639781D01*
X43688057Y26544543D01*
X43735676Y26354067D01*
X43735676Y26115972D01*
X43688057Y25925496D01*
X43640438Y25830258D01*
X43592819Y25782639D01*
X43497580Y25735020D01*
X43402342Y25735020D01*
X43307104Y25782639D01*
X43259485Y25830258D01*
X43211866Y25925496D01*
X43164247Y26115972D01*
X43164247Y26354067D01*
X43211866Y26544543D01*
X43259485Y26639781D01*
X43307104Y26687400D01*
X43402342Y26735020D01*
X45116628Y26735020D02*
X45211866Y26735020D01*
X45307104Y26687400D01*
X45354723Y26639781D01*
X45402342Y26544543D01*
X45449961Y26354067D01*
X45449961Y26115972D01*
X45402342Y25925496D01*
X45354723Y25830258D01*
X45307104Y25782639D01*
X45211866Y25735020D01*
X45116628Y25735020D01*
X45021390Y25782639D01*
X44973771Y25830258D01*
X44926152Y25925496D01*
X44878533Y26115972D01*
X44878533Y26354067D01*
X44926152Y26544543D01*
X44973771Y26639781D01*
X45021390Y26687400D01*
X45116628Y26735020D01*
X47164247Y25735020D02*
X46592819Y25735020D01*
X46878533Y25735020D02*
X46878533Y26735020D01*
X46783295Y26592162D01*
X46688057Y26496924D01*
X46592819Y26449305D01*
X47592819Y25830258D02*
X47640438Y25782639D01*
X47592819Y25735020D01*
X47545200Y25782639D01*
X47592819Y25830258D01*
X47592819Y25735020D01*
X48211866Y26306448D02*
X48116628Y26354067D01*
X48069009Y26401686D01*
X48021390Y26496924D01*
X48021390Y26544543D01*
X48069009Y26639781D01*
X48116628Y26687400D01*
X48211866Y26735020D01*
X48402342Y26735020D01*
X48497580Y26687400D01*
X48545200Y26639781D01*
X48592819Y26544543D01*
X48592819Y26496924D01*
X48545200Y26401686D01*
X48497580Y26354067D01*
X48402342Y26306448D01*
X48211866Y26306448D01*
X48116628Y26258829D01*
X48069009Y26211210D01*
X48021390Y26115972D01*
X48021390Y25925496D01*
X48069009Y25830258D01*
X48116628Y25782639D01*
X48211866Y25735020D01*
X48402342Y25735020D01*
X48497580Y25782639D01*
X48545200Y25830258D01*
X48592819Y25925496D01*
X48592819Y26115972D01*
X48545200Y26211210D01*
X48497580Y26258829D01*
X48402342Y26306448D01*
X48878533Y26735020D02*
X49211866Y25735020D01*
X49545200Y26735020D01*
X50592819Y26782639D02*
X49735676Y25496924D01*
X50926152Y26258829D02*
X51259485Y26258829D01*
X51402342Y25735020D02*
X50926152Y25735020D01*
X50926152Y26735020D01*
X51402342Y26735020D01*
X51830914Y25735020D02*
X51830914Y26735020D01*
X52402342Y25735020D01*
X52402342Y26735020D01*
X39973771Y24985020D02*
X40069009Y24985020D01*
X40164247Y24937400D01*
X40211866Y24889781D01*
X40259485Y24794543D01*
X40307104Y24604067D01*
X40307104Y24365972D01*
X40259485Y24175496D01*
X40211866Y24080258D01*
X40164247Y24032639D01*
X40069009Y23985020D01*
X39973771Y23985020D01*
X39878533Y24032639D01*
X39830914Y24080258D01*
X39783295Y24175496D01*
X39735676Y24365972D01*
X39735676Y24604067D01*
X39783295Y24794543D01*
X39830914Y24889781D01*
X39878533Y24937400D01*
X39973771Y24985020D01*
X42021390Y23985020D02*
X41449961Y23985020D01*
X41735676Y23985020D02*
X41735676Y24985020D01*
X41640438Y24842162D01*
X41545200Y24746924D01*
X41449961Y24699305D01*
X43735676Y23985020D02*
X43164247Y23985020D01*
X43449961Y23985020D02*
X43449961Y24985020D01*
X43354723Y24842162D01*
X43259485Y24746924D01*
X43164247Y24699305D01*
X45116628Y24985020D02*
X45211866Y24985020D01*
X45307104Y24937400D01*
X45354723Y24889781D01*
X45402342Y24794543D01*
X45449961Y24604067D01*
X45449961Y24365972D01*
X45402342Y24175496D01*
X45354723Y24080258D01*
X45307104Y24032639D01*
X45211866Y23985020D01*
X45116628Y23985020D01*
X45021390Y24032639D01*
X44973771Y24080258D01*
X44926152Y24175496D01*
X44878533Y24365972D01*
X44878533Y24604067D01*
X44926152Y24794543D01*
X44973771Y24889781D01*
X45021390Y24937400D01*
X45116628Y24985020D01*
X46592819Y24889781D02*
X46640438Y24937400D01*
X46735676Y24985020D01*
X46973771Y24985020D01*
X47069009Y24937400D01*
X47116628Y24889781D01*
X47164247Y24794543D01*
X47164247Y24699305D01*
X47116628Y24556448D01*
X46545200Y23985020D01*
X47164247Y23985020D01*
X47592819Y24080258D02*
X47640438Y24032639D01*
X47592819Y23985020D01*
X47545200Y24032639D01*
X47592819Y24080258D01*
X47592819Y23985020D01*
X48545200Y24985020D02*
X48069009Y24985020D01*
X48021390Y24508829D01*
X48069009Y24556448D01*
X48164247Y24604067D01*
X48402342Y24604067D01*
X48497580Y24556448D01*
X48545200Y24508829D01*
X48592819Y24413591D01*
X48592819Y24175496D01*
X48545200Y24080258D01*
X48497580Y24032639D01*
X48402342Y23985020D01*
X48164247Y23985020D01*
X48069009Y24032639D01*
X48021390Y24080258D01*
X48878533Y24985020D02*
X49211866Y23985020D01*
X49545200Y24985020D01*
X39973771Y23235020D02*
X40069009Y23235020D01*
X40164247Y23187400D01*
X40211866Y23139781D01*
X40259485Y23044543D01*
X40307104Y22854067D01*
X40307104Y22615972D01*
X40259485Y22425496D01*
X40211866Y22330258D01*
X40164247Y22282639D01*
X40069009Y22235020D01*
X39973771Y22235020D01*
X39878533Y22282639D01*
X39830914Y22330258D01*
X39783295Y22425496D01*
X39735676Y22615972D01*
X39735676Y22854067D01*
X39783295Y23044543D01*
X39830914Y23139781D01*
X39878533Y23187400D01*
X39973771Y23235020D01*
X42021390Y22235020D02*
X41449961Y22235020D01*
X41735676Y22235020D02*
X41735676Y23235020D01*
X41640438Y23092162D01*
X41545200Y22996924D01*
X41449961Y22949305D01*
X43735676Y22235020D02*
X43164247Y22235020D01*
X43449961Y22235020D02*
X43449961Y23235020D01*
X43354723Y23092162D01*
X43259485Y22996924D01*
X43164247Y22949305D01*
X45449961Y22235020D02*
X44878533Y22235020D01*
X45164247Y22235020D02*
X45164247Y23235020D01*
X45069009Y23092162D01*
X44973771Y22996924D01*
X44878533Y22949305D01*
X46545200Y23235020D02*
X47164247Y23235020D01*
X46830914Y22854067D01*
X46973771Y22854067D01*
X47069009Y22806448D01*
X47116628Y22758829D01*
X47164247Y22663591D01*
X47164247Y22425496D01*
X47116628Y22330258D01*
X47069009Y22282639D01*
X46973771Y22235020D01*
X46688057Y22235020D01*
X46592819Y22282639D01*
X46545200Y22330258D01*
X47592819Y22330258D02*
X47640438Y22282639D01*
X47592819Y22235020D01*
X47545200Y22282639D01*
X47592819Y22330258D01*
X47592819Y22235020D01*
X47973771Y23235020D02*
X48592819Y23235020D01*
X48259485Y22854067D01*
X48402342Y22854067D01*
X48497580Y22806448D01*
X48545200Y22758829D01*
X48592819Y22663591D01*
X48592819Y22425496D01*
X48545200Y22330258D01*
X48497580Y22282639D01*
X48402342Y22235020D01*
X48116628Y22235020D01*
X48021390Y22282639D01*
X47973771Y22330258D01*
X48878533Y23235020D02*
X49211866Y22235020D01*
X49545200Y23235020D01*
D12*
X79248000Y45720000D02*
G75*
G03X79248000Y45720000I-3048000J0D01*
G01*
X79248000Y5080000D02*
G75*
G03X79248000Y5080000I-3048000J0D01*
G01*
X17018000Y5080000D02*
G75*
G03X17018000Y5080000I-3048000J0D01*
G01*
X17018000Y45720000D02*
G75*
G03X17018000Y45720000I-3048000J0D01*
G01*
D13*
G04 #@! TO.C,U5*
X7976000Y26300000D02*
X7976000Y23850000D01*
X11196000Y24500000D02*
X11196000Y26300000D01*
G04 #@! TO.C,U8*
X60497360Y40070200D02*
X60497360Y41870200D01*
X57277360Y41870200D02*
X57277360Y39420200D01*
G04 #@! TO.C,U7*
X21765000Y29510000D02*
X21290000Y29510000D01*
X29510000Y21290000D02*
X29510000Y21765000D01*
X29035000Y21290000D02*
X29510000Y21290000D01*
X21290000Y21290000D02*
X21290000Y21765000D01*
X21765000Y21290000D02*
X21290000Y21290000D01*
X29510000Y29510000D02*
X29510000Y29035000D01*
X29035000Y29510000D02*
X29510000Y29510000D01*
G04 #@! TO.C,D6*
X24623665Y44628692D02*
G75*
G03X27856000Y44471784I1672335J1078608D01*
G01*
X24623665Y46785908D02*
G75*
G02X27856000Y46942816I1672335J-1078608D01*
G01*
X25254870Y44627463D02*
G75*
G03X27336961Y44627300I1041130J1079837D01*
G01*
X25254870Y46787137D02*
G75*
G02X27336961Y46787300I1041130J-1079837D01*
G01*
X27856000Y44471300D02*
X27856000Y44627300D01*
X27856000Y46787300D02*
X27856000Y46943300D01*
G04 #@! TO.C,D5*
X32936000Y46787300D02*
X32936000Y46943300D01*
X32936000Y44471300D02*
X32936000Y44627300D01*
X30334870Y46787137D02*
G75*
G02X32416961Y46787300I1041130J-1079837D01*
G01*
X30334870Y44627463D02*
G75*
G03X32416961Y44627300I1041130J1079837D01*
G01*
X29703665Y46785908D02*
G75*
G02X32936000Y46942816I1672335J-1078608D01*
G01*
X29703665Y44628692D02*
G75*
G03X32936000Y44471784I1672335J1078608D01*
G01*
G04 #@! TO.C,R32*
X30253400Y40570333D02*
X30253400Y40912867D01*
X29233400Y40570333D02*
X29233400Y40912867D01*
G04 #@! TO.C,R33*
X31764700Y40570333D02*
X31764700Y40912867D01*
X30744700Y40570333D02*
X30744700Y40912867D01*
G04 #@! TO.C,R34*
X54273633Y43461400D02*
X54616167Y43461400D01*
X54273633Y42441400D02*
X54616167Y42441400D01*
G04 #@! TO.C,Q3*
X37327960Y40592280D02*
X37327960Y39132280D01*
X34167960Y40592280D02*
X34167960Y38432280D01*
X34167960Y40592280D02*
X35097960Y40592280D01*
X37327960Y40592280D02*
X36397960Y40592280D01*
G04 #@! TO.C,Q2*
X38232200Y34059400D02*
X38232200Y32599400D01*
X35072200Y34059400D02*
X35072200Y31899400D01*
X35072200Y34059400D02*
X36002200Y34059400D01*
X38232200Y34059400D02*
X37302200Y34059400D01*
G04 #@! TO.C,R28*
X36379333Y30300200D02*
X36721867Y30300200D01*
X36379333Y31320200D02*
X36721867Y31320200D01*
G04 #@! TO.C,R29*
X35944627Y37837840D02*
X35602093Y37837840D01*
X35944627Y36817840D02*
X35602093Y36817840D01*
G04 #@! TO.C,R30*
X35604633Y35304000D02*
X35947167Y35304000D01*
X35604633Y36324000D02*
X35947167Y36324000D01*
G04 #@! TO.C,R27*
X36843787Y28820840D02*
X36501253Y28820840D01*
X36843787Y27800840D02*
X36501253Y27800840D01*
G04 #@! TO.C,R31*
X36475853Y41862280D02*
X36818387Y41862280D01*
X36475853Y42882280D02*
X36818387Y42882280D01*
G04 #@! TO.C,J2*
X40446000Y14792000D02*
X40446000Y13462000D01*
X39116000Y14792000D02*
X40446000Y14792000D01*
X37846000Y14792000D02*
X37846000Y12132000D01*
X37846000Y12132000D02*
X32706000Y12132000D01*
X37846000Y14792000D02*
X32706000Y14792000D01*
X32706000Y14792000D02*
X32706000Y12132000D01*
G04 #@! TO.C,R26*
X51796767Y9654000D02*
X51454233Y9654000D01*
X51796767Y8634000D02*
X51454233Y8634000D01*
G04 #@! TO.C,C26*
X27154600Y32088033D02*
X27154600Y32430567D01*
X26134600Y32088033D02*
X26134600Y32430567D01*
G04 #@! TO.C,R6*
X13684067Y26672000D02*
X13341533Y26672000D01*
X13684067Y25652000D02*
X13341533Y25652000D01*
G04 #@! TO.C,R5*
X13684067Y25148000D02*
X13341533Y25148000D01*
X13684067Y24128000D02*
X13341533Y24128000D01*
G04 #@! TO.C,C25*
X15806267Y29974000D02*
X15463733Y29974000D01*
X15806267Y28954000D02*
X15463733Y28954000D01*
G04 #@! TO.C,R25*
X9022233Y21334000D02*
X9364767Y21334000D01*
X9022233Y22354000D02*
X9364767Y22354000D01*
G04 #@! TO.C,R24*
X8955500Y30880233D02*
X8955500Y31222767D01*
X7935500Y30880233D02*
X7935500Y31222767D01*
G04 #@! TO.C,C24*
X70258400Y37533733D02*
X70258400Y37876267D01*
X69238400Y37533733D02*
X69238400Y37876267D01*
G04 #@! TO.C,RN7*
X27487500Y15142000D02*
X26487500Y15142000D01*
X27487500Y11782000D02*
X26487500Y11782000D01*
G04 #@! TO.C,RN8*
X35631500Y25683000D02*
X34631500Y25683000D01*
X35631500Y22323000D02*
X34631500Y22323000D01*
G04 #@! TO.C,SW1*
X42453560Y37260027D02*
X41183560Y37260027D01*
X41253560Y38613360D02*
X41253560Y37260027D01*
X41373560Y38613360D02*
X41373560Y37260027D01*
X41493560Y38613360D02*
X41493560Y37260027D01*
X41613560Y38613360D02*
X41613560Y37260027D01*
X41733560Y38613360D02*
X41733560Y37260027D01*
X41853560Y38613360D02*
X41853560Y37260027D01*
X41973560Y38613360D02*
X41973560Y37260027D01*
X42093560Y38613360D02*
X42093560Y37260027D01*
X42213560Y38613360D02*
X42213560Y37260027D01*
X42333560Y38613360D02*
X42333560Y37260027D01*
X42453560Y34553360D02*
X42453560Y38613360D01*
X41183560Y34553360D02*
X42453560Y34553360D01*
X41183560Y38613360D02*
X41183560Y34553360D01*
X42453560Y38613360D02*
X41183560Y38613360D01*
X44993560Y37260027D02*
X43723560Y37260027D01*
X43793560Y38613360D02*
X43793560Y37260027D01*
X43913560Y38613360D02*
X43913560Y37260027D01*
X44033560Y38613360D02*
X44033560Y37260027D01*
X44153560Y38613360D02*
X44153560Y37260027D01*
X44273560Y38613360D02*
X44273560Y37260027D01*
X44393560Y38613360D02*
X44393560Y37260027D01*
X44513560Y38613360D02*
X44513560Y37260027D01*
X44633560Y38613360D02*
X44633560Y37260027D01*
X44753560Y38613360D02*
X44753560Y37260027D01*
X44873560Y38613360D02*
X44873560Y37260027D01*
X44993560Y34553360D02*
X44993560Y38613360D01*
X43723560Y34553360D02*
X44993560Y34553360D01*
X43723560Y38613360D02*
X43723560Y34553360D01*
X44993560Y38613360D02*
X43723560Y38613360D01*
X47533560Y37260027D02*
X46263560Y37260027D01*
X46333560Y38613360D02*
X46333560Y37260027D01*
X46453560Y38613360D02*
X46453560Y37260027D01*
X46573560Y38613360D02*
X46573560Y37260027D01*
X46693560Y38613360D02*
X46693560Y37260027D01*
X46813560Y38613360D02*
X46813560Y37260027D01*
X46933560Y38613360D02*
X46933560Y37260027D01*
X47053560Y38613360D02*
X47053560Y37260027D01*
X47173560Y38613360D02*
X47173560Y37260027D01*
X47293560Y38613360D02*
X47293560Y37260027D01*
X47413560Y38613360D02*
X47413560Y37260027D01*
X47533560Y34553360D02*
X47533560Y38613360D01*
X46263560Y34553360D02*
X47533560Y34553360D01*
X46263560Y38613360D02*
X46263560Y34553360D01*
X47533560Y38613360D02*
X46263560Y38613360D01*
X50073560Y37260027D02*
X48803560Y37260027D01*
X48873560Y38613360D02*
X48873560Y37260027D01*
X48993560Y38613360D02*
X48993560Y37260027D01*
X49113560Y38613360D02*
X49113560Y37260027D01*
X49233560Y38613360D02*
X49233560Y37260027D01*
X49353560Y38613360D02*
X49353560Y37260027D01*
X49473560Y38613360D02*
X49473560Y37260027D01*
X49593560Y38613360D02*
X49593560Y37260027D01*
X49713560Y38613360D02*
X49713560Y37260027D01*
X49833560Y38613360D02*
X49833560Y37260027D01*
X49953560Y38613360D02*
X49953560Y37260027D01*
X50073560Y34553360D02*
X50073560Y38613360D01*
X48803560Y34553360D02*
X50073560Y34553360D01*
X48803560Y38613360D02*
X48803560Y34553360D01*
X50073560Y38613360D02*
X48803560Y38613360D01*
X52098560Y41773360D02*
X50715560Y41773360D01*
X52098560Y41773360D02*
X52098560Y40389360D01*
X51858560Y31633360D02*
X39398560Y31633360D01*
X51858560Y41533360D02*
X39398560Y41533360D01*
X39398560Y41533360D02*
X39398560Y31633360D01*
X51858560Y41533360D02*
X51858560Y31633360D01*
G04 #@! TO.C,D1*
X88936000Y6160000D02*
X88936000Y6316000D01*
X88936000Y3844000D02*
X88936000Y4000000D01*
X86334870Y6159837D02*
G75*
G02X88416961Y6160000I1041130J-1079837D01*
G01*
X86334870Y4000163D02*
G75*
G03X88416961Y4000000I1041130J1079837D01*
G01*
X85703665Y6158608D02*
G75*
G02X88936000Y6315516I1672335J-1078608D01*
G01*
X85703665Y4001392D02*
G75*
G03X88936000Y3844484I1672335J1078608D01*
G01*
G04 #@! TO.C,D2*
X83856000Y46800000D02*
X83856000Y46956000D01*
X83856000Y44484000D02*
X83856000Y44640000D01*
X81254870Y46799837D02*
G75*
G02X83336961Y46800000I1041130J-1079837D01*
G01*
X81254870Y44640163D02*
G75*
G03X83336961Y44640000I1041130J1079837D01*
G01*
X80623665Y46798608D02*
G75*
G02X83856000Y46955516I1672335J-1078608D01*
G01*
X80623665Y44641392D02*
G75*
G03X83856000Y44484484I1672335J1078608D01*
G01*
G04 #@! TO.C,D3*
X83856000Y6160000D02*
X83856000Y6316000D01*
X83856000Y3844000D02*
X83856000Y4000000D01*
X81254870Y6159837D02*
G75*
G02X83336961Y6160000I1041130J-1079837D01*
G01*
X81254870Y4000163D02*
G75*
G03X83336961Y4000000I1041130J1079837D01*
G01*
X80623665Y6158608D02*
G75*
G02X83856000Y6315516I1672335J-1078608D01*
G01*
X80623665Y4001392D02*
G75*
G03X83856000Y3844484I1672335J1078608D01*
G01*
G04 #@! TO.C,D4*
X88936000Y46800000D02*
X88936000Y46956000D01*
X88936000Y44484000D02*
X88936000Y44640000D01*
X86334870Y46799837D02*
G75*
G02X88416961Y46800000I1041130J-1079837D01*
G01*
X86334870Y44640163D02*
G75*
G03X88416961Y44640000I1041130J1079837D01*
G01*
X85703665Y46798608D02*
G75*
G02X88936000Y46955516I1672335J-1078608D01*
G01*
X85703665Y44641392D02*
G75*
G03X88936000Y44484484I1672335J1078608D01*
G01*
G04 #@! TO.C,U1*
X66512800Y13600000D02*
X66512800Y11150000D01*
X69732800Y11800000D02*
X69732800Y13600000D01*
G04 #@! TO.C,R23*
X72269533Y36320000D02*
X72612067Y36320000D01*
X72269533Y37340000D02*
X72612067Y37340000D01*
G04 #@! TO.C,C14*
X57791533Y37632100D02*
X58134067Y37632100D01*
X57791533Y36612100D02*
X58134067Y36612100D01*
G04 #@! TO.C,C17*
X58984967Y46506860D02*
X58642433Y46506860D01*
X58984967Y45486860D02*
X58642433Y45486860D01*
G04 #@! TO.C,C18*
X63502000Y45534733D02*
X63502000Y45877267D01*
X62482000Y45534733D02*
X62482000Y45877267D01*
G04 #@! TO.C,C19*
X63122993Y30264640D02*
X63465527Y30264640D01*
X63122993Y31284640D02*
X63465527Y31284640D01*
G04 #@! TO.C,C20*
X63121693Y15728220D02*
X63464227Y15728220D01*
X63121693Y16748220D02*
X63464227Y16748220D01*
G04 #@! TO.C,C21*
X42413133Y9256300D02*
X42755667Y9256300D01*
X42413133Y10276300D02*
X42755667Y10276300D01*
G04 #@! TO.C,C22*
X63124233Y22883400D02*
X63466767Y22883400D01*
X63124233Y23903400D02*
X63466767Y23903400D01*
G04 #@! TO.C,C23*
X63121693Y8613680D02*
X63464227Y8613680D01*
X63121693Y9633680D02*
X63464227Y9633680D01*
G04 #@! TO.C,C11*
X22150800Y33191633D02*
X22150800Y33534167D01*
X21130800Y33191633D02*
X21130800Y33534167D01*
G04 #@! TO.C,C7*
X20300048Y40196700D02*
X20822552Y40196700D01*
X20300048Y41616700D02*
X20822552Y41616700D01*
G04 #@! TO.C,C1*
X9223752Y34428500D02*
X8701248Y34428500D01*
X9223752Y33008500D02*
X8701248Y33008500D01*
G04 #@! TO.C,C3*
X4455952Y38238500D02*
X3933448Y38238500D01*
X4455952Y36818500D02*
X3933448Y36818500D01*
G04 #@! TO.C,C5*
X11228000Y30944452D02*
X11228000Y30421948D01*
X12648000Y30944452D02*
X12648000Y30421948D01*
G04 #@! TO.C,C16*
X65670500Y45594748D02*
X65670500Y46117252D01*
X64250500Y45594748D02*
X64250500Y46117252D01*
G04 #@! TO.C,C13*
X62800300Y42272852D02*
X62800300Y41750348D01*
X61380300Y42272852D02*
X61380300Y41750348D01*
G04 #@! TO.C,Y1*
X20554000Y36801000D02*
X15154000Y36801000D01*
X20554000Y32301000D02*
X20554000Y36801000D01*
G04 #@! TO.C,FB2*
X9459500Y31222767D02*
X9459500Y30880233D01*
X10479500Y31222767D02*
X10479500Y30880233D01*
G04 #@! TO.C,FB1*
X12435300Y34283833D02*
X12435300Y34626367D01*
X11415300Y34283833D02*
X11415300Y34626367D01*
G04 #@! TO.C,FB3*
X16718067Y41416700D02*
X16375533Y41416700D01*
X16718067Y40396700D02*
X16375533Y40396700D01*
D14*
G04 #@! TO.C,U6*
X23154400Y37091800D02*
X23154400Y35691800D01*
X28254400Y37091800D02*
X28254400Y41241800D01*
X23104400Y37091800D02*
X23104400Y41241800D01*
X28254400Y37091800D02*
X28109400Y37091800D01*
X28254400Y41241800D02*
X28109400Y41241800D01*
X23104400Y41241800D02*
X23249400Y41241800D01*
X23104400Y37091800D02*
X23154400Y37091800D01*
G04 #@! TO.C,U9*
X55269500Y31329000D02*
X53919500Y31329000D01*
X55269500Y26204000D02*
X59919500Y26204000D01*
X55269500Y31454000D02*
X59919500Y31454000D01*
X55269500Y26204000D02*
X55269500Y26429000D01*
X59919500Y26204000D02*
X59919500Y26429000D01*
X59919500Y31454000D02*
X59919500Y31229000D01*
X55269500Y31454000D02*
X55269500Y31329000D01*
G04 #@! TO.C,U13*
X55235000Y9675500D02*
X53885000Y9675500D01*
X55235000Y4550500D02*
X59885000Y4550500D01*
X55235000Y9800500D02*
X59885000Y9800500D01*
X55235000Y4550500D02*
X55235000Y4775500D01*
X59885000Y4550500D02*
X59885000Y4775500D01*
X59885000Y9800500D02*
X59885000Y9575500D01*
X55235000Y9800500D02*
X55235000Y9675500D01*
G04 #@! TO.C,U11*
X55206000Y16787500D02*
X53856000Y16787500D01*
X55206000Y11662500D02*
X59856000Y11662500D01*
X55206000Y16912500D02*
X59856000Y16912500D01*
X55206000Y11662500D02*
X55206000Y11887500D01*
X59856000Y11662500D02*
X59856000Y11887500D01*
X59856000Y16912500D02*
X59856000Y16687500D01*
X55206000Y16912500D02*
X55206000Y16787500D01*
G04 #@! TO.C,U12*
X55269500Y23963000D02*
X53919500Y23963000D01*
X55269500Y18838000D02*
X59919500Y18838000D01*
X55269500Y24088000D02*
X59919500Y24088000D01*
X55269500Y18838000D02*
X55269500Y19063000D01*
X59919500Y18838000D02*
X59919500Y19063000D01*
X59919500Y24088000D02*
X59919500Y23863000D01*
X55269500Y24088000D02*
X55269500Y23963000D01*
G04 #@! TO.C,U10*
X32884820Y10285380D02*
X38859820Y10285380D01*
X34459820Y4760380D02*
X38859820Y4760380D01*
D13*
G04 #@! TO.C,U4*
X7990000Y36871000D02*
X10440000Y36871000D01*
X9790000Y40091000D02*
X7990000Y40091000D01*
G04 #@! TO.C,U3*
X66512800Y21220000D02*
X66512800Y18770000D01*
X69732800Y19420000D02*
X69732800Y21220000D01*
G04 #@! TO.C,U2*
X66512800Y31380000D02*
X66512800Y28930000D01*
X69732800Y29580000D02*
X69732800Y31380000D01*
G04 #@! TO.C,R21*
X51810767Y15115000D02*
X51468233Y15115000D01*
X51810767Y14095000D02*
X51468233Y14095000D01*
G04 #@! TO.C,R8*
X55417180Y36371713D02*
X55417180Y36714247D01*
X54397180Y36371713D02*
X54397180Y36714247D01*
G04 #@! TO.C,R9*
X52837620Y36715487D02*
X52837620Y36372953D01*
X53857620Y36715487D02*
X53857620Y36372953D01*
G04 #@! TO.C,R10*
X54282493Y45550360D02*
X54625027Y45550360D01*
X54282493Y46570360D02*
X54625027Y46570360D01*
G04 #@! TO.C,R4*
X15806267Y28500800D02*
X15463733Y28500800D01*
X15806267Y27480800D02*
X15463733Y27480800D01*
G04 #@! TO.C,R11*
X54281253Y43990800D02*
X54623787Y43990800D01*
X54281253Y45010800D02*
X54623787Y45010800D01*
G04 #@! TO.C,R1*
X3257733Y18286000D02*
X3600267Y18286000D01*
X3257733Y19306000D02*
X3600267Y19306000D01*
G04 #@! TO.C,R2*
X30536967Y36984400D02*
X30194433Y36984400D01*
X30536967Y35964400D02*
X30194433Y35964400D01*
G04 #@! TO.C,R22*
X51874267Y23941500D02*
X51531733Y23941500D01*
X51874267Y22921500D02*
X51531733Y22921500D01*
G04 #@! TO.C,R19*
X54296493Y39200360D02*
X54639027Y39200360D01*
X54296493Y40220360D02*
X54639027Y40220360D01*
G04 #@! TO.C,R20*
X58984967Y44926980D02*
X58642433Y44926980D01*
X58984967Y43906980D02*
X58642433Y43906980D01*
G04 #@! TO.C,R3*
X30535667Y38508400D02*
X30193133Y38508400D01*
X30535667Y37488400D02*
X30193133Y37488400D01*
G04 #@! TO.C,C12*
X14543500Y34106033D02*
X14543500Y34448567D01*
X13523500Y34106033D02*
X13523500Y34448567D01*
G04 #@! TO.C,RN6*
X72940800Y14380000D02*
X71940800Y14380000D01*
X72940800Y11020000D02*
X71940800Y11020000D01*
G04 #@! TO.C,RN5*
X72940800Y22000000D02*
X71940800Y22000000D01*
X72940800Y18640000D02*
X71940800Y18640000D01*
G04 #@! TO.C,RN4*
X72940800Y32160000D02*
X71940800Y32160000D01*
X72940800Y28800000D02*
X71940800Y28800000D01*
D14*
G04 #@! TO.C,J4*
X81110000Y13570000D02*
X81810000Y13570000D01*
X81110000Y14370000D02*
X81810000Y14370000D01*
X78570000Y13570000D02*
X78910000Y13570000D01*
X78570000Y14370000D02*
X78910000Y14370000D01*
X81110000Y16110000D02*
X81810000Y16110000D01*
X81110000Y16910000D02*
X81810000Y16910000D01*
X78570000Y16110000D02*
X78910000Y16110000D01*
X78570000Y16910000D02*
X78910000Y16910000D01*
X81110000Y18650000D02*
X81810000Y18650000D01*
X81110000Y19450000D02*
X81810000Y19450000D01*
X78570000Y18650000D02*
X78910000Y18650000D01*
X78570000Y19450000D02*
X78910000Y19450000D01*
X81110000Y21190000D02*
X81810000Y21190000D01*
X81110000Y21990000D02*
X81810000Y21990000D01*
X78570000Y21190000D02*
X78910000Y21190000D01*
X78570000Y21990000D02*
X78910000Y21990000D01*
X81110000Y23730000D02*
X81810000Y23730000D01*
X81110000Y24530000D02*
X81810000Y24530000D01*
X78570000Y23730000D02*
X78910000Y23730000D01*
X78570000Y24530000D02*
X78910000Y24530000D01*
X81110000Y26270000D02*
X81810000Y26270000D01*
X81110000Y27070000D02*
X81810000Y27070000D01*
X78570000Y26270000D02*
X78910000Y26270000D01*
X78570000Y27070000D02*
X78910000Y27070000D01*
X81110000Y28810000D02*
X81810000Y28810000D01*
X81110000Y29610000D02*
X81810000Y29610000D01*
X78570000Y28810000D02*
X78910000Y28810000D01*
X78570000Y29610000D02*
X78910000Y29610000D01*
X81110000Y31350000D02*
X81810000Y31350000D01*
X81110000Y32150000D02*
X81810000Y32150000D01*
X78570000Y31350000D02*
X78910000Y31350000D01*
X78570000Y32150000D02*
X78910000Y32150000D01*
X81110000Y33890000D02*
X81810000Y33890000D01*
X81110000Y34690000D02*
X81810000Y34690000D01*
X78570000Y33890000D02*
X78910000Y33890000D01*
X78570000Y34690000D02*
X78910000Y34690000D01*
X81110000Y36430000D02*
X81810000Y36430000D01*
X81110000Y37230000D02*
X81810000Y37230000D01*
X78570000Y36430000D02*
X78910000Y36430000D01*
X78570000Y37230000D02*
X78910000Y37230000D01*
X88470000Y36830000D02*
X89970000Y37830000D01*
X89970000Y35830000D02*
X88470000Y36830000D01*
X89970000Y37830000D02*
X89970000Y35830000D01*
X90310000Y23730000D02*
X84110000Y23730000D01*
X90510000Y23930000D02*
X90310000Y23730000D01*
X90510000Y24330000D02*
X90510000Y23930000D01*
X90310000Y24530000D02*
X90510000Y24330000D01*
X84110000Y24530000D02*
X90310000Y24530000D01*
X90310000Y26270000D02*
X84110000Y26270000D01*
X90510000Y26470000D02*
X90310000Y26270000D01*
X90510000Y26870000D02*
X90510000Y26470000D01*
X90310000Y27070000D02*
X90510000Y26870000D01*
X84110000Y27070000D02*
X90310000Y27070000D01*
X84110000Y23175000D02*
X90710000Y23175000D01*
X84110000Y27625000D02*
X84110000Y23175000D01*
X90710000Y27625000D02*
X84110000Y27625000D01*
X81810000Y8900000D02*
X81810000Y41900000D01*
X90710000Y8900000D02*
X81810000Y8900000D01*
X90710000Y41900000D02*
X90710000Y8900000D01*
X81810000Y41900000D02*
X90710000Y41900000D01*
D13*
G04 #@! TO.C,R16*
X70296500Y41167233D02*
X70296500Y41509767D01*
X69276500Y41167233D02*
X69276500Y41509767D01*
G04 #@! TO.C,R7*
X17633767Y21147500D02*
X17291233Y21147500D01*
X17633767Y20127500D02*
X17291233Y20127500D01*
G04 #@! TO.C,R18*
X54286333Y40846280D02*
X54628867Y40846280D01*
X54286333Y41866280D02*
X54628867Y41866280D01*
G04 #@! TO.C,C6*
X18874200Y29216533D02*
X18874200Y29559067D01*
X17854200Y29216533D02*
X17854200Y29559067D01*
G04 #@! TO.C,R17*
X85059733Y48004000D02*
X85402267Y48004000D01*
X85059733Y49024000D02*
X85402267Y49024000D01*
G04 #@! TO.C,Q1*
X73356500Y39695000D02*
X71896500Y39695000D01*
X73356500Y42855000D02*
X71196500Y42855000D01*
X73356500Y42855000D02*
X73356500Y41925000D01*
X73356500Y39695000D02*
X73356500Y40625000D01*
G04 #@! TO.C,C2*
X9315267Y36006500D02*
X8972733Y36006500D01*
X9315267Y34986500D02*
X8972733Y34986500D01*
G04 #@! TO.C,C4*
X4515967Y39854600D02*
X4173433Y39854600D01*
X4515967Y38834600D02*
X4173433Y38834600D01*
G04 #@! TO.C,C10*
X18370367Y38381400D02*
X18027833Y38381400D01*
X18370367Y37361400D02*
X18027833Y37361400D01*
G04 #@! TO.C,C9*
X17468667Y24195500D02*
X17126133Y24195500D01*
X17468667Y23175500D02*
X17126133Y23175500D01*
G04 #@! TO.C,C8*
X30231448Y30735200D02*
X30753952Y30735200D01*
X30231448Y32155200D02*
X30753952Y32155200D01*
G04 #@! TO.C,R15*
X81338267Y2796000D02*
X80995733Y2796000D01*
X81338267Y1776000D02*
X80995733Y1776000D01*
G04 #@! TO.C,R14*
X70896267Y44388500D02*
X70553733Y44388500D01*
X70896267Y43368500D02*
X70553733Y43368500D01*
G04 #@! TO.C,R13*
X80981733Y49024000D02*
X81324267Y49024000D01*
X80981733Y48004000D02*
X81324267Y48004000D01*
G04 #@! TO.C,R12*
X85402267Y2796000D02*
X85059733Y2796000D01*
X85402267Y1776000D02*
X85059733Y1776000D01*
G04 #@! TO.C,U5*
D14*
X8509095Y20740620D02*
X8509095Y19931096D01*
X8556714Y19835858D01*
X8604333Y19788239D01*
X8699571Y19740620D01*
X8890047Y19740620D01*
X8985285Y19788239D01*
X9032904Y19835858D01*
X9080523Y19931096D01*
X9080523Y20740620D01*
X10032904Y20740620D02*
X9556714Y20740620D01*
X9509095Y20264429D01*
X9556714Y20312048D01*
X9651952Y20359667D01*
X9890047Y20359667D01*
X9985285Y20312048D01*
X10032904Y20264429D01*
X10080523Y20169191D01*
X10080523Y19931096D01*
X10032904Y19835858D01*
X9985285Y19788239D01*
X9890047Y19740620D01*
X9651952Y19740620D01*
X9556714Y19788239D01*
X9509095Y19835858D01*
G04 #@! TO.C,U8*
X59677395Y38888920D02*
X59677395Y38079396D01*
X59725014Y37984158D01*
X59772633Y37936539D01*
X59867871Y37888920D01*
X60058347Y37888920D01*
X60153585Y37936539D01*
X60201204Y37984158D01*
X60248823Y38079396D01*
X60248823Y38888920D01*
X60867871Y38460348D02*
X60772633Y38507967D01*
X60725014Y38555586D01*
X60677395Y38650824D01*
X60677395Y38698443D01*
X60725014Y38793681D01*
X60772633Y38841300D01*
X60867871Y38888920D01*
X61058347Y38888920D01*
X61153585Y38841300D01*
X61201204Y38793681D01*
X61248823Y38698443D01*
X61248823Y38650824D01*
X61201204Y38555586D01*
X61153585Y38507967D01*
X61058347Y38460348D01*
X60867871Y38460348D01*
X60772633Y38412729D01*
X60725014Y38365110D01*
X60677395Y38269872D01*
X60677395Y38079396D01*
X60725014Y37984158D01*
X60772633Y37936539D01*
X60867871Y37888920D01*
X61058347Y37888920D01*
X61153585Y37936539D01*
X61201204Y37984158D01*
X61248823Y38079396D01*
X61248823Y38269872D01*
X61201204Y38365110D01*
X61153585Y38412729D01*
X61058347Y38460348D01*
G04 #@! TO.C,H4*
X70827995Y5567420D02*
X70827995Y6567420D01*
X70827995Y6091229D02*
X71399423Y6091229D01*
X71399423Y5567420D02*
X71399423Y6567420D01*
X72304185Y6234086D02*
X72304185Y5567420D01*
X72066090Y6615039D02*
X71827995Y5900753D01*
X72447042Y5900753D01*
G04 #@! TO.C,H3*
X71285195Y47248820D02*
X71285195Y48248820D01*
X71285195Y47772629D02*
X71856623Y47772629D01*
X71856623Y47248820D02*
X71856623Y48248820D01*
X72237576Y48248820D02*
X72856623Y48248820D01*
X72523290Y47867867D01*
X72666147Y47867867D01*
X72761385Y47820248D01*
X72809004Y47772629D01*
X72856623Y47677391D01*
X72856623Y47439296D01*
X72809004Y47344058D01*
X72761385Y47296439D01*
X72666147Y47248820D01*
X72380433Y47248820D01*
X72285195Y47296439D01*
X72237576Y47344058D01*
G04 #@! TO.C,H2*
X8534495Y4640320D02*
X8534495Y5640320D01*
X8534495Y5164129D02*
X9105923Y5164129D01*
X9105923Y4640320D02*
X9105923Y5640320D01*
X9534495Y5545081D02*
X9582114Y5592700D01*
X9677352Y5640320D01*
X9915447Y5640320D01*
X10010685Y5592700D01*
X10058304Y5545081D01*
X10105923Y5449843D01*
X10105923Y5354605D01*
X10058304Y5211748D01*
X9486876Y4640320D01*
X10105923Y4640320D01*
G04 #@! TO.C,H1*
X17716595Y45280320D02*
X17716595Y46280320D01*
X17716595Y45804129D02*
X18288023Y45804129D01*
X18288023Y45280320D02*
X18288023Y46280320D01*
X19288023Y45280320D02*
X18716595Y45280320D01*
X19002309Y45280320D02*
X19002309Y46280320D01*
X18907071Y46137462D01*
X18811833Y46042224D01*
X18716595Y45994605D01*
G04 #@! TO.C,U7*
X22352095Y31484820D02*
X22352095Y30675296D01*
X22399714Y30580058D01*
X22447333Y30532439D01*
X22542571Y30484820D01*
X22733047Y30484820D01*
X22828285Y30532439D01*
X22875904Y30580058D01*
X22923523Y30675296D01*
X22923523Y31484820D01*
X23304476Y31484820D02*
X23971142Y31484820D01*
X23542571Y30484820D01*
G04 #@! TO.C,D6*
X22121904Y46791620D02*
X22121904Y47791620D01*
X22360000Y47791620D01*
X22502857Y47744000D01*
X22598095Y47648762D01*
X22645714Y47553524D01*
X22693333Y47363048D01*
X22693333Y47220191D01*
X22645714Y47029715D01*
X22598095Y46934477D01*
X22502857Y46839239D01*
X22360000Y46791620D01*
X22121904Y46791620D01*
X23550476Y47791620D02*
X23360000Y47791620D01*
X23264761Y47744000D01*
X23217142Y47696381D01*
X23121904Y47553524D01*
X23074285Y47363048D01*
X23074285Y46982096D01*
X23121904Y46886858D01*
X23169523Y46839239D01*
X23264761Y46791620D01*
X23455238Y46791620D01*
X23550476Y46839239D01*
X23598095Y46886858D01*
X23645714Y46982096D01*
X23645714Y47220191D01*
X23598095Y47315429D01*
X23550476Y47363048D01*
X23455238Y47410667D01*
X23264761Y47410667D01*
X23169523Y47363048D01*
X23121904Y47315429D01*
X23074285Y47220191D01*
G04 #@! TO.C,D5*
X33996404Y46537620D02*
X33996404Y47537620D01*
X34234500Y47537620D01*
X34377357Y47490000D01*
X34472595Y47394762D01*
X34520214Y47299524D01*
X34567833Y47109048D01*
X34567833Y46966191D01*
X34520214Y46775715D01*
X34472595Y46680477D01*
X34377357Y46585239D01*
X34234500Y46537620D01*
X33996404Y46537620D01*
X35472595Y47537620D02*
X34996404Y47537620D01*
X34948785Y47061429D01*
X34996404Y47109048D01*
X35091642Y47156667D01*
X35329738Y47156667D01*
X35424976Y47109048D01*
X35472595Y47061429D01*
X35520214Y46966191D01*
X35520214Y46728096D01*
X35472595Y46632858D01*
X35424976Y46585239D01*
X35329738Y46537620D01*
X35091642Y46537620D01*
X34996404Y46585239D01*
X34948785Y46632858D01*
G04 #@! TO.C,R32*
X28765780Y40098743D02*
X28289590Y39765410D01*
X28765780Y39527315D02*
X27765780Y39527315D01*
X27765780Y39908267D01*
X27813400Y40003505D01*
X27861019Y40051124D01*
X27956257Y40098743D01*
X28099114Y40098743D01*
X28194352Y40051124D01*
X28241971Y40003505D01*
X28289590Y39908267D01*
X28289590Y39527315D01*
X27765780Y40432077D02*
X27765780Y41051124D01*
X28146733Y40717791D01*
X28146733Y40860648D01*
X28194352Y40955886D01*
X28241971Y41003505D01*
X28337209Y41051124D01*
X28575304Y41051124D01*
X28670542Y41003505D01*
X28718161Y40955886D01*
X28765780Y40860648D01*
X28765780Y40574934D01*
X28718161Y40479696D01*
X28670542Y40432077D01*
X27861019Y41432077D02*
X27813400Y41479696D01*
X27765780Y41574934D01*
X27765780Y41813029D01*
X27813400Y41908267D01*
X27861019Y41955886D01*
X27956257Y42003505D01*
X28051495Y42003505D01*
X28194352Y41955886D01*
X28765780Y41384458D01*
X28765780Y42003505D01*
G04 #@! TO.C,R33*
X30277080Y40098743D02*
X29800890Y39765410D01*
X30277080Y39527315D02*
X29277080Y39527315D01*
X29277080Y39908267D01*
X29324700Y40003505D01*
X29372319Y40051124D01*
X29467557Y40098743D01*
X29610414Y40098743D01*
X29705652Y40051124D01*
X29753271Y40003505D01*
X29800890Y39908267D01*
X29800890Y39527315D01*
X29277080Y40432077D02*
X29277080Y41051124D01*
X29658033Y40717791D01*
X29658033Y40860648D01*
X29705652Y40955886D01*
X29753271Y41003505D01*
X29848509Y41051124D01*
X30086604Y41051124D01*
X30181842Y41003505D01*
X30229461Y40955886D01*
X30277080Y40860648D01*
X30277080Y40574934D01*
X30229461Y40479696D01*
X30181842Y40432077D01*
X29277080Y41384458D02*
X29277080Y42003505D01*
X29658033Y41670172D01*
X29658033Y41813029D01*
X29705652Y41908267D01*
X29753271Y41955886D01*
X29848509Y42003505D01*
X30086604Y42003505D01*
X30181842Y41955886D01*
X30229461Y41908267D01*
X30277080Y41813029D01*
X30277080Y41527315D01*
X30229461Y41432077D01*
X30181842Y41384458D01*
G04 #@! TO.C,R34*
X50538142Y44835820D02*
X50204809Y45312010D01*
X49966714Y44835820D02*
X49966714Y45835820D01*
X50347666Y45835820D01*
X50442904Y45788200D01*
X50490523Y45740581D01*
X50538142Y45645343D01*
X50538142Y45502486D01*
X50490523Y45407248D01*
X50442904Y45359629D01*
X50347666Y45312010D01*
X49966714Y45312010D01*
X50871476Y45835820D02*
X51490523Y45835820D01*
X51157190Y45454867D01*
X51300047Y45454867D01*
X51395285Y45407248D01*
X51442904Y45359629D01*
X51490523Y45264391D01*
X51490523Y45026296D01*
X51442904Y44931058D01*
X51395285Y44883439D01*
X51300047Y44835820D01*
X51014333Y44835820D01*
X50919095Y44883439D01*
X50871476Y44931058D01*
X52347666Y45502486D02*
X52347666Y44835820D01*
X52109571Y45883439D02*
X51871476Y45169153D01*
X52490523Y45169153D01*
G04 #@! TO.C,Q3*
X32919681Y39289741D02*
X32824443Y39337360D01*
X32729205Y39432599D01*
X32586348Y39575456D01*
X32491110Y39623075D01*
X32395872Y39623075D01*
X32443491Y39384980D02*
X32348253Y39432599D01*
X32253015Y39527837D01*
X32205396Y39718313D01*
X32205396Y40051646D01*
X32253015Y40242122D01*
X32348253Y40337360D01*
X32443491Y40384980D01*
X32633967Y40384980D01*
X32729205Y40337360D01*
X32824443Y40242122D01*
X32872062Y40051646D01*
X32872062Y39718313D01*
X32824443Y39527837D01*
X32729205Y39432599D01*
X32633967Y39384980D01*
X32443491Y39384980D01*
X33205396Y40384980D02*
X33824443Y40384980D01*
X33491110Y40004027D01*
X33633967Y40004027D01*
X33729205Y39956408D01*
X33776824Y39908789D01*
X33824443Y39813551D01*
X33824443Y39575456D01*
X33776824Y39480218D01*
X33729205Y39432599D01*
X33633967Y39384980D01*
X33348253Y39384980D01*
X33253015Y39432599D01*
X33205396Y39480218D01*
G04 #@! TO.C,Q2*
X33793441Y32299661D02*
X33698203Y32347280D01*
X33602965Y32442519D01*
X33460108Y32585376D01*
X33364870Y32632995D01*
X33269632Y32632995D01*
X33317251Y32394900D02*
X33222013Y32442519D01*
X33126775Y32537757D01*
X33079156Y32728233D01*
X33079156Y33061566D01*
X33126775Y33252042D01*
X33222013Y33347280D01*
X33317251Y33394900D01*
X33507727Y33394900D01*
X33602965Y33347280D01*
X33698203Y33252042D01*
X33745822Y33061566D01*
X33745822Y32728233D01*
X33698203Y32537757D01*
X33602965Y32442519D01*
X33507727Y32394900D01*
X33317251Y32394900D01*
X34126775Y33299661D02*
X34174394Y33347280D01*
X34269632Y33394900D01*
X34507727Y33394900D01*
X34602965Y33347280D01*
X34650584Y33299661D01*
X34698203Y33204423D01*
X34698203Y33109185D01*
X34650584Y32966328D01*
X34079156Y32394900D01*
X34698203Y32394900D01*
G04 #@! TO.C,R28*
X33545712Y29339790D02*
X32973293Y29440805D01*
X33141651Y28935729D02*
X32434545Y29642836D01*
X32703919Y29912210D01*
X32804934Y29945882D01*
X32872277Y29945882D01*
X32973293Y29912210D01*
X33074308Y29811195D01*
X33107980Y29710179D01*
X33107980Y29642836D01*
X33074308Y29541821D01*
X32804934Y29272447D01*
X33175323Y30248928D02*
X33175323Y30316271D01*
X33208995Y30417286D01*
X33377354Y30585645D01*
X33478369Y30619317D01*
X33545712Y30619317D01*
X33646728Y30585645D01*
X33714071Y30518302D01*
X33781415Y30383615D01*
X33781415Y29575492D01*
X34219148Y30013225D01*
X34219148Y30821347D02*
X34118132Y30787676D01*
X34050789Y30787676D01*
X33949774Y30821347D01*
X33916102Y30855019D01*
X33882430Y30956034D01*
X33882430Y31023378D01*
X33916102Y31124393D01*
X34050789Y31259080D01*
X34151804Y31292752D01*
X34219148Y31292752D01*
X34320163Y31259080D01*
X34353835Y31225408D01*
X34387506Y31124393D01*
X34387506Y31057050D01*
X34353835Y30956034D01*
X34219148Y30821347D01*
X34185476Y30720332D01*
X34185476Y30652989D01*
X34219148Y30551973D01*
X34353835Y30417286D01*
X34454850Y30383615D01*
X34522193Y30383615D01*
X34623209Y30417286D01*
X34757896Y30551973D01*
X34791567Y30652989D01*
X34791567Y30720332D01*
X34757896Y30821347D01*
X34623209Y30956034D01*
X34522193Y30989706D01*
X34454850Y30989706D01*
X34353835Y30956034D01*
G04 #@! TO.C,R29*
X32917763Y35838478D02*
X32338717Y35889220D01*
X32550456Y35400739D02*
X31784411Y36043526D01*
X32029283Y36335353D01*
X32126979Y36377701D01*
X32194066Y36383570D01*
X32297632Y36358830D01*
X32407067Y36267004D01*
X32449414Y36169307D01*
X32455284Y36102220D01*
X32430544Y35998655D01*
X32185673Y35706828D01*
X32469546Y36711875D02*
X32463677Y36778962D01*
X32488417Y36882527D01*
X32641461Y37064919D01*
X32739157Y37107267D01*
X32806245Y37113136D01*
X32909810Y37088396D01*
X32982767Y37027179D01*
X33061593Y36898874D01*
X33132025Y36093827D01*
X33529941Y36568045D01*
X33836031Y36932828D02*
X33958467Y37078741D01*
X33983206Y37182306D01*
X33977337Y37249394D01*
X33929120Y37414177D01*
X33813815Y37573091D01*
X33521989Y37817963D01*
X33418423Y37842702D01*
X33351336Y37836833D01*
X33253640Y37794485D01*
X33131204Y37648572D01*
X33106465Y37545006D01*
X33112334Y37477919D01*
X33154682Y37380223D01*
X33337073Y37227178D01*
X33440639Y37202439D01*
X33507726Y37208308D01*
X33605422Y37250656D01*
X33727858Y37396569D01*
X33752598Y37500135D01*
X33746728Y37567222D01*
X33704380Y37664918D01*
G04 #@! TO.C,R30*
X32798952Y34013390D02*
X32226533Y34114405D01*
X32394891Y33609329D02*
X31687785Y34316436D01*
X31957159Y34585810D01*
X32058174Y34619482D01*
X32125517Y34619482D01*
X32226533Y34585810D01*
X32327548Y34484795D01*
X32361220Y34383779D01*
X32361220Y34316436D01*
X32327548Y34215421D01*
X32058174Y33946047D01*
X32327548Y34956199D02*
X32765281Y35393932D01*
X32798952Y34888856D01*
X32899968Y34989871D01*
X33000983Y35023543D01*
X33068327Y35023543D01*
X33169342Y34989871D01*
X33337701Y34821512D01*
X33371372Y34720497D01*
X33371372Y34653153D01*
X33337701Y34552138D01*
X33135670Y34350108D01*
X33034655Y34316436D01*
X32967311Y34316436D01*
X33203014Y35831665D02*
X33270357Y35899008D01*
X33371372Y35932680D01*
X33438716Y35932680D01*
X33539731Y35899008D01*
X33708090Y35797993D01*
X33876449Y35629634D01*
X33977464Y35461276D01*
X34011136Y35360260D01*
X34011136Y35292917D01*
X33977464Y35191902D01*
X33910120Y35124558D01*
X33809105Y35090886D01*
X33741762Y35090886D01*
X33640746Y35124558D01*
X33472388Y35225573D01*
X33304029Y35393932D01*
X33203014Y35562291D01*
X33169342Y35663306D01*
X33169342Y35730650D01*
X33203014Y35831665D01*
G04 #@! TO.C,R27*
X36029662Y26428460D02*
X35696329Y26904650D01*
X35458234Y26428460D02*
X35458234Y27428460D01*
X35839186Y27428460D01*
X35934424Y27380840D01*
X35982043Y27333221D01*
X36029662Y27237983D01*
X36029662Y27095126D01*
X35982043Y26999888D01*
X35934424Y26952269D01*
X35839186Y26904650D01*
X35458234Y26904650D01*
X36410615Y27333221D02*
X36458234Y27380840D01*
X36553472Y27428460D01*
X36791567Y27428460D01*
X36886805Y27380840D01*
X36934424Y27333221D01*
X36982043Y27237983D01*
X36982043Y27142745D01*
X36934424Y26999888D01*
X36362996Y26428460D01*
X36982043Y26428460D01*
X37315377Y27428460D02*
X37982043Y27428460D01*
X37553472Y26428460D01*
G04 #@! TO.C,R31*
X36004262Y43349900D02*
X35670929Y43826090D01*
X35432834Y43349900D02*
X35432834Y44349900D01*
X35813786Y44349900D01*
X35909024Y44302280D01*
X35956643Y44254661D01*
X36004262Y44159423D01*
X36004262Y44016566D01*
X35956643Y43921328D01*
X35909024Y43873709D01*
X35813786Y43826090D01*
X35432834Y43826090D01*
X36337596Y44349900D02*
X36956643Y44349900D01*
X36623310Y43968947D01*
X36766167Y43968947D01*
X36861405Y43921328D01*
X36909024Y43873709D01*
X36956643Y43778471D01*
X36956643Y43540376D01*
X36909024Y43445138D01*
X36861405Y43397519D01*
X36766167Y43349900D01*
X36480453Y43349900D01*
X36385215Y43397519D01*
X36337596Y43445138D01*
X37909024Y43349900D02*
X37337596Y43349900D01*
X37623310Y43349900D02*
X37623310Y44349900D01*
X37528072Y44207042D01*
X37432834Y44111804D01*
X37337596Y44064185D01*
G04 #@! TO.C,J2*
X41449666Y14009620D02*
X41449666Y13295334D01*
X41402047Y13152477D01*
X41306809Y13057239D01*
X41163952Y13009620D01*
X41068714Y13009620D01*
X41878238Y13914381D02*
X41925857Y13962000D01*
X42021095Y14009620D01*
X42259190Y14009620D01*
X42354428Y13962000D01*
X42402047Y13914381D01*
X42449666Y13819143D01*
X42449666Y13723905D01*
X42402047Y13581048D01*
X41830619Y13009620D01*
X42449666Y13009620D01*
G04 #@! TO.C,R26*
X50982642Y7261620D02*
X50649309Y7737810D01*
X50411214Y7261620D02*
X50411214Y8261620D01*
X50792166Y8261620D01*
X50887404Y8214000D01*
X50935023Y8166381D01*
X50982642Y8071143D01*
X50982642Y7928286D01*
X50935023Y7833048D01*
X50887404Y7785429D01*
X50792166Y7737810D01*
X50411214Y7737810D01*
X51363595Y8166381D02*
X51411214Y8214000D01*
X51506452Y8261620D01*
X51744547Y8261620D01*
X51839785Y8214000D01*
X51887404Y8166381D01*
X51935023Y8071143D01*
X51935023Y7975905D01*
X51887404Y7833048D01*
X51315976Y7261620D01*
X51935023Y7261620D01*
X52792166Y8261620D02*
X52601690Y8261620D01*
X52506452Y8214000D01*
X52458833Y8166381D01*
X52363595Y8023524D01*
X52315976Y7833048D01*
X52315976Y7452096D01*
X52363595Y7356858D01*
X52411214Y7309239D01*
X52506452Y7261620D01*
X52696928Y7261620D01*
X52792166Y7309239D01*
X52839785Y7356858D01*
X52887404Y7452096D01*
X52887404Y7690191D01*
X52839785Y7785429D01*
X52792166Y7833048D01*
X52696928Y7880667D01*
X52506452Y7880667D01*
X52411214Y7833048D01*
X52363595Y7785429D01*
X52315976Y7690191D01*
G04 #@! TO.C,C26*
X25571742Y31616443D02*
X25619361Y31568824D01*
X25666980Y31425967D01*
X25666980Y31330729D01*
X25619361Y31187872D01*
X25524123Y31092634D01*
X25428885Y31045015D01*
X25238409Y30997396D01*
X25095552Y30997396D01*
X24905076Y31045015D01*
X24809838Y31092634D01*
X24714600Y31187872D01*
X24666980Y31330729D01*
X24666980Y31425967D01*
X24714600Y31568824D01*
X24762219Y31616443D01*
X24762219Y31997396D02*
X24714600Y32045015D01*
X24666980Y32140253D01*
X24666980Y32378348D01*
X24714600Y32473586D01*
X24762219Y32521205D01*
X24857457Y32568824D01*
X24952695Y32568824D01*
X25095552Y32521205D01*
X25666980Y31949777D01*
X25666980Y32568824D01*
X24666980Y33425967D02*
X24666980Y33235491D01*
X24714600Y33140253D01*
X24762219Y33092634D01*
X24905076Y32997396D01*
X25095552Y32949777D01*
X25476504Y32949777D01*
X25571742Y32997396D01*
X25619361Y33045015D01*
X25666980Y33140253D01*
X25666980Y33330729D01*
X25619361Y33425967D01*
X25571742Y33473586D01*
X25476504Y33521205D01*
X25238409Y33521205D01*
X25143171Y33473586D01*
X25095552Y33425967D01*
X25047933Y33330729D01*
X25047933Y33140253D01*
X25095552Y33045015D01*
X25143171Y32997396D01*
X25238409Y32949777D01*
G04 #@! TO.C,R6*
X13346133Y22788620D02*
X13012800Y23264810D01*
X12774704Y22788620D02*
X12774704Y23788620D01*
X13155657Y23788620D01*
X13250895Y23741000D01*
X13298514Y23693381D01*
X13346133Y23598143D01*
X13346133Y23455286D01*
X13298514Y23360048D01*
X13250895Y23312429D01*
X13155657Y23264810D01*
X12774704Y23264810D01*
X14203276Y23788620D02*
X14012800Y23788620D01*
X13917561Y23741000D01*
X13869942Y23693381D01*
X13774704Y23550524D01*
X13727085Y23360048D01*
X13727085Y22979096D01*
X13774704Y22883858D01*
X13822323Y22836239D01*
X13917561Y22788620D01*
X14108038Y22788620D01*
X14203276Y22836239D01*
X14250895Y22883858D01*
X14298514Y22979096D01*
X14298514Y23217191D01*
X14250895Y23312429D01*
X14203276Y23360048D01*
X14108038Y23407667D01*
X13917561Y23407667D01*
X13822323Y23360048D01*
X13774704Y23312429D01*
X13727085Y23217191D01*
G04 #@! TO.C,R5*
X13358833Y21582120D02*
X13025500Y22058310D01*
X12787404Y21582120D02*
X12787404Y22582120D01*
X13168357Y22582120D01*
X13263595Y22534500D01*
X13311214Y22486881D01*
X13358833Y22391643D01*
X13358833Y22248786D01*
X13311214Y22153548D01*
X13263595Y22105929D01*
X13168357Y22058310D01*
X12787404Y22058310D01*
X14263595Y22582120D02*
X13787404Y22582120D01*
X13739785Y22105929D01*
X13787404Y22153548D01*
X13882642Y22201167D01*
X14120738Y22201167D01*
X14215976Y22153548D01*
X14263595Y22105929D01*
X14311214Y22010691D01*
X14311214Y21772596D01*
X14263595Y21677358D01*
X14215976Y21629739D01*
X14120738Y21582120D01*
X13882642Y21582120D01*
X13787404Y21629739D01*
X13739785Y21677358D01*
G04 #@! TO.C,C25*
X14978142Y30580058D02*
X14930523Y30532439D01*
X14787666Y30484820D01*
X14692428Y30484820D01*
X14549571Y30532439D01*
X14454333Y30627677D01*
X14406714Y30722915D01*
X14359095Y30913391D01*
X14359095Y31056248D01*
X14406714Y31246724D01*
X14454333Y31341962D01*
X14549571Y31437200D01*
X14692428Y31484820D01*
X14787666Y31484820D01*
X14930523Y31437200D01*
X14978142Y31389581D01*
X15359095Y31389581D02*
X15406714Y31437200D01*
X15501952Y31484820D01*
X15740047Y31484820D01*
X15835285Y31437200D01*
X15882904Y31389581D01*
X15930523Y31294343D01*
X15930523Y31199105D01*
X15882904Y31056248D01*
X15311476Y30484820D01*
X15930523Y30484820D01*
X16835285Y31484820D02*
X16359095Y31484820D01*
X16311476Y31008629D01*
X16359095Y31056248D01*
X16454333Y31103867D01*
X16692428Y31103867D01*
X16787666Y31056248D01*
X16835285Y31008629D01*
X16882904Y30913391D01*
X16882904Y30675296D01*
X16835285Y30580058D01*
X16787666Y30532439D01*
X16692428Y30484820D01*
X16454333Y30484820D01*
X16359095Y30532439D01*
X16311476Y30580058D01*
G04 #@! TO.C,R25*
X8550642Y18470620D02*
X8217309Y18946810D01*
X7979214Y18470620D02*
X7979214Y19470620D01*
X8360166Y19470620D01*
X8455404Y19423000D01*
X8503023Y19375381D01*
X8550642Y19280143D01*
X8550642Y19137286D01*
X8503023Y19042048D01*
X8455404Y18994429D01*
X8360166Y18946810D01*
X7979214Y18946810D01*
X8931595Y19375381D02*
X8979214Y19423000D01*
X9074452Y19470620D01*
X9312547Y19470620D01*
X9407785Y19423000D01*
X9455404Y19375381D01*
X9503023Y19280143D01*
X9503023Y19184905D01*
X9455404Y19042048D01*
X8883976Y18470620D01*
X9503023Y18470620D01*
X10407785Y19470620D02*
X9931595Y19470620D01*
X9883976Y18994429D01*
X9931595Y19042048D01*
X10026833Y19089667D01*
X10264928Y19089667D01*
X10360166Y19042048D01*
X10407785Y18994429D01*
X10455404Y18899191D01*
X10455404Y18661096D01*
X10407785Y18565858D01*
X10360166Y18518239D01*
X10264928Y18470620D01*
X10026833Y18470620D01*
X9931595Y18518239D01*
X9883976Y18565858D01*
G04 #@! TO.C,R24*
X5252980Y31259543D02*
X4776790Y30926210D01*
X5252980Y30688115D02*
X4252980Y30688115D01*
X4252980Y31069067D01*
X4300600Y31164305D01*
X4348219Y31211924D01*
X4443457Y31259543D01*
X4586314Y31259543D01*
X4681552Y31211924D01*
X4729171Y31164305D01*
X4776790Y31069067D01*
X4776790Y30688115D01*
X4348219Y31640496D02*
X4300600Y31688115D01*
X4252980Y31783353D01*
X4252980Y32021448D01*
X4300600Y32116686D01*
X4348219Y32164305D01*
X4443457Y32211924D01*
X4538695Y32211924D01*
X4681552Y32164305D01*
X5252980Y31592877D01*
X5252980Y32211924D01*
X4586314Y33069067D02*
X5252980Y33069067D01*
X4205361Y32830972D02*
X4919647Y32592877D01*
X4919647Y33211924D01*
G04 #@! TO.C,C24*
X68675542Y37062143D02*
X68723161Y37014524D01*
X68770780Y36871667D01*
X68770780Y36776429D01*
X68723161Y36633572D01*
X68627923Y36538334D01*
X68532685Y36490715D01*
X68342209Y36443096D01*
X68199352Y36443096D01*
X68008876Y36490715D01*
X67913638Y36538334D01*
X67818400Y36633572D01*
X67770780Y36776429D01*
X67770780Y36871667D01*
X67818400Y37014524D01*
X67866019Y37062143D01*
X67866019Y37443096D02*
X67818400Y37490715D01*
X67770780Y37585953D01*
X67770780Y37824048D01*
X67818400Y37919286D01*
X67866019Y37966905D01*
X67961257Y38014524D01*
X68056495Y38014524D01*
X68199352Y37966905D01*
X68770780Y37395477D01*
X68770780Y38014524D01*
X68104114Y38871667D02*
X68770780Y38871667D01*
X67723161Y38633572D02*
X68437447Y38395477D01*
X68437447Y39014524D01*
G04 #@! TO.C,RN7*
X26297023Y15809620D02*
X25963690Y16285810D01*
X25725595Y15809620D02*
X25725595Y16809620D01*
X26106547Y16809620D01*
X26201785Y16762000D01*
X26249404Y16714381D01*
X26297023Y16619143D01*
X26297023Y16476286D01*
X26249404Y16381048D01*
X26201785Y16333429D01*
X26106547Y16285810D01*
X25725595Y16285810D01*
X26725595Y15809620D02*
X26725595Y16809620D01*
X27297023Y15809620D01*
X27297023Y16809620D01*
X27677976Y16809620D02*
X28344642Y16809620D01*
X27916071Y15809620D01*
G04 #@! TO.C,RN8*
X36088723Y20794720D02*
X35755390Y21270910D01*
X35517295Y20794720D02*
X35517295Y21794720D01*
X35898247Y21794720D01*
X35993485Y21747100D01*
X36041104Y21699481D01*
X36088723Y21604243D01*
X36088723Y21461386D01*
X36041104Y21366148D01*
X35993485Y21318529D01*
X35898247Y21270910D01*
X35517295Y21270910D01*
X36517295Y20794720D02*
X36517295Y21794720D01*
X37088723Y20794720D01*
X37088723Y21794720D01*
X37707771Y21366148D02*
X37612533Y21413767D01*
X37564914Y21461386D01*
X37517295Y21556624D01*
X37517295Y21604243D01*
X37564914Y21699481D01*
X37612533Y21747100D01*
X37707771Y21794720D01*
X37898247Y21794720D01*
X37993485Y21747100D01*
X38041104Y21699481D01*
X38088723Y21604243D01*
X38088723Y21556624D01*
X38041104Y21461386D01*
X37993485Y21413767D01*
X37898247Y21366148D01*
X37707771Y21366148D01*
X37612533Y21318529D01*
X37564914Y21270910D01*
X37517295Y21175672D01*
X37517295Y20985196D01*
X37564914Y20889958D01*
X37612533Y20842339D01*
X37707771Y20794720D01*
X37898247Y20794720D01*
X37993485Y20842339D01*
X38041104Y20889958D01*
X38088723Y20985196D01*
X38088723Y21175672D01*
X38041104Y21270910D01*
X37993485Y21318529D01*
X37898247Y21366148D01*
G04 #@! TO.C,SW1*
X38758761Y35544667D02*
X38806380Y35687524D01*
X38806380Y35925620D01*
X38758761Y36020858D01*
X38711142Y36068477D01*
X38615904Y36116096D01*
X38520666Y36116096D01*
X38425428Y36068477D01*
X38377809Y36020858D01*
X38330190Y35925620D01*
X38282571Y35735143D01*
X38234952Y35639905D01*
X38187333Y35592286D01*
X38092095Y35544667D01*
X37996857Y35544667D01*
X37901619Y35592286D01*
X37854000Y35639905D01*
X37806380Y35735143D01*
X37806380Y35973239D01*
X37854000Y36116096D01*
X37806380Y36449429D02*
X38806380Y36687524D01*
X38092095Y36878000D01*
X38806380Y37068477D01*
X37806380Y37306572D01*
X38806380Y38211334D02*
X38806380Y37639905D01*
X38806380Y37925620D02*
X37806380Y37925620D01*
X37949238Y37830381D01*
X38044476Y37735143D01*
X38092095Y37639905D01*
G04 #@! TO.C,D1*
X88365104Y7487660D02*
X88365104Y8487660D01*
X88603200Y8487660D01*
X88746057Y8440040D01*
X88841295Y8344802D01*
X88888914Y8249564D01*
X88936533Y8059088D01*
X88936533Y7916231D01*
X88888914Y7725755D01*
X88841295Y7630517D01*
X88746057Y7535279D01*
X88603200Y7487660D01*
X88365104Y7487660D01*
X89888914Y7487660D02*
X89317485Y7487660D01*
X89603200Y7487660D02*
X89603200Y8487660D01*
X89507961Y8344802D01*
X89412723Y8249564D01*
X89317485Y8201945D01*
G04 #@! TO.C,D2*
X81938904Y42346620D02*
X81938904Y43346620D01*
X82177000Y43346620D01*
X82319857Y43299000D01*
X82415095Y43203762D01*
X82462714Y43108524D01*
X82510333Y42918048D01*
X82510333Y42775191D01*
X82462714Y42584715D01*
X82415095Y42489477D01*
X82319857Y42394239D01*
X82177000Y42346620D01*
X81938904Y42346620D01*
X82891285Y43251381D02*
X82938904Y43299000D01*
X83034142Y43346620D01*
X83272238Y43346620D01*
X83367476Y43299000D01*
X83415095Y43251381D01*
X83462714Y43156143D01*
X83462714Y43060905D01*
X83415095Y42918048D01*
X82843666Y42346620D01*
X83462714Y42346620D01*
G04 #@! TO.C,D3*
X82416424Y7472420D02*
X82416424Y8472420D01*
X82654520Y8472420D01*
X82797377Y8424800D01*
X82892615Y8329562D01*
X82940234Y8234324D01*
X82987853Y8043848D01*
X82987853Y7900991D01*
X82940234Y7710515D01*
X82892615Y7615277D01*
X82797377Y7520039D01*
X82654520Y7472420D01*
X82416424Y7472420D01*
X83321186Y8472420D02*
X83940234Y8472420D01*
X83606900Y8091467D01*
X83749758Y8091467D01*
X83844996Y8043848D01*
X83892615Y7996229D01*
X83940234Y7900991D01*
X83940234Y7662896D01*
X83892615Y7567658D01*
X83844996Y7520039D01*
X83749758Y7472420D01*
X83464043Y7472420D01*
X83368805Y7520039D01*
X83321186Y7567658D01*
G04 #@! TO.C,D4*
X88034904Y42346620D02*
X88034904Y43346620D01*
X88273000Y43346620D01*
X88415857Y43299000D01*
X88511095Y43203762D01*
X88558714Y43108524D01*
X88606333Y42918048D01*
X88606333Y42775191D01*
X88558714Y42584715D01*
X88511095Y42489477D01*
X88415857Y42394239D01*
X88273000Y42346620D01*
X88034904Y42346620D01*
X89463476Y43013286D02*
X89463476Y42346620D01*
X89225380Y43394239D02*
X88987285Y42679953D01*
X89606333Y42679953D01*
G04 #@! TO.C,U1*
X64984380Y11938096D02*
X65793904Y11938096D01*
X65889142Y11985715D01*
X65936761Y12033334D01*
X65984380Y12128572D01*
X65984380Y12319048D01*
X65936761Y12414286D01*
X65889142Y12461905D01*
X65793904Y12509524D01*
X64984380Y12509524D01*
X65984380Y13509524D02*
X65984380Y12938096D01*
X65984380Y13223810D02*
X64984380Y13223810D01*
X65127238Y13128572D01*
X65222476Y13033334D01*
X65270095Y12938096D01*
G04 #@! TO.C,R23*
X71797942Y37807620D02*
X71464609Y38283810D01*
X71226514Y37807620D02*
X71226514Y38807620D01*
X71607466Y38807620D01*
X71702704Y38760000D01*
X71750323Y38712381D01*
X71797942Y38617143D01*
X71797942Y38474286D01*
X71750323Y38379048D01*
X71702704Y38331429D01*
X71607466Y38283810D01*
X71226514Y38283810D01*
X72178895Y38712381D02*
X72226514Y38760000D01*
X72321752Y38807620D01*
X72559847Y38807620D01*
X72655085Y38760000D01*
X72702704Y38712381D01*
X72750323Y38617143D01*
X72750323Y38521905D01*
X72702704Y38379048D01*
X72131276Y37807620D01*
X72750323Y37807620D01*
X73083657Y38807620D02*
X73702704Y38807620D01*
X73369371Y38426667D01*
X73512228Y38426667D01*
X73607466Y38379048D01*
X73655085Y38331429D01*
X73702704Y38236191D01*
X73702704Y37998096D01*
X73655085Y37902858D01*
X73607466Y37855239D01*
X73512228Y37807620D01*
X73226514Y37807620D01*
X73131276Y37855239D01*
X73083657Y37902858D01*
G04 #@! TO.C,J1*
X2359066Y31827720D02*
X2359066Y31113434D01*
X2311447Y30970577D01*
X2216209Y30875339D01*
X2073352Y30827720D01*
X1978114Y30827720D01*
X3359066Y30827720D02*
X2787638Y30827720D01*
X3073352Y30827720D02*
X3073352Y31827720D01*
X2978114Y31684862D01*
X2882876Y31589624D01*
X2787638Y31542005D01*
G04 #@! TO.C,C14*
X57319942Y35304458D02*
X57272323Y35256839D01*
X57129466Y35209220D01*
X57034228Y35209220D01*
X56891371Y35256839D01*
X56796133Y35352077D01*
X56748514Y35447315D01*
X56700895Y35637791D01*
X56700895Y35780648D01*
X56748514Y35971124D01*
X56796133Y36066362D01*
X56891371Y36161600D01*
X57034228Y36209220D01*
X57129466Y36209220D01*
X57272323Y36161600D01*
X57319942Y36113981D01*
X58272323Y35209220D02*
X57700895Y35209220D01*
X57986609Y35209220D02*
X57986609Y36209220D01*
X57891371Y36066362D01*
X57796133Y35971124D01*
X57700895Y35923505D01*
X59129466Y35875886D02*
X59129466Y35209220D01*
X58891371Y36256839D02*
X58653276Y35542553D01*
X59272323Y35542553D01*
G04 #@! TO.C,C17*
X58158142Y48182258D02*
X58110523Y48134639D01*
X57967666Y48087020D01*
X57872428Y48087020D01*
X57729571Y48134639D01*
X57634333Y48229877D01*
X57586714Y48325115D01*
X57539095Y48515591D01*
X57539095Y48658448D01*
X57586714Y48848924D01*
X57634333Y48944162D01*
X57729571Y49039400D01*
X57872428Y49087020D01*
X57967666Y49087020D01*
X58110523Y49039400D01*
X58158142Y48991781D01*
X59110523Y48087020D02*
X58539095Y48087020D01*
X58824809Y48087020D02*
X58824809Y49087020D01*
X58729571Y48944162D01*
X58634333Y48848924D01*
X58539095Y48801305D01*
X59443857Y49087020D02*
X60110523Y49087020D01*
X59681952Y48087020D01*
G04 #@! TO.C,C18*
X67159142Y45077143D02*
X67206761Y45029524D01*
X67254380Y44886667D01*
X67254380Y44791429D01*
X67206761Y44648572D01*
X67111523Y44553334D01*
X67016285Y44505715D01*
X66825809Y44458096D01*
X66682952Y44458096D01*
X66492476Y44505715D01*
X66397238Y44553334D01*
X66302000Y44648572D01*
X66254380Y44791429D01*
X66254380Y44886667D01*
X66302000Y45029524D01*
X66349619Y45077143D01*
X67254380Y46029524D02*
X67254380Y45458096D01*
X67254380Y45743810D02*
X66254380Y45743810D01*
X66397238Y45648572D01*
X66492476Y45553334D01*
X66540095Y45458096D01*
X66682952Y46600953D02*
X66635333Y46505715D01*
X66587714Y46458096D01*
X66492476Y46410477D01*
X66444857Y46410477D01*
X66349619Y46458096D01*
X66302000Y46505715D01*
X66254380Y46600953D01*
X66254380Y46791429D01*
X66302000Y46886667D01*
X66349619Y46934286D01*
X66444857Y46981905D01*
X66492476Y46981905D01*
X66587714Y46934286D01*
X66635333Y46886667D01*
X66682952Y46791429D01*
X66682952Y46600953D01*
X66730571Y46505715D01*
X66778190Y46458096D01*
X66873428Y46410477D01*
X67063904Y46410477D01*
X67159142Y46458096D01*
X67206761Y46505715D01*
X67254380Y46600953D01*
X67254380Y46791429D01*
X67206761Y46886667D01*
X67159142Y46934286D01*
X67063904Y46981905D01*
X66873428Y46981905D01*
X66778190Y46934286D01*
X66730571Y46886667D01*
X66682952Y46791429D01*
G04 #@! TO.C,C19*
X62651402Y31847498D02*
X62603783Y31799879D01*
X62460926Y31752260D01*
X62365688Y31752260D01*
X62222831Y31799879D01*
X62127593Y31895117D01*
X62079974Y31990355D01*
X62032355Y32180831D01*
X62032355Y32323688D01*
X62079974Y32514164D01*
X62127593Y32609402D01*
X62222831Y32704640D01*
X62365688Y32752260D01*
X62460926Y32752260D01*
X62603783Y32704640D01*
X62651402Y32657021D01*
X63603783Y31752260D02*
X63032355Y31752260D01*
X63318069Y31752260D02*
X63318069Y32752260D01*
X63222831Y32609402D01*
X63127593Y32514164D01*
X63032355Y32466545D01*
X64079974Y31752260D02*
X64270450Y31752260D01*
X64365688Y31799879D01*
X64413307Y31847498D01*
X64508545Y31990355D01*
X64556164Y32180831D01*
X64556164Y32561783D01*
X64508545Y32657021D01*
X64460926Y32704640D01*
X64365688Y32752260D01*
X64175212Y32752260D01*
X64079974Y32704640D01*
X64032355Y32657021D01*
X63984736Y32561783D01*
X63984736Y32323688D01*
X64032355Y32228450D01*
X64079974Y32180831D01*
X64175212Y32133212D01*
X64365688Y32133212D01*
X64460926Y32180831D01*
X64508545Y32228450D01*
X64556164Y32323688D01*
G04 #@! TO.C,C20*
X62650102Y17311078D02*
X62602483Y17263459D01*
X62459626Y17215840D01*
X62364388Y17215840D01*
X62221531Y17263459D01*
X62126293Y17358697D01*
X62078674Y17453935D01*
X62031055Y17644411D01*
X62031055Y17787268D01*
X62078674Y17977744D01*
X62126293Y18072982D01*
X62221531Y18168220D01*
X62364388Y18215840D01*
X62459626Y18215840D01*
X62602483Y18168220D01*
X62650102Y18120601D01*
X63031055Y18120601D02*
X63078674Y18168220D01*
X63173912Y18215840D01*
X63412007Y18215840D01*
X63507245Y18168220D01*
X63554864Y18120601D01*
X63602483Y18025363D01*
X63602483Y17930125D01*
X63554864Y17787268D01*
X62983436Y17215840D01*
X63602483Y17215840D01*
X64221531Y18215840D02*
X64316769Y18215840D01*
X64412007Y18168220D01*
X64459626Y18120601D01*
X64507245Y18025363D01*
X64554864Y17834887D01*
X64554864Y17596792D01*
X64507245Y17406316D01*
X64459626Y17311078D01*
X64412007Y17263459D01*
X64316769Y17215840D01*
X64221531Y17215840D01*
X64126293Y17263459D01*
X64078674Y17311078D01*
X64031055Y17406316D01*
X63983436Y17596792D01*
X63983436Y17834887D01*
X64031055Y18025363D01*
X64078674Y18120601D01*
X64126293Y18168220D01*
X64221531Y18215840D01*
G04 #@! TO.C,C21*
X41941542Y10839158D02*
X41893923Y10791539D01*
X41751066Y10743920D01*
X41655828Y10743920D01*
X41512971Y10791539D01*
X41417733Y10886777D01*
X41370114Y10982015D01*
X41322495Y11172491D01*
X41322495Y11315348D01*
X41370114Y11505824D01*
X41417733Y11601062D01*
X41512971Y11696300D01*
X41655828Y11743920D01*
X41751066Y11743920D01*
X41893923Y11696300D01*
X41941542Y11648681D01*
X42322495Y11648681D02*
X42370114Y11696300D01*
X42465352Y11743920D01*
X42703447Y11743920D01*
X42798685Y11696300D01*
X42846304Y11648681D01*
X42893923Y11553443D01*
X42893923Y11458205D01*
X42846304Y11315348D01*
X42274876Y10743920D01*
X42893923Y10743920D01*
X43846304Y10743920D02*
X43274876Y10743920D01*
X43560590Y10743920D02*
X43560590Y11743920D01*
X43465352Y11601062D01*
X43370114Y11505824D01*
X43274876Y11458205D01*
G04 #@! TO.C,C22*
X62652642Y24466258D02*
X62605023Y24418639D01*
X62462166Y24371020D01*
X62366928Y24371020D01*
X62224071Y24418639D01*
X62128833Y24513877D01*
X62081214Y24609115D01*
X62033595Y24799591D01*
X62033595Y24942448D01*
X62081214Y25132924D01*
X62128833Y25228162D01*
X62224071Y25323400D01*
X62366928Y25371020D01*
X62462166Y25371020D01*
X62605023Y25323400D01*
X62652642Y25275781D01*
X63033595Y25275781D02*
X63081214Y25323400D01*
X63176452Y25371020D01*
X63414547Y25371020D01*
X63509785Y25323400D01*
X63557404Y25275781D01*
X63605023Y25180543D01*
X63605023Y25085305D01*
X63557404Y24942448D01*
X62985976Y24371020D01*
X63605023Y24371020D01*
X63985976Y25275781D02*
X64033595Y25323400D01*
X64128833Y25371020D01*
X64366928Y25371020D01*
X64462166Y25323400D01*
X64509785Y25275781D01*
X64557404Y25180543D01*
X64557404Y25085305D01*
X64509785Y24942448D01*
X63938357Y24371020D01*
X64557404Y24371020D01*
G04 #@! TO.C,C23*
X62650102Y10196538D02*
X62602483Y10148919D01*
X62459626Y10101300D01*
X62364388Y10101300D01*
X62221531Y10148919D01*
X62126293Y10244157D01*
X62078674Y10339395D01*
X62031055Y10529871D01*
X62031055Y10672728D01*
X62078674Y10863204D01*
X62126293Y10958442D01*
X62221531Y11053680D01*
X62364388Y11101300D01*
X62459626Y11101300D01*
X62602483Y11053680D01*
X62650102Y11006061D01*
X63031055Y11006061D02*
X63078674Y11053680D01*
X63173912Y11101300D01*
X63412007Y11101300D01*
X63507245Y11053680D01*
X63554864Y11006061D01*
X63602483Y10910823D01*
X63602483Y10815585D01*
X63554864Y10672728D01*
X62983436Y10101300D01*
X63602483Y10101300D01*
X63935817Y11101300D02*
X64554864Y11101300D01*
X64221531Y10720347D01*
X64364388Y10720347D01*
X64459626Y10672728D01*
X64507245Y10625109D01*
X64554864Y10529871D01*
X64554864Y10291776D01*
X64507245Y10196538D01*
X64459626Y10148919D01*
X64364388Y10101300D01*
X64078674Y10101300D01*
X63983436Y10148919D01*
X63935817Y10196538D01*
G04 #@! TO.C,C11*
X23471142Y32707343D02*
X23518761Y32659724D01*
X23566380Y32516867D01*
X23566380Y32421629D01*
X23518761Y32278772D01*
X23423523Y32183534D01*
X23328285Y32135915D01*
X23137809Y32088296D01*
X22994952Y32088296D01*
X22804476Y32135915D01*
X22709238Y32183534D01*
X22614000Y32278772D01*
X22566380Y32421629D01*
X22566380Y32516867D01*
X22614000Y32659724D01*
X22661619Y32707343D01*
X23566380Y33659724D02*
X23566380Y33088296D01*
X23566380Y33374010D02*
X22566380Y33374010D01*
X22709238Y33278772D01*
X22804476Y33183534D01*
X22852095Y33088296D01*
X23566380Y34612105D02*
X23566380Y34040677D01*
X23566380Y34326391D02*
X22566380Y34326391D01*
X22709238Y34231153D01*
X22804476Y34135915D01*
X22852095Y34040677D01*
G04 #@! TO.C,C7*
X20394633Y42199558D02*
X20347014Y42151939D01*
X20204157Y42104320D01*
X20108919Y42104320D01*
X19966061Y42151939D01*
X19870823Y42247177D01*
X19823204Y42342415D01*
X19775585Y42532891D01*
X19775585Y42675748D01*
X19823204Y42866224D01*
X19870823Y42961462D01*
X19966061Y43056700D01*
X20108919Y43104320D01*
X20204157Y43104320D01*
X20347014Y43056700D01*
X20394633Y43009081D01*
X20727966Y43104320D02*
X21394633Y43104320D01*
X20966061Y42104320D01*
G04 #@! TO.C,C1*
X6005533Y33729658D02*
X5957914Y33682039D01*
X5815057Y33634420D01*
X5719819Y33634420D01*
X5576961Y33682039D01*
X5481723Y33777277D01*
X5434104Y33872515D01*
X5386485Y34062991D01*
X5386485Y34205848D01*
X5434104Y34396324D01*
X5481723Y34491562D01*
X5576961Y34586800D01*
X5719819Y34634420D01*
X5815057Y34634420D01*
X5957914Y34586800D01*
X6005533Y34539181D01*
X6957914Y33634420D02*
X6386485Y33634420D01*
X6672200Y33634420D02*
X6672200Y34634420D01*
X6576961Y34491562D01*
X6481723Y34396324D01*
X6386485Y34348705D01*
G04 #@! TO.C,C3*
X4024333Y40409858D02*
X3976714Y40362239D01*
X3833857Y40314620D01*
X3738619Y40314620D01*
X3595761Y40362239D01*
X3500523Y40457477D01*
X3452904Y40552715D01*
X3405285Y40743191D01*
X3405285Y40886048D01*
X3452904Y41076524D01*
X3500523Y41171762D01*
X3595761Y41267000D01*
X3738619Y41314620D01*
X3833857Y41314620D01*
X3976714Y41267000D01*
X4024333Y41219381D01*
X4357666Y41314620D02*
X4976714Y41314620D01*
X4643380Y40933667D01*
X4786238Y40933667D01*
X4881476Y40886048D01*
X4929095Y40838429D01*
X4976714Y40743191D01*
X4976714Y40505096D01*
X4929095Y40409858D01*
X4881476Y40362239D01*
X4786238Y40314620D01*
X4500523Y40314620D01*
X4405285Y40362239D01*
X4357666Y40409858D01*
G04 #@! TO.C,C5*
X13945142Y30516534D02*
X13992761Y30468915D01*
X14040380Y30326058D01*
X14040380Y30230820D01*
X13992761Y30087962D01*
X13897523Y29992724D01*
X13802285Y29945105D01*
X13611809Y29897486D01*
X13468952Y29897486D01*
X13278476Y29945105D01*
X13183238Y29992724D01*
X13088000Y30087962D01*
X13040380Y30230820D01*
X13040380Y30326058D01*
X13088000Y30468915D01*
X13135619Y30516534D01*
X13040380Y31421296D02*
X13040380Y30945105D01*
X13516571Y30897486D01*
X13468952Y30945105D01*
X13421333Y31040343D01*
X13421333Y31278439D01*
X13468952Y31373677D01*
X13516571Y31421296D01*
X13611809Y31468915D01*
X13849904Y31468915D01*
X13945142Y31421296D01*
X13992761Y31373677D01*
X14040380Y31278439D01*
X14040380Y31040343D01*
X13992761Y30945105D01*
X13945142Y30897486D01*
G04 #@! TO.C,C16*
X68429142Y45077143D02*
X68476761Y45029524D01*
X68524380Y44886667D01*
X68524380Y44791429D01*
X68476761Y44648572D01*
X68381523Y44553334D01*
X68286285Y44505715D01*
X68095809Y44458096D01*
X67952952Y44458096D01*
X67762476Y44505715D01*
X67667238Y44553334D01*
X67572000Y44648572D01*
X67524380Y44791429D01*
X67524380Y44886667D01*
X67572000Y45029524D01*
X67619619Y45077143D01*
X68524380Y46029524D02*
X68524380Y45458096D01*
X68524380Y45743810D02*
X67524380Y45743810D01*
X67667238Y45648572D01*
X67762476Y45553334D01*
X67810095Y45458096D01*
X67524380Y46886667D02*
X67524380Y46696191D01*
X67572000Y46600953D01*
X67619619Y46553334D01*
X67762476Y46458096D01*
X67952952Y46410477D01*
X68333904Y46410477D01*
X68429142Y46458096D01*
X68476761Y46505715D01*
X68524380Y46600953D01*
X68524380Y46791429D01*
X68476761Y46886667D01*
X68429142Y46934286D01*
X68333904Y46981905D01*
X68095809Y46981905D01*
X68000571Y46934286D01*
X67952952Y46886667D01*
X67905333Y46791429D01*
X67905333Y46600953D01*
X67952952Y46505715D01*
X68000571Y46458096D01*
X68095809Y46410477D01*
G04 #@! TO.C,C13*
X62447442Y37927043D02*
X62495061Y37879424D01*
X62542680Y37736567D01*
X62542680Y37641329D01*
X62495061Y37498472D01*
X62399823Y37403234D01*
X62304585Y37355615D01*
X62114109Y37307996D01*
X61971252Y37307996D01*
X61780776Y37355615D01*
X61685538Y37403234D01*
X61590300Y37498472D01*
X61542680Y37641329D01*
X61542680Y37736567D01*
X61590300Y37879424D01*
X61637919Y37927043D01*
X62542680Y38879424D02*
X62542680Y38307996D01*
X62542680Y38593710D02*
X61542680Y38593710D01*
X61685538Y38498472D01*
X61780776Y38403234D01*
X61828395Y38307996D01*
X61542680Y39212758D02*
X61542680Y39831805D01*
X61923633Y39498472D01*
X61923633Y39641329D01*
X61971252Y39736567D01*
X62018871Y39784186D01*
X62114109Y39831805D01*
X62352204Y39831805D01*
X62447442Y39784186D01*
X62495061Y39736567D01*
X62542680Y39641329D01*
X62542680Y39355615D01*
X62495061Y39260377D01*
X62447442Y39212758D01*
G04 #@! TO.C,Y1*
X20351809Y37615810D02*
X20351809Y37139620D01*
X20018476Y38139620D02*
X20351809Y37615810D01*
X20685142Y38139620D01*
X21542285Y37139620D02*
X20970857Y37139620D01*
X21256571Y37139620D02*
X21256571Y38139620D01*
X21161333Y37996762D01*
X21066095Y37901524D01*
X20970857Y37853905D01*
G04 #@! TO.C,FB2*
X6024571Y30992867D02*
X6024571Y30659534D01*
X6548380Y30659534D02*
X5548380Y30659534D01*
X5548380Y31135724D01*
X6024571Y31850010D02*
X6072190Y31992867D01*
X6119809Y32040486D01*
X6215047Y32088105D01*
X6357904Y32088105D01*
X6453142Y32040486D01*
X6500761Y31992867D01*
X6548380Y31897629D01*
X6548380Y31516677D01*
X5548380Y31516677D01*
X5548380Y31850010D01*
X5596000Y31945248D01*
X5643619Y31992867D01*
X5738857Y32040486D01*
X5834095Y32040486D01*
X5929333Y31992867D01*
X5976952Y31945248D01*
X6024571Y31850010D01*
X6024571Y31516677D01*
X5643619Y32469058D02*
X5596000Y32516677D01*
X5548380Y32611915D01*
X5548380Y32850010D01*
X5596000Y32945248D01*
X5643619Y32992867D01*
X5738857Y33040486D01*
X5834095Y33040486D01*
X5976952Y32992867D01*
X6548380Y32421439D01*
X6548380Y33040486D01*
G04 #@! TO.C,FB1*
X11866571Y36580867D02*
X11866571Y36247534D01*
X12390380Y36247534D02*
X11390380Y36247534D01*
X11390380Y36723724D01*
X11866571Y37438010D02*
X11914190Y37580867D01*
X11961809Y37628486D01*
X12057047Y37676105D01*
X12199904Y37676105D01*
X12295142Y37628486D01*
X12342761Y37580867D01*
X12390380Y37485629D01*
X12390380Y37104677D01*
X11390380Y37104677D01*
X11390380Y37438010D01*
X11438000Y37533248D01*
X11485619Y37580867D01*
X11580857Y37628486D01*
X11676095Y37628486D01*
X11771333Y37580867D01*
X11818952Y37533248D01*
X11866571Y37438010D01*
X11866571Y37104677D01*
X12390380Y38628486D02*
X12390380Y38057058D01*
X12390380Y38342772D02*
X11390380Y38342772D01*
X11533238Y38247534D01*
X11628476Y38152296D01*
X11676095Y38057058D01*
G04 #@! TO.C,FB3*
X16184666Y42362429D02*
X15851333Y42362429D01*
X15851333Y41838620D02*
X15851333Y42838620D01*
X16327523Y42838620D01*
X17041809Y42362429D02*
X17184666Y42314810D01*
X17232285Y42267191D01*
X17279904Y42171953D01*
X17279904Y42029096D01*
X17232285Y41933858D01*
X17184666Y41886239D01*
X17089428Y41838620D01*
X16708476Y41838620D01*
X16708476Y42838620D01*
X17041809Y42838620D01*
X17137047Y42791000D01*
X17184666Y42743381D01*
X17232285Y42648143D01*
X17232285Y42552905D01*
X17184666Y42457667D01*
X17137047Y42410048D01*
X17041809Y42362429D01*
X16708476Y42362429D01*
X17613238Y42838620D02*
X18232285Y42838620D01*
X17898952Y42457667D01*
X18041809Y42457667D01*
X18137047Y42410048D01*
X18184666Y42362429D01*
X18232285Y42267191D01*
X18232285Y42029096D01*
X18184666Y41933858D01*
X18137047Y41886239D01*
X18041809Y41838620D01*
X17756095Y41838620D01*
X17660857Y41886239D01*
X17613238Y41933858D01*
G04 #@! TO.C,U6*
X21817080Y36118896D02*
X22626604Y36118896D01*
X22721842Y36166515D01*
X22769461Y36214134D01*
X22817080Y36309372D01*
X22817080Y36499848D01*
X22769461Y36595086D01*
X22721842Y36642705D01*
X22626604Y36690324D01*
X21817080Y36690324D01*
X21817080Y37595086D02*
X21817080Y37404610D01*
X21864700Y37309372D01*
X21912319Y37261753D01*
X22055176Y37166515D01*
X22245652Y37118896D01*
X22626604Y37118896D01*
X22721842Y37166515D01*
X22769461Y37214134D01*
X22817080Y37309372D01*
X22817080Y37499848D01*
X22769461Y37595086D01*
X22721842Y37642705D01*
X22626604Y37690324D01*
X22388509Y37690324D01*
X22293271Y37642705D01*
X22245652Y37595086D01*
X22198033Y37499848D01*
X22198033Y37309372D01*
X22245652Y37214134D01*
X22293271Y37166515D01*
X22388509Y37118896D01*
G04 #@! TO.C,U9*
X56832595Y32678620D02*
X56832595Y31869096D01*
X56880214Y31773858D01*
X56927833Y31726239D01*
X57023071Y31678620D01*
X57213547Y31678620D01*
X57308785Y31726239D01*
X57356404Y31773858D01*
X57404023Y31869096D01*
X57404023Y32678620D01*
X57927833Y31678620D02*
X58118309Y31678620D01*
X58213547Y31726239D01*
X58261166Y31773858D01*
X58356404Y31916715D01*
X58404023Y32107191D01*
X58404023Y32488143D01*
X58356404Y32583381D01*
X58308785Y32631000D01*
X58213547Y32678620D01*
X58023071Y32678620D01*
X57927833Y32631000D01*
X57880214Y32583381D01*
X57832595Y32488143D01*
X57832595Y32250048D01*
X57880214Y32154810D01*
X57927833Y32107191D01*
X58023071Y32059572D01*
X58213547Y32059572D01*
X58308785Y32107191D01*
X58356404Y32154810D01*
X58404023Y32250048D01*
G04 #@! TO.C,U13*
X56292904Y10961620D02*
X56292904Y10152096D01*
X56340523Y10056858D01*
X56388142Y10009239D01*
X56483380Y9961620D01*
X56673857Y9961620D01*
X56769095Y10009239D01*
X56816714Y10056858D01*
X56864333Y10152096D01*
X56864333Y10961620D01*
X57864333Y9961620D02*
X57292904Y9961620D01*
X57578619Y9961620D02*
X57578619Y10961620D01*
X57483380Y10818762D01*
X57388142Y10723524D01*
X57292904Y10675905D01*
X58197666Y10961620D02*
X58816714Y10961620D01*
X58483380Y10580667D01*
X58626238Y10580667D01*
X58721476Y10533048D01*
X58769095Y10485429D01*
X58816714Y10390191D01*
X58816714Y10152096D01*
X58769095Y10056858D01*
X58721476Y10009239D01*
X58626238Y9961620D01*
X58340523Y9961620D01*
X58245285Y10009239D01*
X58197666Y10056858D01*
G04 #@! TO.C,U11*
X56292904Y18073620D02*
X56292904Y17264096D01*
X56340523Y17168858D01*
X56388142Y17121239D01*
X56483380Y17073620D01*
X56673857Y17073620D01*
X56769095Y17121239D01*
X56816714Y17168858D01*
X56864333Y17264096D01*
X56864333Y18073620D01*
X57864333Y17073620D02*
X57292904Y17073620D01*
X57578619Y17073620D02*
X57578619Y18073620D01*
X57483380Y17930762D01*
X57388142Y17835524D01*
X57292904Y17787905D01*
X58816714Y17073620D02*
X58245285Y17073620D01*
X58531000Y17073620D02*
X58531000Y18073620D01*
X58435761Y17930762D01*
X58340523Y17835524D01*
X58245285Y17787905D01*
G04 #@! TO.C,U12*
X56356404Y25312620D02*
X56356404Y24503096D01*
X56404023Y24407858D01*
X56451642Y24360239D01*
X56546880Y24312620D01*
X56737357Y24312620D01*
X56832595Y24360239D01*
X56880214Y24407858D01*
X56927833Y24503096D01*
X56927833Y25312620D01*
X57927833Y24312620D02*
X57356404Y24312620D01*
X57642119Y24312620D02*
X57642119Y25312620D01*
X57546880Y25169762D01*
X57451642Y25074524D01*
X57356404Y25026905D01*
X58308785Y25217381D02*
X58356404Y25265000D01*
X58451642Y25312620D01*
X58689738Y25312620D01*
X58784976Y25265000D01*
X58832595Y25217381D01*
X58880214Y25122143D01*
X58880214Y25026905D01*
X58832595Y24884048D01*
X58261166Y24312620D01*
X58880214Y24312620D01*
G04 #@! TO.C,U10*
X35421724Y11583000D02*
X35421724Y10773476D01*
X35469343Y10678238D01*
X35516962Y10630619D01*
X35612200Y10583000D01*
X35802677Y10583000D01*
X35897915Y10630619D01*
X35945534Y10678238D01*
X35993153Y10773476D01*
X35993153Y11583000D01*
X36993153Y10583000D02*
X36421724Y10583000D01*
X36707439Y10583000D02*
X36707439Y11583000D01*
X36612200Y11440142D01*
X36516962Y11344904D01*
X36421724Y11297285D01*
X37612200Y11583000D02*
X37707439Y11583000D01*
X37802677Y11535380D01*
X37850296Y11487761D01*
X37897915Y11392523D01*
X37945534Y11202047D01*
X37945534Y10963952D01*
X37897915Y10773476D01*
X37850296Y10678238D01*
X37802677Y10630619D01*
X37707439Y10583000D01*
X37612200Y10583000D01*
X37516962Y10630619D01*
X37469343Y10678238D01*
X37421724Y10773476D01*
X37374105Y10963952D01*
X37374105Y11202047D01*
X37421724Y11392523D01*
X37469343Y11487761D01*
X37516962Y11535380D01*
X37612200Y11583000D01*
G04 #@! TO.C,U4*
X8001095Y41314620D02*
X8001095Y40505096D01*
X8048714Y40409858D01*
X8096333Y40362239D01*
X8191571Y40314620D01*
X8382047Y40314620D01*
X8477285Y40362239D01*
X8524904Y40409858D01*
X8572523Y40505096D01*
X8572523Y41314620D01*
X9477285Y40981286D02*
X9477285Y40314620D01*
X9239190Y41362239D02*
X9001095Y40647953D01*
X9620142Y40647953D01*
G04 #@! TO.C,U3*
X65111380Y19558096D02*
X65920904Y19558096D01*
X66016142Y19605715D01*
X66063761Y19653334D01*
X66111380Y19748572D01*
X66111380Y19939048D01*
X66063761Y20034286D01*
X66016142Y20081905D01*
X65920904Y20129524D01*
X65111380Y20129524D01*
X65111380Y20510477D02*
X65111380Y21129524D01*
X65492333Y20796191D01*
X65492333Y20939048D01*
X65539952Y21034286D01*
X65587571Y21081905D01*
X65682809Y21129524D01*
X65920904Y21129524D01*
X66016142Y21081905D01*
X66063761Y21034286D01*
X66111380Y20939048D01*
X66111380Y20653334D01*
X66063761Y20558096D01*
X66016142Y20510477D01*
G04 #@! TO.C,U2*
X65111380Y29464096D02*
X65920904Y29464096D01*
X66016142Y29511715D01*
X66063761Y29559334D01*
X66111380Y29654572D01*
X66111380Y29845048D01*
X66063761Y29940286D01*
X66016142Y29987905D01*
X65920904Y30035524D01*
X65111380Y30035524D01*
X65206619Y30464096D02*
X65159000Y30511715D01*
X65111380Y30606953D01*
X65111380Y30845048D01*
X65159000Y30940286D01*
X65206619Y30987905D01*
X65301857Y31035524D01*
X65397095Y31035524D01*
X65539952Y30987905D01*
X66111380Y30416477D01*
X66111380Y31035524D01*
G04 #@! TO.C,R21*
X50996642Y12722620D02*
X50663309Y13198810D01*
X50425214Y12722620D02*
X50425214Y13722620D01*
X50806166Y13722620D01*
X50901404Y13675000D01*
X50949023Y13627381D01*
X50996642Y13532143D01*
X50996642Y13389286D01*
X50949023Y13294048D01*
X50901404Y13246429D01*
X50806166Y13198810D01*
X50425214Y13198810D01*
X51377595Y13627381D02*
X51425214Y13675000D01*
X51520452Y13722620D01*
X51758547Y13722620D01*
X51853785Y13675000D01*
X51901404Y13627381D01*
X51949023Y13532143D01*
X51949023Y13436905D01*
X51901404Y13294048D01*
X51329976Y12722620D01*
X51949023Y12722620D01*
X52901404Y12722620D02*
X52329976Y12722620D01*
X52615690Y12722620D02*
X52615690Y13722620D01*
X52520452Y13579762D01*
X52425214Y13484524D01*
X52329976Y13436905D01*
G04 #@! TO.C,R8*
X55379880Y33716934D02*
X54903690Y33383600D01*
X55379880Y33145505D02*
X54379880Y33145505D01*
X54379880Y33526458D01*
X54427500Y33621696D01*
X54475119Y33669315D01*
X54570357Y33716934D01*
X54713214Y33716934D01*
X54808452Y33669315D01*
X54856071Y33621696D01*
X54903690Y33526458D01*
X54903690Y33145505D01*
X54808452Y34288362D02*
X54760833Y34193124D01*
X54713214Y34145505D01*
X54617976Y34097886D01*
X54570357Y34097886D01*
X54475119Y34145505D01*
X54427500Y34193124D01*
X54379880Y34288362D01*
X54379880Y34478839D01*
X54427500Y34574077D01*
X54475119Y34621696D01*
X54570357Y34669315D01*
X54617976Y34669315D01*
X54713214Y34621696D01*
X54760833Y34574077D01*
X54808452Y34478839D01*
X54808452Y34288362D01*
X54856071Y34193124D01*
X54903690Y34145505D01*
X54998928Y34097886D01*
X55189404Y34097886D01*
X55284642Y34145505D01*
X55332261Y34193124D01*
X55379880Y34288362D01*
X55379880Y34478839D01*
X55332261Y34574077D01*
X55284642Y34621696D01*
X55189404Y34669315D01*
X54998928Y34669315D01*
X54903690Y34621696D01*
X54856071Y34574077D01*
X54808452Y34478839D01*
G04 #@! TO.C,R9*
X53779680Y33742334D02*
X53303490Y33409000D01*
X53779680Y33170905D02*
X52779680Y33170905D01*
X52779680Y33551858D01*
X52827300Y33647096D01*
X52874919Y33694715D01*
X52970157Y33742334D01*
X53113014Y33742334D01*
X53208252Y33694715D01*
X53255871Y33647096D01*
X53303490Y33551858D01*
X53303490Y33170905D01*
X53779680Y34218524D02*
X53779680Y34409000D01*
X53732061Y34504239D01*
X53684442Y34551858D01*
X53541585Y34647096D01*
X53351109Y34694715D01*
X52970157Y34694715D01*
X52874919Y34647096D01*
X52827300Y34599477D01*
X52779680Y34504239D01*
X52779680Y34313762D01*
X52827300Y34218524D01*
X52874919Y34170905D01*
X52970157Y34123286D01*
X53208252Y34123286D01*
X53303490Y34170905D01*
X53351109Y34218524D01*
X53398728Y34313762D01*
X53398728Y34504239D01*
X53351109Y34599477D01*
X53303490Y34647096D01*
X53208252Y34694715D01*
G04 #@! TO.C,R10*
X50538142Y47172620D02*
X50204809Y47648810D01*
X49966714Y47172620D02*
X49966714Y48172620D01*
X50347666Y48172620D01*
X50442904Y48125000D01*
X50490523Y48077381D01*
X50538142Y47982143D01*
X50538142Y47839286D01*
X50490523Y47744048D01*
X50442904Y47696429D01*
X50347666Y47648810D01*
X49966714Y47648810D01*
X51490523Y47172620D02*
X50919095Y47172620D01*
X51204809Y47172620D02*
X51204809Y48172620D01*
X51109571Y48029762D01*
X51014333Y47934524D01*
X50919095Y47886905D01*
X52109571Y48172620D02*
X52204809Y48172620D01*
X52300047Y48125000D01*
X52347666Y48077381D01*
X52395285Y47982143D01*
X52442904Y47791667D01*
X52442904Y47553572D01*
X52395285Y47363096D01*
X52347666Y47267858D01*
X52300047Y47220239D01*
X52204809Y47172620D01*
X52109571Y47172620D01*
X52014333Y47220239D01*
X51966714Y47267858D01*
X51919095Y47363096D01*
X51871476Y47553572D01*
X51871476Y47791667D01*
X51919095Y47982143D01*
X51966714Y48077381D01*
X52014333Y48125000D01*
X52109571Y48172620D01*
G04 #@! TO.C,R4*
X16190933Y26090620D02*
X15857600Y26566810D01*
X15619504Y26090620D02*
X15619504Y27090620D01*
X16000457Y27090620D01*
X16095695Y27043000D01*
X16143314Y26995381D01*
X16190933Y26900143D01*
X16190933Y26757286D01*
X16143314Y26662048D01*
X16095695Y26614429D01*
X16000457Y26566810D01*
X15619504Y26566810D01*
X17048076Y26757286D02*
X17048076Y26090620D01*
X16809980Y27138239D02*
X16571885Y26423953D01*
X17190933Y26423953D01*
G04 #@! TO.C,R11*
X50538142Y46029620D02*
X50204809Y46505810D01*
X49966714Y46029620D02*
X49966714Y47029620D01*
X50347666Y47029620D01*
X50442904Y46982000D01*
X50490523Y46934381D01*
X50538142Y46839143D01*
X50538142Y46696286D01*
X50490523Y46601048D01*
X50442904Y46553429D01*
X50347666Y46505810D01*
X49966714Y46505810D01*
X51490523Y46029620D02*
X50919095Y46029620D01*
X51204809Y46029620D02*
X51204809Y47029620D01*
X51109571Y46886762D01*
X51014333Y46791524D01*
X50919095Y46743905D01*
X52442904Y46029620D02*
X51871476Y46029620D01*
X52157190Y46029620D02*
X52157190Y47029620D01*
X52061952Y46886762D01*
X51966714Y46791524D01*
X51871476Y46743905D01*
G04 #@! TO.C,R1*
X3262333Y19773620D02*
X2929000Y20249810D01*
X2690904Y19773620D02*
X2690904Y20773620D01*
X3071857Y20773620D01*
X3167095Y20726000D01*
X3214714Y20678381D01*
X3262333Y20583143D01*
X3262333Y20440286D01*
X3214714Y20345048D01*
X3167095Y20297429D01*
X3071857Y20249810D01*
X2690904Y20249810D01*
X4214714Y19773620D02*
X3643285Y19773620D01*
X3929000Y19773620D02*
X3929000Y20773620D01*
X3833761Y20630762D01*
X3738523Y20535524D01*
X3643285Y20487905D01*
G04 #@! TO.C,R2*
X27570133Y35945820D02*
X27236800Y36422010D01*
X26998704Y35945820D02*
X26998704Y36945820D01*
X27379657Y36945820D01*
X27474895Y36898200D01*
X27522514Y36850581D01*
X27570133Y36755343D01*
X27570133Y36612486D01*
X27522514Y36517248D01*
X27474895Y36469629D01*
X27379657Y36422010D01*
X26998704Y36422010D01*
X27951085Y36850581D02*
X27998704Y36898200D01*
X28093942Y36945820D01*
X28332038Y36945820D01*
X28427276Y36898200D01*
X28474895Y36850581D01*
X28522514Y36755343D01*
X28522514Y36660105D01*
X28474895Y36517248D01*
X27903466Y35945820D01*
X28522514Y35945820D01*
G04 #@! TO.C,R22*
X51060142Y21549120D02*
X50726809Y22025310D01*
X50488714Y21549120D02*
X50488714Y22549120D01*
X50869666Y22549120D01*
X50964904Y22501500D01*
X51012523Y22453881D01*
X51060142Y22358643D01*
X51060142Y22215786D01*
X51012523Y22120548D01*
X50964904Y22072929D01*
X50869666Y22025310D01*
X50488714Y22025310D01*
X51441095Y22453881D02*
X51488714Y22501500D01*
X51583952Y22549120D01*
X51822047Y22549120D01*
X51917285Y22501500D01*
X51964904Y22453881D01*
X52012523Y22358643D01*
X52012523Y22263405D01*
X51964904Y22120548D01*
X51393476Y21549120D01*
X52012523Y21549120D01*
X52393476Y22453881D02*
X52441095Y22501500D01*
X52536333Y22549120D01*
X52774428Y22549120D01*
X52869666Y22501500D01*
X52917285Y22453881D01*
X52964904Y22358643D01*
X52964904Y22263405D01*
X52917285Y22120548D01*
X52345857Y21549120D01*
X52964904Y21549120D01*
G04 #@! TO.C,R19*
X50538142Y42448220D02*
X50204809Y42924410D01*
X49966714Y42448220D02*
X49966714Y43448220D01*
X50347666Y43448220D01*
X50442904Y43400600D01*
X50490523Y43352981D01*
X50538142Y43257743D01*
X50538142Y43114886D01*
X50490523Y43019648D01*
X50442904Y42972029D01*
X50347666Y42924410D01*
X49966714Y42924410D01*
X51490523Y42448220D02*
X50919095Y42448220D01*
X51204809Y42448220D02*
X51204809Y43448220D01*
X51109571Y43305362D01*
X51014333Y43210124D01*
X50919095Y43162505D01*
X51966714Y42448220D02*
X52157190Y42448220D01*
X52252428Y42495839D01*
X52300047Y42543458D01*
X52395285Y42686315D01*
X52442904Y42876791D01*
X52442904Y43257743D01*
X52395285Y43352981D01*
X52347666Y43400600D01*
X52252428Y43448220D01*
X52061952Y43448220D01*
X51966714Y43400600D01*
X51919095Y43352981D01*
X51871476Y43257743D01*
X51871476Y43019648D01*
X51919095Y42924410D01*
X51966714Y42876791D01*
X52061952Y42829172D01*
X52252428Y42829172D01*
X52347666Y42876791D01*
X52395285Y42924410D01*
X52442904Y43019648D01*
G04 #@! TO.C,R20*
X58158142Y46893220D02*
X57824809Y47369410D01*
X57586714Y46893220D02*
X57586714Y47893220D01*
X57967666Y47893220D01*
X58062904Y47845600D01*
X58110523Y47797981D01*
X58158142Y47702743D01*
X58158142Y47559886D01*
X58110523Y47464648D01*
X58062904Y47417029D01*
X57967666Y47369410D01*
X57586714Y47369410D01*
X58539095Y47797981D02*
X58586714Y47845600D01*
X58681952Y47893220D01*
X58920047Y47893220D01*
X59015285Y47845600D01*
X59062904Y47797981D01*
X59110523Y47702743D01*
X59110523Y47607505D01*
X59062904Y47464648D01*
X58491476Y46893220D01*
X59110523Y46893220D01*
X59729571Y47893220D02*
X59824809Y47893220D01*
X59920047Y47845600D01*
X59967666Y47797981D01*
X60015285Y47702743D01*
X60062904Y47512267D01*
X60062904Y47274172D01*
X60015285Y47083696D01*
X59967666Y46988458D01*
X59920047Y46940839D01*
X59824809Y46893220D01*
X59729571Y46893220D01*
X59634333Y46940839D01*
X59586714Y46988458D01*
X59539095Y47083696D01*
X59491476Y47274172D01*
X59491476Y47512267D01*
X59539095Y47702743D01*
X59586714Y47797981D01*
X59634333Y47845600D01*
X59729571Y47893220D01*
G04 #@! TO.C,R3*
X27570133Y37469820D02*
X27236800Y37946010D01*
X26998704Y37469820D02*
X26998704Y38469820D01*
X27379657Y38469820D01*
X27474895Y38422200D01*
X27522514Y38374581D01*
X27570133Y38279343D01*
X27570133Y38136486D01*
X27522514Y38041248D01*
X27474895Y37993629D01*
X27379657Y37946010D01*
X26998704Y37946010D01*
X27903466Y38469820D02*
X28522514Y38469820D01*
X28189180Y38088867D01*
X28332038Y38088867D01*
X28427276Y38041248D01*
X28474895Y37993629D01*
X28522514Y37898391D01*
X28522514Y37660296D01*
X28474895Y37565058D01*
X28427276Y37517439D01*
X28332038Y37469820D01*
X28046323Y37469820D01*
X27951085Y37517439D01*
X27903466Y37565058D01*
G04 #@! TO.C,C12*
X14377942Y36847543D02*
X14425561Y36799924D01*
X14473180Y36657067D01*
X14473180Y36561829D01*
X14425561Y36418972D01*
X14330323Y36323734D01*
X14235085Y36276115D01*
X14044609Y36228496D01*
X13901752Y36228496D01*
X13711276Y36276115D01*
X13616038Y36323734D01*
X13520800Y36418972D01*
X13473180Y36561829D01*
X13473180Y36657067D01*
X13520800Y36799924D01*
X13568419Y36847543D01*
X14473180Y37799924D02*
X14473180Y37228496D01*
X14473180Y37514210D02*
X13473180Y37514210D01*
X13616038Y37418972D01*
X13711276Y37323734D01*
X13758895Y37228496D01*
X13568419Y38180877D02*
X13520800Y38228496D01*
X13473180Y38323734D01*
X13473180Y38561829D01*
X13520800Y38657067D01*
X13568419Y38704686D01*
X13663657Y38752305D01*
X13758895Y38752305D01*
X13901752Y38704686D01*
X14473180Y38133258D01*
X14473180Y38752305D01*
G04 #@! TO.C,RN6*
X71750323Y15047620D02*
X71416990Y15523810D01*
X71178895Y15047620D02*
X71178895Y16047620D01*
X71559847Y16047620D01*
X71655085Y16000000D01*
X71702704Y15952381D01*
X71750323Y15857143D01*
X71750323Y15714286D01*
X71702704Y15619048D01*
X71655085Y15571429D01*
X71559847Y15523810D01*
X71178895Y15523810D01*
X72178895Y15047620D02*
X72178895Y16047620D01*
X72750323Y15047620D01*
X72750323Y16047620D01*
X73655085Y16047620D02*
X73464609Y16047620D01*
X73369371Y16000000D01*
X73321752Y15952381D01*
X73226514Y15809524D01*
X73178895Y15619048D01*
X73178895Y15238096D01*
X73226514Y15142858D01*
X73274133Y15095239D01*
X73369371Y15047620D01*
X73559847Y15047620D01*
X73655085Y15095239D01*
X73702704Y15142858D01*
X73750323Y15238096D01*
X73750323Y15476191D01*
X73702704Y15571429D01*
X73655085Y15619048D01*
X73559847Y15666667D01*
X73369371Y15666667D01*
X73274133Y15619048D01*
X73226514Y15571429D01*
X73178895Y15476191D01*
G04 #@! TO.C,RN5*
X71750323Y22667620D02*
X71416990Y23143810D01*
X71178895Y22667620D02*
X71178895Y23667620D01*
X71559847Y23667620D01*
X71655085Y23620000D01*
X71702704Y23572381D01*
X71750323Y23477143D01*
X71750323Y23334286D01*
X71702704Y23239048D01*
X71655085Y23191429D01*
X71559847Y23143810D01*
X71178895Y23143810D01*
X72178895Y22667620D02*
X72178895Y23667620D01*
X72750323Y22667620D01*
X72750323Y23667620D01*
X73702704Y23667620D02*
X73226514Y23667620D01*
X73178895Y23191429D01*
X73226514Y23239048D01*
X73321752Y23286667D01*
X73559847Y23286667D01*
X73655085Y23239048D01*
X73702704Y23191429D01*
X73750323Y23096191D01*
X73750323Y22858096D01*
X73702704Y22762858D01*
X73655085Y22715239D01*
X73559847Y22667620D01*
X73321752Y22667620D01*
X73226514Y22715239D01*
X73178895Y22762858D01*
G04 #@! TO.C,RN4*
X71750323Y32827620D02*
X71416990Y33303810D01*
X71178895Y32827620D02*
X71178895Y33827620D01*
X71559847Y33827620D01*
X71655085Y33780000D01*
X71702704Y33732381D01*
X71750323Y33637143D01*
X71750323Y33494286D01*
X71702704Y33399048D01*
X71655085Y33351429D01*
X71559847Y33303810D01*
X71178895Y33303810D01*
X72178895Y32827620D02*
X72178895Y33827620D01*
X72750323Y32827620D01*
X72750323Y33827620D01*
X73655085Y33494286D02*
X73655085Y32827620D01*
X73416990Y33875239D02*
X73178895Y33160953D01*
X73797942Y33160953D01*
G04 #@! TO.C,J4*
X78533666Y39663620D02*
X78533666Y38949334D01*
X78486047Y38806477D01*
X78390809Y38711239D01*
X78247952Y38663620D01*
X78152714Y38663620D01*
X79438428Y39330286D02*
X79438428Y38663620D01*
X79200333Y39711239D02*
X78962238Y38996953D01*
X79581285Y38996953D01*
G04 #@! TO.C,R16*
X68808880Y40695643D02*
X68332690Y40362310D01*
X68808880Y40124215D02*
X67808880Y40124215D01*
X67808880Y40505167D01*
X67856500Y40600405D01*
X67904119Y40648024D01*
X67999357Y40695643D01*
X68142214Y40695643D01*
X68237452Y40648024D01*
X68285071Y40600405D01*
X68332690Y40505167D01*
X68332690Y40124215D01*
X68808880Y41648024D02*
X68808880Y41076596D01*
X68808880Y41362310D02*
X67808880Y41362310D01*
X67951738Y41267072D01*
X68046976Y41171834D01*
X68094595Y41076596D01*
X67808880Y42505167D02*
X67808880Y42314691D01*
X67856500Y42219453D01*
X67904119Y42171834D01*
X68046976Y42076596D01*
X68237452Y42028977D01*
X68618404Y42028977D01*
X68713642Y42076596D01*
X68761261Y42124215D01*
X68808880Y42219453D01*
X68808880Y42409929D01*
X68761261Y42505167D01*
X68713642Y42552786D01*
X68618404Y42600405D01*
X68380309Y42600405D01*
X68285071Y42552786D01*
X68237452Y42505167D01*
X68189833Y42409929D01*
X68189833Y42219453D01*
X68237452Y42124215D01*
X68285071Y42076596D01*
X68380309Y42028977D01*
G04 #@! TO.C,R7*
X17295833Y18724620D02*
X16962500Y19200810D01*
X16724404Y18724620D02*
X16724404Y19724620D01*
X17105357Y19724620D01*
X17200595Y19677000D01*
X17248214Y19629381D01*
X17295833Y19534143D01*
X17295833Y19391286D01*
X17248214Y19296048D01*
X17200595Y19248429D01*
X17105357Y19200810D01*
X16724404Y19200810D01*
X17629166Y19724620D02*
X18295833Y19724620D01*
X17867261Y18724620D01*
G04 #@! TO.C,R18*
X50538142Y43642020D02*
X50204809Y44118210D01*
X49966714Y43642020D02*
X49966714Y44642020D01*
X50347666Y44642020D01*
X50442904Y44594400D01*
X50490523Y44546781D01*
X50538142Y44451543D01*
X50538142Y44308686D01*
X50490523Y44213448D01*
X50442904Y44165829D01*
X50347666Y44118210D01*
X49966714Y44118210D01*
X51490523Y43642020D02*
X50919095Y43642020D01*
X51204809Y43642020D02*
X51204809Y44642020D01*
X51109571Y44499162D01*
X51014333Y44403924D01*
X50919095Y44356305D01*
X52061952Y44213448D02*
X51966714Y44261067D01*
X51919095Y44308686D01*
X51871476Y44403924D01*
X51871476Y44451543D01*
X51919095Y44546781D01*
X51966714Y44594400D01*
X52061952Y44642020D01*
X52252428Y44642020D01*
X52347666Y44594400D01*
X52395285Y44546781D01*
X52442904Y44451543D01*
X52442904Y44403924D01*
X52395285Y44308686D01*
X52347666Y44261067D01*
X52252428Y44213448D01*
X52061952Y44213448D01*
X51966714Y44165829D01*
X51919095Y44118210D01*
X51871476Y44022972D01*
X51871476Y43832496D01*
X51919095Y43737258D01*
X51966714Y43689639D01*
X52061952Y43642020D01*
X52252428Y43642020D01*
X52347666Y43689639D01*
X52395285Y43737258D01*
X52442904Y43832496D01*
X52442904Y44022972D01*
X52395285Y44118210D01*
X52347666Y44165829D01*
X52252428Y44213448D01*
G04 #@! TO.C,C6*
X18746742Y26604934D02*
X18794361Y26557315D01*
X18841980Y26414458D01*
X18841980Y26319220D01*
X18794361Y26176362D01*
X18699123Y26081124D01*
X18603885Y26033505D01*
X18413409Y25985886D01*
X18270552Y25985886D01*
X18080076Y26033505D01*
X17984838Y26081124D01*
X17889600Y26176362D01*
X17841980Y26319220D01*
X17841980Y26414458D01*
X17889600Y26557315D01*
X17937219Y26604934D01*
X17841980Y27462077D02*
X17841980Y27271600D01*
X17889600Y27176362D01*
X17937219Y27128743D01*
X18080076Y27033505D01*
X18270552Y26985886D01*
X18651504Y26985886D01*
X18746742Y27033505D01*
X18794361Y27081124D01*
X18841980Y27176362D01*
X18841980Y27366839D01*
X18794361Y27462077D01*
X18746742Y27509696D01*
X18651504Y27557315D01*
X18413409Y27557315D01*
X18318171Y27509696D01*
X18270552Y27462077D01*
X18222933Y27366839D01*
X18222933Y27176362D01*
X18270552Y27081124D01*
X18318171Y27033505D01*
X18413409Y26985886D01*
G04 #@! TO.C,R17*
X84955142Y42346620D02*
X84621809Y42822810D01*
X84383714Y42346620D02*
X84383714Y43346620D01*
X84764666Y43346620D01*
X84859904Y43299000D01*
X84907523Y43251381D01*
X84955142Y43156143D01*
X84955142Y43013286D01*
X84907523Y42918048D01*
X84859904Y42870429D01*
X84764666Y42822810D01*
X84383714Y42822810D01*
X85907523Y42346620D02*
X85336095Y42346620D01*
X85621809Y42346620D02*
X85621809Y43346620D01*
X85526571Y43203762D01*
X85431333Y43108524D01*
X85336095Y43060905D01*
X86240857Y43346620D02*
X86907523Y43346620D01*
X86478952Y42346620D01*
G04 #@! TO.C,Q1*
X75088761Y39330381D02*
X74993523Y39378000D01*
X74898285Y39473239D01*
X74755428Y39616096D01*
X74660190Y39663715D01*
X74564952Y39663715D01*
X74612571Y39425620D02*
X74517333Y39473239D01*
X74422095Y39568477D01*
X74374476Y39758953D01*
X74374476Y40092286D01*
X74422095Y40282762D01*
X74517333Y40378000D01*
X74612571Y40425620D01*
X74803047Y40425620D01*
X74898285Y40378000D01*
X74993523Y40282762D01*
X75041142Y40092286D01*
X75041142Y39758953D01*
X74993523Y39568477D01*
X74898285Y39473239D01*
X74803047Y39425620D01*
X74612571Y39425620D01*
X75993523Y39425620D02*
X75422095Y39425620D01*
X75707809Y39425620D02*
X75707809Y40425620D01*
X75612571Y40282762D01*
X75517333Y40187524D01*
X75422095Y40139905D01*
G04 #@! TO.C,C2*
X5980133Y35025058D02*
X5932514Y34977439D01*
X5789657Y34929820D01*
X5694419Y34929820D01*
X5551561Y34977439D01*
X5456323Y35072677D01*
X5408704Y35167915D01*
X5361085Y35358391D01*
X5361085Y35501248D01*
X5408704Y35691724D01*
X5456323Y35786962D01*
X5551561Y35882200D01*
X5694419Y35929820D01*
X5789657Y35929820D01*
X5932514Y35882200D01*
X5980133Y35834581D01*
X6361085Y35834581D02*
X6408704Y35882200D01*
X6503942Y35929820D01*
X6742038Y35929820D01*
X6837276Y35882200D01*
X6884895Y35834581D01*
X6932514Y35739343D01*
X6932514Y35644105D01*
X6884895Y35501248D01*
X6313466Y34929820D01*
X6932514Y34929820D01*
G04 #@! TO.C,C4*
X4024333Y41679858D02*
X3976714Y41632239D01*
X3833857Y41584620D01*
X3738619Y41584620D01*
X3595761Y41632239D01*
X3500523Y41727477D01*
X3452904Y41822715D01*
X3405285Y42013191D01*
X3405285Y42156048D01*
X3452904Y42346524D01*
X3500523Y42441762D01*
X3595761Y42537000D01*
X3738619Y42584620D01*
X3833857Y42584620D01*
X3976714Y42537000D01*
X4024333Y42489381D01*
X4881476Y42251286D02*
X4881476Y41584620D01*
X4643380Y42632239D02*
X4405285Y41917953D01*
X5024333Y41917953D01*
G04 #@! TO.C,C10*
X17556242Y38885858D02*
X17508623Y38838239D01*
X17365766Y38790620D01*
X17270528Y38790620D01*
X17127671Y38838239D01*
X17032433Y38933477D01*
X16984814Y39028715D01*
X16937195Y39219191D01*
X16937195Y39362048D01*
X16984814Y39552524D01*
X17032433Y39647762D01*
X17127671Y39743000D01*
X17270528Y39790620D01*
X17365766Y39790620D01*
X17508623Y39743000D01*
X17556242Y39695381D01*
X18508623Y38790620D02*
X17937195Y38790620D01*
X18222909Y38790620D02*
X18222909Y39790620D01*
X18127671Y39647762D01*
X18032433Y39552524D01*
X17937195Y39504905D01*
X19127671Y39790620D02*
X19222909Y39790620D01*
X19318147Y39743000D01*
X19365766Y39695381D01*
X19413385Y39600143D01*
X19461004Y39409667D01*
X19461004Y39171572D01*
X19413385Y38981096D01*
X19365766Y38885858D01*
X19318147Y38838239D01*
X19222909Y38790620D01*
X19127671Y38790620D01*
X19032433Y38838239D01*
X18984814Y38885858D01*
X18937195Y38981096D01*
X18889576Y39171572D01*
X18889576Y39409667D01*
X18937195Y39600143D01*
X18984814Y39695381D01*
X19032433Y39743000D01*
X19127671Y39790620D01*
G04 #@! TO.C,C9*
X17130733Y24788858D02*
X17083114Y24741239D01*
X16940257Y24693620D01*
X16845019Y24693620D01*
X16702161Y24741239D01*
X16606923Y24836477D01*
X16559304Y24931715D01*
X16511685Y25122191D01*
X16511685Y25265048D01*
X16559304Y25455524D01*
X16606923Y25550762D01*
X16702161Y25646000D01*
X16845019Y25693620D01*
X16940257Y25693620D01*
X17083114Y25646000D01*
X17130733Y25598381D01*
X17606923Y24693620D02*
X17797400Y24693620D01*
X17892638Y24741239D01*
X17940257Y24788858D01*
X18035495Y24931715D01*
X18083114Y25122191D01*
X18083114Y25503143D01*
X18035495Y25598381D01*
X17987876Y25646000D01*
X17892638Y25693620D01*
X17702161Y25693620D01*
X17606923Y25646000D01*
X17559304Y25598381D01*
X17511685Y25503143D01*
X17511685Y25265048D01*
X17559304Y25169810D01*
X17606923Y25122191D01*
X17702161Y25074572D01*
X17892638Y25074572D01*
X17987876Y25122191D01*
X18035495Y25169810D01*
X18083114Y25265048D01*
G04 #@! TO.C,C8*
X30326033Y32738058D02*
X30278414Y32690439D01*
X30135557Y32642820D01*
X30040319Y32642820D01*
X29897461Y32690439D01*
X29802223Y32785677D01*
X29754604Y32880915D01*
X29706985Y33071391D01*
X29706985Y33214248D01*
X29754604Y33404724D01*
X29802223Y33499962D01*
X29897461Y33595200D01*
X30040319Y33642820D01*
X30135557Y33642820D01*
X30278414Y33595200D01*
X30326033Y33547581D01*
X30897461Y33214248D02*
X30802223Y33261867D01*
X30754604Y33309486D01*
X30706985Y33404724D01*
X30706985Y33452343D01*
X30754604Y33547581D01*
X30802223Y33595200D01*
X30897461Y33642820D01*
X31087938Y33642820D01*
X31183176Y33595200D01*
X31230795Y33547581D01*
X31278414Y33452343D01*
X31278414Y33404724D01*
X31230795Y33309486D01*
X31183176Y33261867D01*
X31087938Y33214248D01*
X30897461Y33214248D01*
X30802223Y33166629D01*
X30754604Y33119010D01*
X30706985Y33023772D01*
X30706985Y32833296D01*
X30754604Y32738058D01*
X30802223Y32690439D01*
X30897461Y32642820D01*
X31087938Y32642820D01*
X31183176Y32690439D01*
X31230795Y32738058D01*
X31278414Y32833296D01*
X31278414Y33023772D01*
X31230795Y33119010D01*
X31183176Y33166629D01*
X31087938Y33214248D01*
G04 #@! TO.C,L1*
X65339933Y37609520D02*
X64863742Y37609520D01*
X64863742Y38609520D01*
X66197076Y37609520D02*
X65625647Y37609520D01*
X65911361Y37609520D02*
X65911361Y38609520D01*
X65816123Y38466662D01*
X65720885Y38371424D01*
X65625647Y38323805D01*
G04 #@! TO.C,R15*
X79382382Y7497820D02*
X79049049Y7974010D01*
X78810954Y7497820D02*
X78810954Y8497820D01*
X79191906Y8497820D01*
X79287144Y8450200D01*
X79334763Y8402581D01*
X79382382Y8307343D01*
X79382382Y8164486D01*
X79334763Y8069248D01*
X79287144Y8021629D01*
X79191906Y7974010D01*
X78810954Y7974010D01*
X80334763Y7497820D02*
X79763335Y7497820D01*
X80049049Y7497820D02*
X80049049Y8497820D01*
X79953811Y8354962D01*
X79858573Y8259724D01*
X79763335Y8212105D01*
X81239525Y8497820D02*
X80763335Y8497820D01*
X80715716Y8021629D01*
X80763335Y8069248D01*
X80858573Y8116867D01*
X81096668Y8116867D01*
X81191906Y8069248D01*
X81239525Y8021629D01*
X81287144Y7926391D01*
X81287144Y7688296D01*
X81239525Y7593058D01*
X81191906Y7545439D01*
X81096668Y7497820D01*
X80858573Y7497820D01*
X80763335Y7545439D01*
X80715716Y7593058D01*
G04 #@! TO.C,R14*
X70731142Y44759620D02*
X70397809Y45235810D01*
X70159714Y44759620D02*
X70159714Y45759620D01*
X70540666Y45759620D01*
X70635904Y45712000D01*
X70683523Y45664381D01*
X70731142Y45569143D01*
X70731142Y45426286D01*
X70683523Y45331048D01*
X70635904Y45283429D01*
X70540666Y45235810D01*
X70159714Y45235810D01*
X71683523Y44759620D02*
X71112095Y44759620D01*
X71397809Y44759620D02*
X71397809Y45759620D01*
X71302571Y45616762D01*
X71207333Y45521524D01*
X71112095Y45473905D01*
X72540666Y45426286D02*
X72540666Y44759620D01*
X72302571Y45807239D02*
X72064476Y45092953D01*
X72683523Y45092953D01*
G04 #@! TO.C,R13*
X79456042Y42321220D02*
X79122709Y42797410D01*
X78884614Y42321220D02*
X78884614Y43321220D01*
X79265566Y43321220D01*
X79360804Y43273600D01*
X79408423Y43225981D01*
X79456042Y43130743D01*
X79456042Y42987886D01*
X79408423Y42892648D01*
X79360804Y42845029D01*
X79265566Y42797410D01*
X78884614Y42797410D01*
X80408423Y42321220D02*
X79836995Y42321220D01*
X80122709Y42321220D02*
X80122709Y43321220D01*
X80027471Y43178362D01*
X79932233Y43083124D01*
X79836995Y43035505D01*
X80741757Y43321220D02*
X81360804Y43321220D01*
X81027471Y42940267D01*
X81170328Y42940267D01*
X81265566Y42892648D01*
X81313185Y42845029D01*
X81360804Y42749791D01*
X81360804Y42511696D01*
X81313185Y42416458D01*
X81265566Y42368839D01*
X81170328Y42321220D01*
X80884614Y42321220D01*
X80789376Y42368839D01*
X80741757Y42416458D01*
G04 #@! TO.C,R12*
X85549502Y7513060D02*
X85216169Y7989250D01*
X84978074Y7513060D02*
X84978074Y8513060D01*
X85359026Y8513060D01*
X85454264Y8465440D01*
X85501883Y8417821D01*
X85549502Y8322583D01*
X85549502Y8179726D01*
X85501883Y8084488D01*
X85454264Y8036869D01*
X85359026Y7989250D01*
X84978074Y7989250D01*
X86501883Y7513060D02*
X85930455Y7513060D01*
X86216169Y7513060D02*
X86216169Y8513060D01*
X86120931Y8370202D01*
X86025693Y8274964D01*
X85930455Y8227345D01*
X86882836Y8417821D02*
X86930455Y8465440D01*
X87025693Y8513060D01*
X87263788Y8513060D01*
X87359026Y8465440D01*
X87406645Y8417821D01*
X87454264Y8322583D01*
X87454264Y8227345D01*
X87406645Y8084488D01*
X86835217Y7513060D01*
X87454264Y7513060D01*
G04 #@! TD*
M02*
